<svg width="18" height="14" viewBox="0 0 18 14" fill="none" xmlns="http://www.w3.org/2000/svg">
<path fill-rule="evenodd" clip-rule="evenodd" d="M16.017 5.99991H3.51749L7.34477 1.63991C7.7177 1.21591 7.6566 0.584909 7.20992 0.231909C6.7622 -0.122091 6.09851 -0.0640909 5.72663 0.359909L0.45925 6.35991C0.418165 6.40691 0.397095 6.46191 0.366544 6.51391C0.341261 6.55591 0.31071 6.59191 0.291747 6.63791C0.244341 6.75291 0.215897 6.87391 0.215897 6.99591C0.215897 6.99691 0.214844 6.99891 0.214844 6.99991C0.214844 7.00091 0.215897 7.00291 0.215897 7.00391C0.215897 7.12591 0.244341 7.24691 0.291747 7.36191C0.31071 7.40791 0.341261 7.44391 0.366544 7.48591C0.397095 7.53791 0.418165 7.59291 0.45925 7.63991L5.72663 13.6399C5.93522 13.8769 6.2344 13.9999 6.5357 13.9999C6.77378 13.9999 7.01292 13.9239 7.20992 13.7679C7.6566 13.4149 7.7177 12.7839 7.34477 12.3599L3.51749 7.99991H16.017C16.5985 7.99991 17.0705 7.55191 17.0705 6.99991C17.0705 6.44791 16.5985 5.99991 16.017 5.99991Z" fill="#231F20"/>
</svg>
