<svg width="70" height="70" viewBox="0 0 70 70" fill="none" xmlns="http://www.w3.org/2000/svg">
<path d="M9.94909 25.2256L13.7397 28.2562C13.899 28.3838 14.0912 28.4637 14.2941 28.4868C14.4969 28.5099 14.7022 28.4753 14.8862 28.3869C15.0702 28.2984 15.2254 28.1599 15.334 27.9871C15.4427 27.8143 15.5002 27.6144 15.5001 27.4103V24.1619H20.1043C20.0907 24.1816 20.0737 24.2002 20.0597 24.2201C18.4381 26.47 17.3457 29.0569 16.8637 31.7877C16.3818 34.5185 16.5228 37.3228 17.2763 39.9916C18.0298 42.6603 19.3763 45.1246 21.2155 47.2007C23.0546 49.2768 25.3389 50.9111 27.898 51.9819C27.9266 51.9935 27.9561 52.0041 27.9858 52.0136C30.2106 52.9298 32.5938 53.4001 35.0001 53.3978C36.0898 53.3967 37.1772 53.3003 38.2501 53.1096V59.8947C38.2512 61.043 38.7082 62.144 39.5206 62.9561C40.333 63.7681 41.4345 64.2248 42.5834 64.2259H57.7501C58.899 64.2248 60.0005 63.7681 60.813 62.9561C61.6254 62.144 62.0823 61.043 62.0834 59.8947V50.0658C62.0851 49.2535 61.9032 48.4513 61.5513 47.7191C61.1994 46.9869 60.6866 46.3436 60.0511 45.8372L56.2605 42.8065C56.1011 42.679 55.909 42.5991 55.7061 42.576C55.5033 42.5528 55.298 42.5875 55.114 42.6759C54.93 42.7643 54.7748 42.9029 54.6662 43.0757C54.5575 43.2485 54.5 43.4484 54.5001 43.6525V46.9009H49.0157C49.317 46.5472 49.6213 46.1956 49.8947 45.8214C49.8989 45.8159 49.9034 45.8111 49.9083 45.8055C49.9131 45.8 49.916 45.7964 49.9195 45.792C51.9103 43.0438 53.1026 39.7992 53.3649 36.4164C53.6271 33.0336 52.9491 29.6442 51.4056 26.6223C49.8621 23.6004 47.5132 21.0635 44.6182 19.2918C41.7232 17.52 38.3947 16.5823 35.0001 16.5822C33.9104 16.5833 32.8229 16.6797 31.7501 16.8703V11.1681C31.7489 10.0197 31.292 8.91873 30.4796 8.10671C29.6672 7.29469 28.5657 6.838 27.4168 6.83685H12.2501C11.1012 6.838 9.99964 7.29469 9.18723 8.10671C8.37482 8.91873 7.91791 10.0197 7.91676 11.1681V20.9969C7.91509 21.8092 8.097 22.6114 8.44891 23.3437C8.80082 24.0759 9.31364 24.7192 9.94909 25.2256ZM55.5834 49.0665C55.8707 49.0665 56.1463 48.9525 56.3495 48.7494C56.5526 48.5463 56.6668 48.2709 56.6668 47.9837V45.9049L58.6969 47.528C59.0784 47.8318 59.3863 48.2179 59.5975 48.6574C59.8087 49.0968 59.9179 49.5783 59.9168 50.0658V59.8947C59.916 60.4688 59.6875 61.0192 59.2813 61.4252C58.8752 61.8311 58.3245 62.0595 57.7501 62.0603H42.5834C42.009 62.0595 41.4584 61.8311 41.0522 61.4252C40.646 61.0192 40.4175 60.4688 40.4168 59.8947V51.2322C40.4175 50.658 40.646 50.1076 41.0522 49.7017C41.4584 49.2957 42.009 49.0673 42.5834 49.0665H55.5834ZM43.9748 46.9009C44.1511 46.2651 44.3119 45.6284 44.4573 44.9908C45.3657 45.1995 46.2758 45.4424 47.1876 45.7197C46.8231 46.1332 46.4347 46.5248 46.0298 46.9009H43.9748ZM48.5875 43.885C47.3545 43.488 46.1233 43.1496 44.8938 42.8699C45.3017 40.6256 45.5344 38.3531 45.5897 36.0728H51.2095C51.0276 38.86 50.124 41.552 48.5875 43.885ZM48.6072 26.125C50.133 28.4506 51.0292 31.1319 51.2083 33.9072H45.5897C45.5346 31.6351 45.3026 29.3708 44.8957 27.1347C46.1472 26.8512 47.3844 26.5144 48.6072 26.1245V26.125ZM47.2155 24.2865C46.3067 24.5593 45.3896 24.8012 44.4642 25.0123C44.1642 23.6912 43.7973 22.3767 43.3636 21.0685C44.8075 21.934 46.1071 23.0198 47.2155 24.2865ZM36.0834 18.7903C37.6228 18.8939 39.1393 19.2171 40.5871 19.7499C41.3118 21.604 41.8985 23.5091 42.3422 25.4496C40.2746 25.8155 38.1825 26.026 36.0834 26.0794V18.7903ZM36.0834 28.2488C38.3273 28.1934 40.5636 27.9672 42.773 27.572C43.1515 29.6638 43.3688 31.7815 43.423 33.9065H36.0834V28.2488ZM36.0834 36.0728H43.423C43.3689 38.2041 43.1516 40.3282 42.773 42.4263C40.564 42.0261 38.3276 41.7947 36.0834 41.7344V36.0728ZM36.0834 43.9003C38.181 43.96 40.2712 44.1764 42.3364 44.5477C42.1478 45.3677 41.9345 46.183 41.6964 46.9936C40.783 47.1884 39.9572 47.6732 39.3422 48.3758C38.7273 49.0784 38.3563 49.961 38.2846 50.8918C37.5585 51.0396 36.823 51.1371 36.0834 51.1834V43.9003ZM21.3923 26.1261C22.5607 26.5005 23.7268 26.8214 24.8906 27.0886C24.4814 29.3399 24.2484 31.6197 24.1938 33.9072H18.7919C18.9716 31.1325 19.8675 28.4516 21.3923 26.1261ZM22.7813 24.2884C22.8188 24.2462 22.8566 24.204 22.8948 24.1619H25.5106C25.4429 24.4326 25.3819 24.6978 25.3202 24.966C24.4758 24.7696 23.6295 24.5438 22.7813 24.2884ZM21.375 43.823C19.8611 41.5048 18.9713 38.8353 18.7918 36.0728H24.1949C24.2501 38.3523 24.4827 40.624 24.8907 42.8674C23.7251 43.1341 22.5532 43.4526 21.375 43.823ZM22.7642 45.665C23.6213 45.4106 24.4741 45.1859 25.3224 44.9907C25.6119 46.2574 25.9581 47.508 26.361 48.7425C25.0186 47.8971 23.8069 46.8604 22.7642 45.665ZM33.9168 51.1876C32.285 51.0746 30.6793 50.719 29.1524 50.1327C28.4485 48.3151 27.8772 46.449 27.443 44.5489C29.5801 44.1585 31.7448 43.9386 33.9168 43.8914V51.1876ZM33.9168 41.732C31.6007 41.786 29.2922 42.0187 27.012 42.428C26.6325 40.3293 26.4147 38.2047 26.3605 36.0728H33.9168V41.732ZM33.9168 33.9072H26.3605C26.4137 31.7694 26.631 29.6388 27.0105 27.5343C29.2902 27.9533 31.5995 28.1921 33.9168 28.2483V33.9072ZM31.7501 19.8306V19.0808C32.465 18.9368 33.1889 18.8416 33.9168 18.7957V26.0795C31.744 26.0251 29.5788 25.802 27.4406 25.4122C27.5399 24.9852 27.6468 24.5565 27.7614 24.1264C28.8446 24.0422 29.8564 23.5534 30.5955 22.7575C31.3346 21.9615 31.7468 20.9166 31.7501 19.8306ZM10.0834 11.1681C10.0842 10.594 10.3127 10.0436 10.7189 9.63761C11.125 9.23164 11.6757 9.00323 12.2501 9.00248H27.4168C27.9912 9.00323 28.5418 9.23164 28.948 9.63761C29.3542 10.0436 29.5827 10.594 29.5834 11.1681V19.8306C29.5827 20.4047 29.3542 20.9551 28.948 21.3611C28.5418 21.7671 27.9912 21.9955 27.4168 21.9962H14.4168C14.1294 21.9962 13.8539 22.1103 13.6507 22.3134C13.4476 22.5164 13.3334 22.7919 13.3334 23.079V25.1579L11.3033 23.5348C10.9218 23.2309 10.6139 22.8449 10.4027 22.4054C10.1915 21.966 10.0823 21.4845 10.0834 20.9969V11.1681Z" fill="white"/>
<path d="M19.8335 16.5822C20.731 16.5822 21.4585 15.855 21.4585 14.958C21.4585 14.0609 20.731 13.3337 19.8335 13.3337C18.936 13.3337 18.2085 14.0609 18.2085 14.958C18.2085 15.855 18.936 16.5822 19.8335 16.5822Z" fill="white"/>
<path d="M25.7917 16.5822C26.6892 16.5822 27.4167 15.855 27.4167 14.958C27.4167 14.0609 26.6892 13.3337 25.7917 13.3337C24.8943 13.3337 24.1667 14.0609 24.1667 14.958C24.1667 15.855 24.8943 16.5822 25.7917 16.5822Z" fill="white"/>
<path d="M13.8752 16.5822C14.7727 16.5822 15.5002 15.855 15.5002 14.958C15.5002 14.0609 14.7727 13.3337 13.8752 13.3337C12.9778 13.3337 12.2502 14.0609 12.2502 14.958C12.2502 15.855 12.9778 16.5822 13.8752 16.5822Z" fill="white"/>
<path d="M50.1667 57.729C51.0642 57.729 51.7917 57.0018 51.7917 56.1048C51.7917 55.2078 51.0642 54.4806 50.1667 54.4806C49.2693 54.4806 48.5417 55.2078 48.5417 56.1048C48.5417 57.0018 49.2693 57.729 50.1667 57.729Z" fill="white"/>
<path d="M56.1252 57.729C57.0227 57.729 57.7502 57.0018 57.7502 56.1048C57.7502 55.2078 57.0227 54.4806 56.1252 54.4806C55.2278 54.4806 54.5002 55.2078 54.5002 56.1048C54.5002 57.0018 55.2278 57.729 56.1252 57.729Z" fill="white"/>
<path d="M44.2085 57.729C45.106 57.729 45.8335 57.0018 45.8335 56.1048C45.8335 55.2078 45.106 54.4806 44.2085 54.4806C43.311 54.4806 42.5835 55.2078 42.5835 56.1048C42.5835 57.0018 43.311 57.729 44.2085 57.729Z" fill="white"/>
</svg>
