<svg width="63" height="63" viewBox="0 0 63 63" fill="none" xmlns="http://www.w3.org/2000/svg">
<g clip-path="url(#clip0)">
<path d="M51.8417 37.9382C51.5085 37.361 50.7705 37.1633 50.1933 37.4965L48.8918 38.2482L46.7928 34.6127L48.0943 33.8614C48.6719 33.5282 48.8696 32.7897 48.536 32.2126C48.2028 31.6354 47.4648 31.4377 46.8876 31.7709L45.5861 32.5226L43.4871 28.887L44.7886 28.1358C45.3662 27.8026 45.5639 27.0641 45.2308 26.4869C44.8971 25.9098 44.1591 25.7121 43.5819 26.0452L42.2804 26.797L40.1814 23.1614L41.4829 22.4101C42.0605 22.077 42.2582 21.3384 41.9251 20.7613C41.5914 20.1841 40.8534 19.9864 40.2762 20.3196L38.9747 21.0713L37.3339 18.2295C37.0007 17.6524 36.2626 17.4546 35.6855 17.7878C35.1084 18.121 34.9102 18.8595 35.2438 19.4367L36.8841 22.278L35.5826 23.0297C35.0055 23.3629 34.8073 24.101 35.1409 24.6781C35.3646 25.0655 35.77 25.2817 36.1871 25.2817C36.392 25.2817 36.5996 25.2298 36.7893 25.1198L38.0913 24.3685L40.1899 28.0036L38.8883 28.7554C38.3112 29.0885 38.113 29.8266 38.4466 30.4037C38.6698 30.7912 39.0757 31.0073 39.4928 31.0073C39.6977 31.0073 39.9053 30.9554 40.095 30.8454L41.397 30.0942L43.4956 33.7293L42.194 34.481C41.6169 34.8142 41.4187 35.5522 41.7523 36.1294C41.9755 36.5168 42.3814 36.7329 42.7986 36.7329C43.0034 36.7329 43.211 36.681 43.4007 36.5711L44.7027 35.8198L46.8013 39.4549L45.4997 40.2066C44.9226 40.5398 44.7244 41.2779 45.058 41.855C45.2813 42.2424 45.6871 42.4586 46.1043 42.4586C46.3091 42.4586 46.5167 42.4067 46.7064 42.2967L48.0084 41.5454L49.6487 44.3868C49.8724 44.7742 50.2778 44.9903 50.695 44.9903C50.8998 44.9903 51.1074 44.9384 51.2976 44.8285C51.8747 44.4953 52.0725 43.7573 51.7393 43.1801L50.0985 40.3383L51.4 39.587C51.9771 39.2539 52.1753 38.5153 51.8417 37.9382Z" fill="white"/>
<path d="M60.5111 27.9776C60.2864 27.35 59.596 27.0235 58.9679 27.2476C58.3408 27.4722 58.0137 28.1631 58.2384 28.7907C60.932 36.3219 60.3115 44.449 56.5353 51.0878C56.0412 51.9566 55.1158 52.4945 54.1168 52.4945C54.1106 52.4945 54.1045 52.4945 54.0984 52.4945C44.7409 52.4341 35.8658 47.0931 30.9372 38.5563C26.8218 31.4282 26.0124 23.0316 28.5508 15.7194C28.5546 15.7086 28.5593 15.6987 28.5631 15.6878C28.5645 15.6831 28.5654 15.6789 28.5664 15.6741C29.0657 14.2452 29.6919 12.8573 30.4474 11.5289C30.9415 10.6601 31.8669 10.1222 32.8659 10.1222H32.8839C40.5226 10.1713 47.872 13.6983 53.0474 19.7986C53.4787 20.3068 54.2399 20.3696 54.7486 19.9383C55.2569 19.507 55.3192 18.7453 54.8878 18.2371C49.2566 11.5997 41.2422 7.76218 32.8994 7.70838C31.0212 7.69517 29.278 8.70316 28.3493 10.3359C27.7052 11.4676 27.1474 12.6388 26.6736 13.8398C24.9384 13.3821 23.147 13.1499 21.333 13.1499C19.2241 13.1499 17.1883 13.4652 15.2676 14.0494C15.2058 14.0631 15.1449 14.081 15.0864 14.1046C10.727 15.4741 6.97956 18.2385 4.36803 21.8717C4.28686 21.9576 4.21797 22.0548 4.16417 22.1614C1.90327 25.4223 0.546544 29.3542 0.459242 33.5933C0.449804 33.675 0.44886 33.7571 0.455939 33.8382C0.455467 33.9019 0.453579 33.9652 0.453579 34.0289C0.453579 38.6569 1.96792 42.937 4.52565 46.4022C4.58369 46.5103 4.65825 46.6094 4.7465 46.6958C7.21126 49.9146 10.5892 52.3987 14.4909 53.7555C14.5503 53.7814 14.6117 53.8036 14.6744 53.8196C16.7664 54.5251 19.0056 54.9083 21.333 54.9083C23.6246 54.9083 25.8713 54.5327 27.994 53.8182C28.0577 53.8017 28.1195 53.7795 28.1799 53.7531C31.2572 52.6847 34.0683 50.9023 36.3689 48.515C41.4291 52.5464 47.6483 54.8668 54.0828 54.9083H54.1163C55.9817 54.9083 57.7103 53.9036 58.6334 52.2808C62.7573 45.0299 63.4421 36.1718 60.5111 27.9776ZM21.333 40.1604L15.5187 35.9359L17.7395 29.1008H25.0634C25.4348 31.4518 26.0851 33.7811 27.0129 36.0335L21.333 40.1604ZM13.1412 35.4408L8.26031 37.0392L2.88955 33.137C3.05189 29.7421 4.13586 26.5846 5.89512 23.9094H12.4659L15.5243 28.1065L13.1412 35.4408ZM2.99573 36.1978L6.5992 38.8159L5.22454 43.047C4.06082 40.9767 3.28501 38.6606 2.99573 36.1978ZM25.8841 16.1291C24.8737 19.5282 24.5071 23.1109 24.7812 26.687H17.4766L14.4347 22.5125L16.4823 16.2112C18.0287 15.7898 19.6549 15.5632 21.333 15.5632C22.878 15.5632 24.4037 15.7539 25.8841 16.1291ZM13.6027 17.2616L12.2271 21.4956H7.78557C9.41978 19.7302 11.3938 18.2838 13.6027 17.2616ZM6.93944 45.5816L8.96439 39.3482L13.8892 37.7362L20.1259 42.2674V47.414L14.7853 51.294C11.6859 50.1142 8.98374 48.1237 6.93944 45.5816ZM17.7277 52.1397L21.333 49.5206L24.9365 52.1387C23.7596 52.3728 22.5538 52.4941 21.333 52.4941C20.0995 52.4945 18.8942 52.3718 17.7277 52.1397ZM27.8802 51.294L22.5397 47.414V42.2674L28.0397 38.2713C28.2946 38.7739 28.5631 39.2713 28.8467 39.763C30.4082 42.4675 32.3369 44.8761 34.5383 46.9336C32.6446 48.8708 30.3691 50.3497 27.8802 51.294Z" fill="white"/>
<path d="M57.0904 24.6644C57.4089 24.6644 57.7189 24.5351 57.9445 24.3095C58.1691 24.0863 58.297 23.7749 58.297 23.4563C58.297 23.1387 58.1691 22.8273 57.9445 22.6027C57.7189 22.3785 57.4089 22.2492 57.0904 22.2492C56.7728 22.2492 56.4627 22.3785 56.2372 22.6027C56.0125 22.8273 55.8846 23.1387 55.8846 23.4563C55.8846 23.7749 56.0125 24.0863 56.2372 24.3095C56.4627 24.5351 56.7728 24.6644 57.0904 24.6644Z" fill="white"/>
</g>
<defs>
<clipPath id="clip0">
<rect width="61.8537" height="61.8537" fill="white" transform="translate(0.451172 0.33905)"/>
</clipPath>
</defs>
</svg>
