<svg width="0" height="0" class="hidden">
  <symbol fill="none" xmlns="http://www.w3.org/2000/svg" viewBox="0 0 70 70" id="lang">
    <path d="M9.95 25.226l3.79 3.03a1.083 1.083 0 001.76-.846v-3.248h4.604c-.013.02-.03.038-.044.058a18.418 18.418 0 007.838 27.762l.088.032A18.374 18.374 0 0035 53.398a18.678 18.678 0 003.25-.288v6.785a4.335 4.335 0 004.333 4.33H57.75a4.339 4.339 0 004.333-4.33v-9.83a5.391 5.391 0 00-2.032-4.228l-3.79-3.03a1.084 1.084 0 00-1.76.846V46.9h-5.485c.301-.354.605-.705.879-1.08l.013-.015a18.407 18.407 0 00-5.29-26.514A18.426 18.426 0 0031.75 16.87v-5.702a4.335 4.335 0 00-4.333-4.331H12.25a4.339 4.339 0 00-4.333 4.331v9.829a5.392 5.392 0 002.032 4.229zm45.633 23.84a1.084 1.084 0 001.084-1.082v-2.08l2.03 1.624a3.235 3.235 0 011.22 2.538v9.829a2.168 2.168 0 01-2.167 2.165H42.583a2.17 2.17 0 01-2.166-2.165v-8.663a2.167 2.167 0 012.166-2.166h13zm-11.608-2.165c.176-.636.337-1.273.482-1.91.909.209 1.819.451 2.73.729-.364.413-.752.805-1.157 1.18h-2.055zm4.612-3.016a43.622 43.622 0 00-3.693-1.015c.408-2.244.64-4.517.696-6.797h5.62a16.11 16.11 0 01-2.623 7.812zm.02-17.76a16.073 16.073 0 012.601 7.782H45.59a43.754 43.754 0 00-.694-6.772 44.774 44.774 0 003.711-1.01zm-1.392-1.838c-.908.272-1.825.514-2.75.725a42.28 42.28 0 00-1.101-3.944 16.155 16.155 0 013.852 3.218zM36.084 18.79c1.54.104 3.056.427 4.504.96a40.383 40.383 0 011.755 5.7c-2.067.366-4.16.576-6.259.63v-7.29zm0 9.459a44.186 44.186 0 006.69-.677 41.57 41.57 0 01.65 6.335h-7.34v-5.658zm0 7.824h7.34a41.743 41.743 0 01-.65 6.353 44.184 44.184 0 00-6.69-.692v-5.661zm0 7.827c2.098.06 4.188.276 6.253.648-.188.82-.401 1.635-.64 2.446a4.328 4.328 0 00-3.411 3.898 16.07 16.07 0 01-2.202.291V43.9zm-14.69-17.774a42.98 42.98 0 003.498.963 44 44 0 00-.697 6.818h-5.402a16.087 16.087 0 012.6-7.78zm1.388-1.838l.114-.126h2.616c-.068.27-.13.536-.19.804a41.093 41.093 0 01-2.54-.678zm-1.406 19.535a16.081 16.081 0 01-2.583-7.75h5.403a43.87 43.87 0 00.696 6.794 45.739 45.739 0 00-3.516.956zm1.39 1.842c.856-.254 1.71-.48 2.557-.674a43.14 43.14 0 001.039 3.752 16.297 16.297 0 01-3.597-3.078zm11.152 5.523a16.464 16.464 0 01-4.765-1.055 40.356 40.356 0 01-1.709-5.584c2.137-.39 4.302-.61 6.474-.658v7.297zm0-9.456a45.021 45.021 0 00-6.905.696 41.666 41.666 0 01-.652-6.355h7.557v5.659zm0-7.825H26.36c.054-2.138.271-4.268.65-6.373 2.28.42 4.59.658 6.907.714v5.66zM31.75 19.831v-.75c.715-.144 1.439-.24 2.167-.285v7.284a41.966 41.966 0 01-6.476-.668c.099-.427.206-.855.32-1.286a4.325 4.325 0 003.99-4.295zm-21.667-8.663a2.168 2.168 0 012.167-2.166h15.167a2.17 2.17 0 012.166 2.166v8.663a2.168 2.168 0 01-2.166 2.165h-13a1.084 1.084 0 00-1.084 1.083v2.079l-2.03-1.623a3.236 3.236 0 01-1.22-2.538v-9.829z" fill="#fff"></path>
    <path d="M19.834 16.582a1.625 1.625 0 100-3.249 1.625 1.625 0 000 3.25zm5.958 0a1.625 1.625 0 100-3.249 1.625 1.625 0 000 3.25zm-11.917 0a1.625 1.625 0 10.001-3.249 1.625 1.625 0 000 3.25zm36.292 41.147a1.625 1.625 0 100-3.25 1.625 1.625 0 000 3.25zm5.958 0a1.625 1.625 0 10.001-3.25 1.625 1.625 0 000 3.25zm-11.916 0a1.625 1.625 0 100-3.25 1.625 1.625 0 000 3.25z" fill="#fff"></path>
  </symbol>
  <symbol fill="none" xmlns="http://www.w3.org/2000/svg" viewBox="0 0 63 63" id="sport">
    <g clip-path="url(#clip0)" fill="#fff">
      <path d="M51.842 37.938a1.207 1.207 0 00-1.649-.442l-1.301.752-2.1-3.635 1.302-.752a1.206 1.206 0 10-1.206-2.09l-1.302.752-2.099-3.636 1.302-.751a1.207 1.207 0 10-1.207-2.09l-1.302.751-2.099-3.636 1.302-.75a1.207 1.207 0 10-1.207-2.091l-1.301.751-1.641-2.841a1.207 1.207 0 10-2.09 1.207l1.64 2.841-1.301.752a1.206 1.206 0 101.206 2.09l1.302-.752 2.099 3.636-1.302.751a1.206 1.206 0 101.207 2.09l1.302-.75 2.099 3.634-1.302.752a1.206 1.206 0 101.207 2.09l1.302-.751 2.098 3.635-1.301.752a1.206 1.206 0 101.206 2.09l1.302-.752 1.64 2.842a1.206 1.206 0 102.091-1.207l-1.64-2.842 1.301-.751a1.207 1.207 0 00.442-1.649z"></path>
      <path d="M60.511 27.978a1.208 1.208 0 00-2.273.813c2.694 7.53 2.074 15.658-1.703 22.297a2.785 2.785 0 01-2.418 1.407h-.019c-9.357-.06-18.232-5.402-23.16-13.939-4.116-7.128-4.926-15.524-2.387-22.837l.012-.031a25.183 25.183 0 011.884-4.159 2.785 2.785 0 012.419-1.407h.018c7.639.05 14.988 3.576 20.163 9.677a1.207 1.207 0 101.84-1.562C49.258 11.6 41.243 7.762 32.9 7.708a5.2 5.2 0 00-4.55 2.628 27.432 27.432 0 00-1.675 3.504 20.918 20.918 0 00-5.341-.69c-2.109 0-4.145.315-6.065.9a1.148 1.148 0 00-.182.055 20.966 20.966 0 00-10.718 7.767c-.081.086-.15.183-.204.29A20.757 20.757 0 00.46 33.592c-.01.082-.01.164-.003.245l-.002.19c0 4.629 1.514 8.909 4.072 12.374.058.108.132.207.22.294a20.97 20.97 0 009.745 7.06c.06.025.12.048.183.064a20.8 20.8 0 006.659 1.088 20.87 20.87 0 006.661-1.09 1.14 1.14 0 00.186-.065 20.88 20.88 0 008.189-5.238c5.06 4.031 11.28 6.352 17.714 6.393h.033a5.203 5.203 0 004.517-2.627c4.124-7.251 4.81-16.11 1.878-24.303zM21.333 40.16l-5.814-4.224 2.22-6.835h7.324a30.848 30.848 0 001.95 6.932l-5.68 4.127zm-8.192-4.72l-4.88 1.6-5.371-3.903a18.352 18.352 0 013.005-9.228h6.57l3.06 4.198-2.384 7.334zm-10.145.758l3.603 2.618-1.374 4.231a18.323 18.323 0 01-2.23-6.85zm22.888-20.069a29.227 29.227 0 00-1.103 10.558h-7.304l-3.042-4.175 2.047-6.3a18.506 18.506 0 019.402-.082zm-12.281 1.133l-1.376 4.234H7.786a18.55 18.55 0 015.817-4.234zm-6.664 28.32l2.025-6.234 4.925-1.612 6.237 4.531v5.147l-5.34 3.88a18.551 18.551 0 01-7.847-5.712zm10.789 6.558l3.605-2.62 3.604 2.619a18.463 18.463 0 01-7.21 0zm10.152-.846l-5.34-3.88v-5.147l5.5-3.996a31.09 31.09 0 006.499 8.662 18.47 18.47 0 01-6.659 4.361z"></path>
      <path d="M57.09 24.664a1.21 1.21 0 00.854-2.062 1.22 1.22 0 00-.854-.353c-.317 0-.627.13-.853.354a1.21 1.21 0 00.853 2.062z"></path>
    </g>
    <defs>
      <clipPath id="clip0">
        <path fill="#fff" transform="translate(.451 .339)" d="M0 0h61.854v61.854H0z"></path>
      </clipPath>
    </defs>
  </symbol>
</svg>