<svg width="20" height="20" viewBox="0 0 20 20" fill="none" xmlns="http://www.w3.org/2000/svg">
<g clip-path="url(#clip0)">
<path d="M16.0743 12.0751C15.7842 11.7275 15.4566 11.4172 15.1397 11.117C15.0283 11.0115 14.9131 10.9024 14.8022 10.7941C14.8022 10.7941 14.8021 10.7941 14.8021 10.794C14.6529 10.6485 14.5798 10.5452 14.5722 10.4689C14.5647 10.3939 14.616 10.2826 14.7338 10.1181C14.9101 9.87074 15.098 9.62293 15.2798 9.38329C15.4413 9.17027 15.6084 8.94998 15.7685 8.72844L15.8044 8.6787C16.1168 8.24636 16.4398 7.7993 16.6128 7.25451C16.6623 7.09831 16.7136 6.86716 16.5898 6.66424C16.4659 6.46127 16.2363 6.40112 16.0745 6.37356C15.9955 6.36002 15.9205 6.3589 15.8507 6.3589L13.8245 6.35711C13.4742 6.35127 13.2311 6.51731 13.0987 6.85075C12.9927 7.11706 12.8675 7.42568 12.7225 7.71844C12.445 8.28362 12.0924 8.93459 11.5814 9.47696L11.5587 9.50113C11.5239 9.53826 11.467 9.59899 11.4378 9.61293C11.3825 9.57813 11.3186 9.37915 11.3215 9.2749C11.3216 9.27233 11.3216 9.26977 11.3216 9.26722L11.3198 6.92599C11.3198 6.91409 11.319 6.90219 11.3174 6.89039C11.272 6.55638 11.1834 6.22153 10.6547 6.11721C10.6378 6.11385 10.6205 6.11218 10.6033 6.11218H8.49559C8.09905 6.11218 7.88931 6.29377 7.72116 6.49065C7.67249 6.54804 7.54316 6.70044 7.60905 6.88674C7.67572 7.07526 7.87436 7.11289 7.93957 7.12523C8.16926 7.16883 8.28804 7.29865 8.32481 7.54682C8.39749 8.02904 8.4064 8.5449 8.35288 9.16946C8.33796 9.33714 8.3102 9.46459 8.26541 9.57058C8.25301 9.59993 8.24213 9.61811 8.23452 9.62881C8.22239 9.62392 8.20351 9.61454 8.17736 9.59665C8.01595 9.48621 7.89431 9.31451 7.77668 9.14852C7.30683 8.48516 6.91162 7.7525 6.56832 6.90836C6.42694 6.56244 6.16115 6.36924 5.82042 6.36424C5.17125 6.35343 4.57086 6.35369 3.98555 6.36507C3.70948 6.36987 3.51588 6.45677 3.41005 6.62341C3.30408 6.79036 3.30796 7.00323 3.42161 7.2562C4.23401 9.06272 4.97167 10.3769 5.81334 11.5174C6.40597 12.3203 7.00254 12.8776 7.69074 13.2714C8.41382 13.6851 9.22929 13.8878 10.1753 13.8878C10.2829 13.8878 10.3924 13.8851 10.5033 13.8798C11.087 13.8533 11.3244 13.6211 11.3503 13.0526C11.3649 12.7522 11.3983 12.5088 11.5143 12.2973C11.5468 12.2381 11.5834 12.1985 11.6122 12.1912C11.6429 12.1835 11.6973 12.2023 11.7578 12.2416C11.8684 12.3134 11.9637 12.4108 12.042 12.4963C12.1213 12.5832 12.2015 12.673 12.2792 12.7598C12.4444 12.9446 12.6152 13.1357 12.7941 13.318C13.1989 13.7306 13.6655 13.9198 14.1816 13.8802L16.0359 13.8811C16.0359 13.8811 16.036 13.8811 16.036 13.8811C16.0419 13.8811 16.0478 13.8809 16.0536 13.8805C16.2675 13.8663 16.4524 13.7478 16.561 13.5555C16.6918 13.324 16.6898 13.0307 16.5556 12.7706C16.4156 12.5003 16.234 12.2676 16.0743 12.0751ZM16.0985 13.2944C16.0729 13.3397 16.0414 13.3479 16.0251 13.3499L14.1712 13.349C14.1712 13.349 14.1711 13.349 14.171 13.349C14.1637 13.349 14.1564 13.3493 14.1491 13.3499C13.7839 13.3804 13.4734 13.252 13.1732 12.946C13.003 12.7725 12.8363 12.5861 12.6752 12.4059C12.5967 12.318 12.5155 12.2272 12.434 12.1379C12.3328 12.0274 12.2078 11.9005 12.0471 11.7961C11.8066 11.64 11.6073 11.6447 11.4825 11.6762C11.359 11.7073 11.1834 11.7961 11.0486 12.042C10.874 12.3603 10.8355 12.7035 10.8198 13.0278C10.8108 13.2262 10.7772 13.2786 10.7632 13.2919C10.7449 13.3093 10.6835 13.34 10.4788 13.3493C9.49505 13.3956 8.66947 13.2194 7.95455 12.8104C7.33262 12.4546 6.78803 11.9434 6.24076 11.202C5.4224 10.0932 4.70235 8.80909 3.90612 7.03851C3.87726 6.97437 3.86836 6.93435 3.86578 6.91291C3.88609 6.90625 3.92578 6.89747 3.99536 6.8962C4.57474 6.88497 5.16886 6.88466 5.81217 6.89539C5.90024 6.89669 6.00053 6.92312 6.07647 7.10893C6.43516 7.99094 6.84952 8.75852 7.34327 9.45561C7.47436 9.64063 7.63754 9.87095 7.87736 10.035C8.09702 10.1855 8.27528 10.1783 8.38616 10.1458C8.4971 10.1132 8.65106 10.0229 8.75476 9.77735C8.82166 9.6191 8.8621 9.44089 8.88213 9.21574C8.93934 8.54769 8.92919 7.99227 8.85023 7.46839C8.79458 7.09305 8.60077 6.8219 8.29549 6.68344C8.3497 6.65521 8.4108 6.64343 8.49564 6.64343H10.5758C10.6928 6.66968 10.716 6.70052 10.7239 6.71107C10.7576 6.75588 10.7769 6.8619 10.7887 6.94474L10.7904 9.26438C10.7858 9.48675 10.8938 9.97993 11.2618 10.1152C11.2648 10.1163 11.2679 10.1173 11.2709 10.1183C11.6059 10.2278 11.8275 9.99131 11.9465 9.86425L11.9677 9.8417C12.5275 9.24756 12.9044 8.55334 13.1989 7.95347C13.3524 7.6437 13.4824 7.32328 13.5923 7.04708C13.6473 6.90857 13.6974 6.88575 13.8168 6.88828C13.8184 6.88833 13.8201 6.88833 13.8217 6.88833L15.8505 6.89013C15.8977 6.89013 15.9469 6.89068 15.9852 6.89721C16.0818 6.91367 16.1216 6.93372 16.1348 6.94203C16.1361 6.95742 16.1358 7.00169 16.1066 7.09409C15.9594 7.55734 15.675 7.95094 15.374 8.36766L15.338 8.41748C15.1816 8.63394 15.0164 8.85172 14.8567 9.06238C14.6725 9.30511 14.4822 9.55608 14.3018 9.80936C13.916 10.3476 13.9499 10.7048 14.4313 11.1744C14.5451 11.2855 14.6617 11.3959 14.7745 11.5028C15.0944 11.8057 15.3965 12.0918 15.6661 12.4149C15.8072 12.585 15.9672 12.7894 16.0838 13.0146C16.1447 13.1325 16.1298 13.239 16.0985 13.2944Z" fill="#FF5858"/>
</g>
<circle cx="10" cy="10" r="9.75" stroke="#FF5858" stroke-width="0.5"/>
<defs>
<clipPath id="clip0">
<rect width="13.3333" height="13.3333" fill="white" transform="translate(3.33337 3.33337)"/>
</clipPath>
</defs>
</svg>
