<svg width="20" height="20" viewBox="0 0 20 20" fill="none" xmlns="http://www.w3.org/2000/svg">
<g clip-path="url(#clip0)">
<path d="M13.0575 3.33337H6.94258C4.95243 3.33337 3.33337 4.95243 3.33337 6.94258V13.0576C3.33337 15.0476 4.95243 16.6667 6.94258 16.6667H13.0576C15.0476 16.6667 16.6667 15.0476 16.6667 13.0576V6.94258C16.6667 4.95243 15.0476 3.33337 13.0575 3.33337V3.33337ZM15.885 13.0576C15.885 14.6166 14.6166 15.885 13.0575 15.885H6.94258C5.38344 15.885 4.11503 14.6166 4.11503 13.0576V6.94258C4.11503 5.38344 5.38344 4.11503 6.94258 4.11503H13.0576C14.6166 4.11503 15.885 5.38344 15.885 6.94258V13.0576Z" fill="#FF5858"/>
<path d="M9.99997 6.35425C7.98968 6.35425 6.35425 7.98968 6.35425 9.99997C6.35425 12.0103 7.98968 13.6457 9.99997 13.6457C12.0103 13.6457 13.6457 12.0103 13.6457 9.99997C13.6457 7.98968 12.0103 6.35425 9.99997 6.35425ZM9.99997 12.864C8.42079 12.864 7.1359 11.5793 7.1359 9.99997C7.1359 8.42079 8.42079 7.1359 9.99997 7.1359C11.5793 7.1359 12.864 8.42079 12.864 9.99997C12.864 11.5793 11.5793 12.864 9.99997 12.864Z" fill="#FF5858"/>
<path d="M13.7329 5.05957C13.1388 5.05957 12.6556 5.54287 12.6556 6.13684C12.6556 6.73091 13.1388 7.21421 13.7329 7.21421C14.327 7.21421 14.8103 6.73091 14.8103 6.13684C14.8103 5.54276 14.327 5.05957 13.7329 5.05957ZM13.7329 6.43245C13.5699 6.43245 13.4373 6.2998 13.4373 6.13684C13.4373 5.97377 13.5699 5.84123 13.7329 5.84123C13.896 5.84123 14.0286 5.97377 14.0286 6.13684C14.0286 6.2998 13.896 6.43245 13.7329 6.43245Z" fill="#FF5858"/>
</g>
<circle cx="10" cy="10" r="9.75" stroke="#FF5858" stroke-width="0.5"/>
<defs>
<clipPath id="clip0">
<rect width="13.3333" height="13.3333" fill="white" transform="translate(3.33337 3.33337)"/>
</clipPath>
</defs>
</svg>
