<svg width="20" height="20" viewBox="0 0 20 20" fill="none" xmlns="http://www.w3.org/2000/svg">
<g clip-path="url(#clip0)">
<path d="M10.9003 16.6407H8.76091C8.40356 16.6407 8.11287 16.3506 8.11287 15.9939V11.1779H6.86471C6.50736 11.1779 6.21667 10.8876 6.21667 10.5311V8.46739C6.21667 8.11074 6.50736 7.82062 6.86471 7.82062H8.11287V6.78719C8.11287 5.76251 8.43526 4.89073 9.04507 4.26624C9.65764 3.6389 10.5137 3.30737 11.5207 3.30737L13.1523 3.31002C13.5091 3.31063 13.7992 3.60075 13.7992 3.95679V5.87288C13.7992 6.22953 13.5086 6.51965 13.1514 6.51965L12.0529 6.52006C11.7178 6.52006 11.6325 6.5871 11.6143 6.60765C11.5842 6.64172 11.5484 6.73806 11.5484 7.00407V7.82052H13.0688C13.1833 7.82052 13.2942 7.84869 13.3895 7.90179C13.5951 8.01644 13.7229 8.23322 13.7229 8.46749L13.7221 10.5312C13.7221 10.8876 13.4314 11.1778 13.074 11.1778H11.5484V15.9939C11.5484 16.3506 11.2576 16.6407 10.9003 16.6407ZM8.89606 15.8591H10.7652V10.8279C10.7652 10.5898 10.9593 10.3961 11.1978 10.3961H12.9389L12.9396 8.60228H11.1977C10.9592 8.60228 10.7652 8.40859 10.7652 8.17045V7.00407C10.7652 6.69869 10.7962 6.3514 11.0272 6.09037C11.3063 5.77482 11.7461 5.7384 12.0527 5.7384L13.016 5.738V4.09147L11.5201 4.08903C9.90175 4.08903 8.89606 5.12297 8.89606 6.78719V8.17045C8.89606 8.40849 8.702 8.60228 8.46349 8.60228H6.99986V10.3961H8.46349C8.702 10.3961 8.89606 10.5898 8.89606 10.8279V15.8591ZM13.1508 4.09167H13.1509H13.1508Z" fill="#FF5858"/>
</g>
<circle cx="10" cy="10" r="9.75" stroke="#FF5858" stroke-width="0.5"/>
<defs>
<clipPath id="clip0">
<rect width="13.3333" height="13.3333" fill="white" transform="translate(3.33337 3.33337)"/>
</clipPath>
</defs>
</svg>
