<svg width="705" height="626" viewBox="0 0 705 626" fill="none" xmlns="http://www.w3.org/2000/svg">
<circle opacity="0.6" cx="395.5" cy="347.728" r="277.5" fill="url(#paint0_linear)"/>
<mask id="mask0" mask-type="alpha" maskUnits="userSpaceOnUse" x="0" y="0" width="705" height="626">
<path d="M673 346.728C673 499.987 548.759 624.228 395.5 624.228C242.241 624.228 0 643.759 0 490.5C0 337.241 249 72.3741 404.5 29.2276C841.5 -92.0266 673 193.468 673 346.728Z" fill="#C4C4C4"/>
</mask>
<g mask="url(#mask0)">
</g>
<g clip-path="url(#clip0)">
<path d="M153.881 422.555C154.924 425.648 153.804 428.741 153.34 431.796C152.954 434.387 153.263 436.668 154.692 438.911C155.464 440.109 156.546 441.347 156.855 442.777C157.241 444.556 155.928 445.793 155.349 447.34C154.769 448.887 155.155 451.091 157.087 451.361C157.009 451.052 156.932 450.704 156.816 450.395C155.928 451.361 155.658 452.792 156.469 453.913C157.087 454.764 158.4 454.841 158.748 455.963C159.095 457.084 158.516 458.515 158.323 459.597C157.589 464.121 160.331 468.065 163.576 470.888C167.361 474.213 171.532 476.92 174.931 480.671C178.485 484.576 181.42 489.061 183.622 493.856C183.931 494.513 184.935 493.933 184.626 493.276C180.918 485.272 175.318 478.467 168.288 473.131C164.387 470.192 159.52 466.712 159.327 461.299C159.288 459.559 160.138 457.819 159.906 456.079C159.829 455.537 159.675 454.996 159.288 454.571C158.439 453.565 155.928 452.947 157.589 451.168C157.859 450.897 157.782 450.279 157.318 450.201C154.692 449.815 157.087 446.489 157.512 445.445C157.859 444.672 158.052 443.899 157.975 443.048C157.782 440.844 156.005 439.181 155.04 437.287C152.568 432.492 156.623 427.156 154.924 422.168C154.769 421.549 153.649 421.859 153.881 422.555Z" fill="#974D4D"/>
<path d="M154.692 423.676C181.305 435.469 187.832 466.751 192.467 492.503C192.583 493.237 193.703 492.928 193.587 492.193C189.763 470.811 185.322 447.765 169.06 432.028C165.043 428.123 160.408 424.913 155.271 422.671C154.615 422.361 153.997 423.367 154.692 423.676Z" fill="#974D4D"/>
<path d="M156.623 426.383C170.837 444.44 180.957 465.591 186.133 487.979C186.287 488.713 187.407 488.404 187.253 487.669C182.038 465.049 171.803 443.783 157.473 425.532C156.971 424.952 156.16 425.803 156.623 426.383Z" fill="#974D4D"/>
<path d="M159.752 445.755C168.133 449.583 174.854 456.311 178.717 464.701C179.026 465.397 180.03 464.779 179.721 464.121C175.82 455.576 168.906 448.655 160.37 444.749C159.636 444.44 159.057 445.445 159.752 445.755Z" fill="#974D4D"/>
<path d="M188.605 466.944C186.055 455.924 194.785 447.031 200.192 438.524C202.819 434.387 205.02 429.94 206.681 425.339C207.492 423.096 208.072 420.776 208.767 418.495C209.424 416.329 210.312 413.893 212.668 413.236C212.436 413.159 212.243 413.043 212.011 412.965C212.9 414.705 213.363 416.6 213.17 418.572C213.054 419.809 212.127 421.163 212.243 422.323C212.32 423.019 212.938 424.101 213.17 424.797C213.441 425.687 213.634 426.576 213.75 427.465C213.904 428.548 213.981 429.631 213.981 430.713C213.981 431.525 213.441 433.729 213.711 434.348C213.402 433.691 212.552 434.193 212.668 434.812C213.75 441.385 215.295 448.075 215.681 454.687C216.067 461.337 213.402 466.983 210.042 472.551C204.093 482.411 197.759 492.928 198.956 504.953C199.033 505.688 200.192 505.688 200.115 504.953C198.802 491.768 206.681 481.173 212.745 470.269C215.604 465.127 217.264 459.868 216.801 453.952C216.299 447.456 214.831 440.96 213.788 434.503C213.441 434.657 213.093 434.812 212.745 434.967C212.784 435.044 212.823 435.121 212.861 435.199C212.938 435.392 213.17 435.469 213.363 435.469C214.792 435.508 214.947 433.884 215.063 432.801C215.372 430.133 215.14 427.427 214.445 424.875C214.174 423.908 213.518 422.825 213.634 421.82C213.75 420.892 214.252 419.925 214.368 418.92C214.638 416.639 214.136 414.435 213.093 412.424C212.977 412.192 212.668 412.076 212.436 412.153C208.458 413.313 207.84 418.031 206.836 421.433C205.098 427.272 202.548 432.84 199.265 437.983C193.626 446.837 184.897 455.847 187.562 467.292C187.678 467.988 188.798 467.679 188.605 466.944Z" fill="#974D4D"/>
<path d="M210.08 422.671C209.424 434.348 204.711 445.136 200.887 456.001C197.025 467.021 194.592 478.389 193.742 490.028C193.703 490.763 194.862 490.763 194.901 490.028C195.789 478.003 198.454 466.325 202.471 454.996C206.218 444.44 210.582 433.961 211.239 422.671C211.278 421.936 210.119 421.936 210.08 422.671Z" fill="#974D4D"/>
<path d="M193.703 449.235C194.244 454.532 195.673 459.636 198.029 464.431C198.377 465.088 199.342 464.508 199.033 463.851C196.793 459.249 195.364 454.339 194.862 449.273C194.785 448.5 193.626 448.5 193.703 449.235Z" fill="#974D4D"/>
<path d="M202.78 454.764C206.797 452.328 210.196 449.157 212.9 445.329C213.325 444.711 212.32 444.131 211.896 444.749C209.308 448.423 206.025 451.439 202.162 453.759C201.544 454.145 202.123 455.151 202.78 454.764Z" fill="#974D4D"/>
<path d="M182.154 490.763C184.626 495.364 186.171 500.313 186.751 505.495C186.828 506.229 187.987 506.229 187.909 505.495C187.291 500.12 185.708 494.977 183.159 490.183C182.811 489.525 181.807 490.105 182.154 490.763Z" fill="#974D4D"/>
<path d="M191.849 490.028C192.815 494.784 193.356 499.617 193.433 504.489C193.433 505.224 194.592 505.224 194.592 504.489C194.514 499.501 193.974 494.591 192.969 489.719C192.815 488.984 191.695 489.293 191.849 490.028Z" fill="#974D4D"/>
<path d="M579.876 457.316C579.412 458.863 578.679 460.525 578.447 462.149C578.331 462.807 578.292 463.425 578.717 463.967C579.258 464.624 580.185 464.701 580.957 464.817C582.696 465.127 584.434 465.397 586.172 465.629C592.429 466.48 598.764 466.828 605.059 466.944C611.587 467.06 618.115 466.867 624.681 466.635C626.38 466.557 628.312 466.751 629.934 466.441C630.397 466.364 630.9 466.364 631.209 465.939C631.904 465.049 630.938 464.276 630.05 464.74C629.857 464.856 629.702 465.165 629.779 465.397C629.818 465.436 629.818 465.513 629.857 465.552C630.127 466.248 631.247 465.939 630.977 465.243C630.938 465.204 630.938 465.127 630.9 465.088C630.822 465.32 630.706 465.513 630.629 465.745C630.397 465.591 630.166 465.436 629.934 465.281C629.548 465.281 629.2 465.32 628.814 465.32C628.196 465.359 627.578 465.359 626.921 465.397C625.801 465.436 624.642 465.475 623.522 465.513C621.243 465.591 619.003 465.668 616.724 465.707C611.935 465.823 607.184 465.861 602.394 465.707C597.759 465.591 593.124 465.281 588.528 464.74C586.095 464.469 583.661 464.121 581.228 463.696C579.644 463.425 579.451 462.729 579.876 461.221C580.224 460.023 580.61 458.785 580.957 457.587C581.189 456.891 580.069 456.581 579.876 457.316Z" fill="#974D4D"/>
<path d="M580.957 457.935C581.575 456.04 585.824 456.504 587.33 456.465C589.455 456.388 591.618 456.311 593.742 456.272C598.261 456.195 602.78 456.195 607.338 456.349C611.741 456.465 616.145 456.697 620.509 457.045C622.595 457.2 624.874 457.161 626.882 457.625C628.968 458.128 628.968 459.133 629.277 460.796C629.509 461.995 629.741 463.193 629.972 464.392C630.127 465.127 631.247 464.817 631.093 464.083C630.822 462.652 630.513 461.183 630.243 459.752C630.088 458.901 629.972 457.935 629.316 457.277C628.08 456.04 625.415 456.349 623.831 456.195C618.192 455.692 612.553 455.344 606.875 455.189C601.351 455.035 595.789 455.035 590.266 455.228C587.833 455.305 585.322 455.267 582.889 455.576C581.498 455.769 580.223 456.233 579.76 457.664C579.605 458.36 580.726 458.631 580.957 457.935Z" fill="#974D4D"/>
<path d="M582.078 464.353C583.777 473.711 584.974 483.145 585.708 492.619C585.747 492.967 585.94 493.16 586.288 493.199C597.643 494.243 609.038 494.513 620.394 494.011C621.127 493.972 621.127 492.812 620.394 492.851C608.999 493.353 597.605 493.083 586.288 492.039C586.481 492.232 586.674 492.425 586.867 492.619C586.133 483.029 584.936 473.517 583.198 464.044C583.043 463.309 581.923 463.619 582.078 464.353Z" fill="#974D4D"/>
<path d="M626.689 466.673C625.144 475.489 623.252 484.267 620.973 492.928C620.78 493.663 621.9 493.972 622.093 493.237C624.333 484.576 626.265 475.799 627.81 466.983C627.925 466.248 626.805 465.939 626.689 466.673Z" fill="#974D4D"/>
<path d="M556.044 394.792C558.594 401.713 560.448 408.828 561.645 416.059C561.684 416.252 561.877 416.407 562.031 416.445C563.267 416.793 564.503 417.141 565.701 417.489C565.585 417.257 565.43 417.025 565.314 416.793C564.619 419.964 564.31 423.405 567.284 425.416C568.25 426.073 569.254 426.46 569.486 427.736C569.64 428.664 569.563 429.592 569.756 430.52C570.142 432.492 570.954 434.387 572.112 436.011C574.7 439.607 578.756 441.153 582.387 443.435C586.404 445.987 589.532 449.66 591.618 453.913C591.927 454.571 592.931 453.991 592.622 453.333C590.923 449.853 588.528 446.721 585.515 444.285C582.193 441.579 577.906 440.187 574.777 437.287C573.117 435.779 571.919 433.768 571.224 431.641C570.876 430.559 570.683 429.437 570.645 428.316C570.606 427.697 570.722 427.195 570.451 426.653C569.795 425.184 567.902 424.759 566.898 423.599C565.392 421.859 565.971 419.152 566.396 417.103C566.473 416.793 566.319 416.484 566.01 416.407C565.237 416.175 563.692 416.059 563.074 415.595C562.302 415.015 562.34 413.468 562.186 412.54C561.799 410.491 561.336 408.48 560.834 406.431C559.83 402.371 558.594 398.427 557.164 394.521C556.933 393.787 555.813 394.096 556.044 394.792Z" fill="#974D4D"/>
<path d="M557.28 394.831C570.567 398.736 581.962 407.823 588.76 419.887C589.107 420.544 590.112 419.964 589.764 419.307C582.85 406.972 571.185 397.692 557.589 393.709C556.855 393.477 556.546 394.599 557.28 394.831Z" fill="#974D4D"/>
<path d="M587.369 418.224C594.515 428.857 599.304 440.883 601.467 453.527C601.583 454.261 602.703 453.952 602.587 453.217C600.424 440.496 595.558 428.355 588.373 417.644C587.949 417.025 586.944 417.605 587.369 418.224Z" fill="#974D4D"/>
<path d="M559.83 398.079C574.7 413.159 587.06 430.52 596.523 449.467C596.871 450.124 597.875 449.544 597.528 448.887C588.064 429.863 575.589 412.424 560.679 397.267C560.1 396.764 559.289 397.576 559.83 398.079Z" fill="#974D4D"/>
<path d="M562.572 411.612C572.421 417.567 581.073 425.3 588.064 434.464C588.528 435.044 589.532 434.464 589.069 433.884C581.962 424.527 573.194 416.639 563.151 410.607C562.533 410.22 561.954 411.225 562.572 411.612Z" fill="#974D4D"/>
<path d="M572.383 401.404C574.893 406.856 576.477 412.656 577.172 418.649C577.25 419.384 578.408 419.384 578.331 418.649C577.636 412.463 575.975 406.508 573.387 400.824C573.039 400.128 572.074 400.708 572.383 401.404Z" fill="#974D4D"/>
<path d="M599.343 438.215C598.261 412.463 622.711 395.991 633.835 375.304C633.487 375.188 633.101 375.111 632.754 374.995C632.754 378.243 632.715 381.491 632.715 384.739C632.715 386.247 632.715 387.755 632.676 389.224C632.676 390.771 633.256 396.029 630.166 395.063C629.702 394.908 629.239 395.488 629.509 395.913C631.131 398.388 631.518 401.443 630.475 404.265C629.973 405.619 629.432 406.121 629.277 407.591C629.123 409.215 628.968 410.877 628.814 412.501C628.505 415.788 628.157 419.036 627.848 422.323C627.539 425.416 627.578 428.819 626.689 431.796C625.84 434.735 623.406 436.397 620.857 437.828C618.617 439.143 616.377 440.419 614.329 442.004C610.467 445.059 607.493 449.351 607.609 454.416C607.609 455.151 608.767 455.151 608.767 454.416C608.613 447.688 614.02 443.164 619.312 440.032C621.436 438.756 623.754 437.673 625.531 435.895C627.269 434.155 627.925 432.028 628.234 429.631C629.084 422.903 629.548 416.136 630.204 409.408C630.359 407.823 630.629 406.624 631.286 405.193C631.711 404.227 631.981 403.183 632.136 402.139C632.406 399.703 631.827 397.344 630.475 395.295C630.243 395.565 630.05 395.875 629.818 396.145C633.603 397.383 633.758 392.317 633.758 389.959C633.796 384.971 633.796 379.983 633.835 374.956C633.835 374.376 633.024 374.144 632.754 374.647C621.514 395.527 596.987 412.076 598.107 438.137C598.184 438.949 599.343 438.949 599.343 438.215Z" fill="#974D4D"/>
<path d="M630.552 385.744C624.681 395.643 618.81 405.541 613.711 415.865C611.239 420.853 608.999 425.919 606.991 431.1C605.021 436.281 603.476 441.656 603.785 447.224C603.823 447.959 604.982 447.959 604.944 447.224C604.596 441.501 606.295 436.011 608.343 430.713C610.39 425.416 612.746 420.196 615.295 415.131C620.239 405.271 625.878 395.759 631.479 386.285C631.942 385.667 630.938 385.087 630.552 385.744Z" fill="#974D4D"/>
<path d="M607.879 414.396C606.952 418.456 606.759 422.555 607.338 426.653C607.454 427.388 608.574 427.079 608.459 426.344C607.918 422.439 608.111 418.533 608.999 414.705C609.154 413.971 608.034 413.661 607.879 414.396Z" fill="#974D4D"/>
<path d="M619.273 394.56C618.694 397.885 618.771 401.211 619.505 404.497C619.66 405.232 620.78 404.923 620.625 404.188C619.93 401.095 619.853 398.001 620.393 394.869C620.509 394.135 619.428 393.825 619.273 394.56Z" fill="#974D4D"/>
<path d="M629.548 422.091C635.843 414.667 641.251 406.585 645.693 397.924C645.345 397.885 644.998 397.847 644.65 397.769C646.736 405 646.311 412.463 644.727 419.732C643.955 423.251 642.95 426.731 641.869 430.172C641.367 431.757 640.826 433.343 640.285 434.967C639.706 436.707 639.165 439.181 637.041 439.568C636.77 439.607 636.616 439.877 636.616 440.109C636.539 442.081 636.423 444.208 635.534 446.025C634.414 448.345 632.174 448.964 629.857 449.621C626.38 450.588 622.827 451.593 620.393 454.416C619.891 454.957 620.741 455.808 621.205 455.228C622.904 453.256 625.144 452.251 627.578 451.477C629.625 450.82 631.942 450.549 633.835 449.467C637.157 447.611 637.582 443.512 637.736 440.109C637.582 440.303 637.466 440.496 637.311 440.651C640.324 440.148 641.019 436.281 641.83 433.884C643.221 429.785 644.534 425.648 645.5 421.433C647.354 413.545 648.01 405.309 645.731 397.421C645.616 396.957 644.92 396.841 644.689 397.267C640.324 405.851 634.994 413.855 628.736 421.201C628.234 421.859 629.045 422.671 629.548 422.091Z" fill="#974D4D"/>
<path d="M642.371 409.833C639.397 419.307 634.414 428.123 627.81 435.508C622.441 441.463 614.214 446.644 613.325 455.344C613.248 456.079 614.407 456.079 614.484 455.344C614.947 450.588 618.037 446.915 621.282 443.667C624.488 440.457 627.81 437.441 630.668 433.923C636.423 426.885 640.749 418.804 643.453 410.143C643.723 409.447 642.603 409.137 642.371 409.833Z" fill="#974D4D"/>
<path d="M511.626 217.157C509.269 236.723 502.085 255.515 490.845 271.716C490.42 272.335 491.425 272.915 491.85 272.296C503.205 255.94 510.39 236.916 512.784 217.157C512.862 216.384 511.703 216.423 511.626 217.157Z" fill="#974D4D"/>
<path d="M511.819 217.467C528.814 219.632 546.002 219.709 562.997 217.737C563.731 217.66 563.731 216.5 562.997 216.577C546.002 218.549 528.814 218.472 511.819 216.307C511.085 216.229 511.085 217.389 511.819 217.467Z" fill="#974D4D"/>
<path d="M563.035 218.433C567.4 238.849 564.696 260.425 555.504 279.179C555.156 279.836 556.16 280.416 556.508 279.759C565.855 260.735 568.597 238.888 564.156 218.124C564.001 217.389 562.881 217.699 563.035 218.433Z" fill="#974D4D"/>
<path d="M491.579 272.76C512.012 280.339 534.105 279.991 555.581 279.565C556.315 279.565 556.315 278.405 555.581 278.405C534.221 278.831 512.243 279.179 491.888 271.639C491.193 271.368 490.884 272.489 491.579 272.76Z" fill="#974D4D"/>
<path d="M566.203 242.097C575.936 238.153 586.21 235.601 596.678 234.596C596.485 234.403 596.292 234.209 596.098 234.016C596.407 248.941 602.472 263.403 612.862 274.113C613.364 274.655 614.214 273.843 613.673 273.301C603.476 262.823 597.566 248.671 597.257 234.016C597.257 233.707 596.987 233.397 596.678 233.436C586.095 234.48 575.743 236.993 565.894 240.976C565.198 241.285 565.507 242.407 566.203 242.097Z" fill="#974D4D"/>
<path d="M545.075 280.377C546.62 285.675 548.281 290.972 550.251 296.115C551.834 300.252 553.881 304.273 557.319 307.173C557.898 307.637 558.709 306.825 558.13 306.361C554.538 303.307 552.529 299.053 550.946 294.684C549.208 289.889 547.663 285.017 546.195 280.107C545.963 279.372 544.882 279.681 545.075 280.377Z" fill="#974D4D"/>
<path d="M558.594 307.251C576.052 295.148 594.631 284.708 613.982 275.969C614.677 275.66 614.059 274.655 613.402 274.964C594.013 283.664 575.473 294.143 558.014 306.245C557.396 306.671 557.976 307.676 558.594 307.251Z" fill="#974D4D"/>
<path d="M515.295 222.493C529.586 224.272 543.955 225.548 558.323 226.283C559.057 226.321 559.057 225.161 558.323 225.123C543.916 224.388 529.586 223.112 515.295 221.333C514.561 221.256 514.561 222.416 515.295 222.493Z" fill="#974D4D"/>
<path d="M514.986 228.216C516.956 229.415 519.621 229.221 521.822 229.376C524.99 229.608 528.157 229.84 531.324 230.072C532.058 230.111 532.058 228.951 531.324 228.912C528.659 228.719 525.994 228.525 523.329 228.332C520.934 228.139 517.651 228.487 515.565 227.211C514.947 226.824 514.368 227.829 514.986 228.216Z" fill="#974D4D"/>
<path d="M512.977 233.977C520.162 234.48 527.346 234.983 534.492 235.485C541.367 235.949 548.512 237.032 555.388 236.336C556.122 236.259 556.122 235.099 555.388 235.176C548.512 235.872 541.367 234.828 534.492 234.325C527.307 233.823 520.123 233.32 512.977 232.817C512.244 232.779 512.244 233.939 512.977 233.977Z" fill="#974D4D"/>
<path d="M511.703 243.721C517.96 245.809 524.565 245.925 531.131 245.848C538.354 245.809 545.538 245.732 552.761 245.655C553.495 245.655 553.495 244.495 552.761 244.495C545.77 244.533 538.818 244.611 531.826 244.649C525.144 244.688 518.423 244.688 512.012 242.561C511.278 242.368 510.969 243.489 511.703 243.721Z" fill="#974D4D"/>
<path d="M503.746 261.237C503.746 262.475 503.63 263.789 503.746 265.065C503.823 265.684 504.094 266.303 504.828 266.341C505.716 266.38 506.411 265.375 506.952 264.833C507.84 263.905 508.651 262.939 509.463 261.972C509.926 261.392 509.115 260.58 508.651 261.16C507.686 262.397 506.643 263.557 505.523 264.64C505.407 264.756 505.291 264.872 505.137 264.988C504.905 265.22 504.828 265.181 504.905 264.833C504.789 264.563 504.905 264.021 504.905 263.751C504.905 262.9 504.905 262.088 504.905 261.237C504.905 260.503 503.746 260.503 503.746 261.237Z" fill="#974D4D"/>
<path d="M513.093 252.344C525.531 255.012 538.277 255.94 550.946 255.128C551.68 255.089 551.68 253.929 550.946 253.968C538.354 254.78 525.724 253.852 513.402 251.223C512.668 251.068 512.359 252.189 513.093 252.344Z" fill="#974D4D"/>
<path d="M558.864 293.176C574.43 287.492 589.3 280.068 603.167 270.981C603.785 270.556 603.205 269.551 602.587 269.976C588.798 279.024 574.043 286.448 558.555 292.055C557.86 292.325 558.169 293.447 558.864 293.176Z" fill="#974D4D"/>
<path d="M555.272 285.945C566.859 282.581 578.176 278.483 589.262 273.727C589.957 273.417 589.339 272.451 588.682 272.721C577.713 277.477 566.434 281.499 554.963 284.824C554.268 285.056 554.538 286.177 555.272 285.945Z" fill="#974D4D"/>
<path d="M560.293 276.665C566.898 273.92 573.503 271.136 580.108 268.391C585.901 265.955 591.85 263.751 596.987 260.039C597.566 259.613 597.025 258.608 596.407 259.033C591.154 262.823 585.013 265.104 579.103 267.579C572.73 270.247 566.357 272.915 559.984 275.583C559.327 275.853 559.636 276.975 560.293 276.665Z" fill="#974D4D"/>
<path d="M565.662 264.833C568.52 263.635 571.417 262.475 574.275 261.276C574.971 261.005 574.662 259.884 573.966 260.155C571.108 261.353 568.211 262.513 565.353 263.712C564.658 263.983 564.967 265.104 565.662 264.833Z" fill="#974D4D"/>
<path d="M567.246 249.831C571.069 249.947 574.932 248.091 578.447 246.699C582.116 245.229 585.708 243.605 589.223 241.827C589.88 241.479 589.3 240.473 588.644 240.821C585.206 242.561 581.73 244.147 578.138 245.577C574.777 246.931 570.954 248.787 567.246 248.671C566.473 248.632 566.473 249.792 567.246 249.831Z" fill="#974D4D"/>
<path d="M519.273 279.295C514.909 292.789 507.608 305.201 497.991 315.641C497.643 316.028 497.875 316.608 498.416 316.647C516.26 317.227 532.792 324.728 548.667 332.307C549.323 332.616 549.941 331.611 549.246 331.301C533.178 323.645 516.492 316.105 498.416 315.487C498.57 315.835 498.686 316.144 498.841 316.492C508.613 305.936 515.99 293.331 520.432 279.643C520.625 278.908 519.505 278.599 519.273 279.295Z" fill="#974D4D"/>
<path d="M549.98 331.92C555.195 321.789 560.834 311.891 566.859 302.185C567.246 301.567 566.241 300.948 565.855 301.605C559.83 311.272 554.19 321.209 548.976 331.34C548.628 331.997 549.633 332.616 549.98 331.92Z" fill="#974D4D"/>
<path d="M548.281 318.541C549.015 318.541 549.015 317.381 548.281 317.381C547.508 317.381 547.508 318.541 548.281 318.541Z" fill="#974D4D"/>
<path d="M508.226 310.228C514.252 309.803 519.35 313.437 524.874 315.255C527.887 316.221 531.015 316.724 534.028 317.729C537.079 318.696 539.899 320.165 542.564 321.983C543.182 322.408 543.761 321.403 543.143 320.977C540.71 319.315 538.084 317.923 535.303 316.956C532.019 315.796 528.505 315.255 525.183 314.172C519.544 312.316 514.406 308.643 508.226 309.107C507.454 309.107 507.454 310.267 508.226 310.228Z" fill="#974D4D"/>
<path d="M514.329 305.279C523.367 307.599 532.019 311.195 540.015 315.989C540.671 316.376 541.251 315.371 540.594 314.984C532.522 310.112 523.792 306.477 514.638 304.157C513.904 304.003 513.595 305.085 514.329 305.279Z" fill="#974D4D"/>
<path d="M517.265 298.512C521.282 299.363 524.99 300.987 528.389 303.307C529.007 303.732 529.586 302.727 528.968 302.301C525.492 299.943 521.668 298.28 517.574 297.391C516.84 297.236 516.531 298.357 517.265 298.512Z" fill="#974D4D"/>
<path d="M519.66 292.325C526.187 294.761 532.638 297.352 539.049 300.097C539.745 300.407 540.324 299.401 539.629 299.092C533.14 296.308 526.573 293.64 519.969 291.204C519.235 290.972 518.964 292.093 519.66 292.325Z" fill="#974D4D"/>
<path d="M191.154 232.508C190.536 241.711 190.381 250.991 187.446 259.845C184.703 268.081 180.107 275.621 174.082 281.847C173.579 282.388 174.391 283.2 174.893 282.659C180.918 276.433 185.553 268.932 188.373 260.735C191.501 251.648 191.656 242.02 192.313 232.508C192.351 231.773 191.192 231.773 191.154 232.508Z" fill="#974D4D"/>
<path d="M191.965 232.856C207.106 232.663 222.286 232.701 237.427 233.011C241.289 233.088 245.152 233.204 248.976 233.32C250.945 233.397 253.958 232.817 255.001 234.905C255.735 236.375 255.696 238.733 255.928 240.357C256.932 247.472 257.125 254.703 256.585 261.856C255.967 269.976 254.344 277.98 251.834 285.713C251.602 286.409 252.722 286.719 252.954 286.023C257.666 271.523 259.173 256.056 257.164 240.937C256.971 239.352 256.701 237.767 256.43 236.22C256.237 235.099 256.121 233.668 255.117 232.933C254.151 232.199 252.799 232.315 251.679 232.276C249.478 232.199 247.315 232.121 245.113 232.083C236.77 231.851 228.427 231.696 220.084 231.657C210.698 231.58 201.312 231.619 191.965 231.735C191.231 231.735 191.231 232.895 191.965 232.856Z" fill="#974D4D"/>
<path d="M174.352 283.277C193.974 288.768 214.715 289.348 234.646 285.056C235.38 284.901 235.071 283.78 234.337 283.935C214.638 288.227 194.089 287.608 174.661 282.156C173.927 281.963 173.618 283.045 174.352 283.277Z" fill="#974D4D"/>
<path d="M252.954 235.64C252.066 252.537 247.431 269.048 239.397 283.896C239.049 284.553 240.053 285.133 240.401 284.476C248.512 269.435 253.224 252.731 254.113 235.64C254.151 234.905 252.993 234.905 252.954 235.64Z" fill="#974D4D"/>
<path d="M252.954 238.849C254.035 243.992 253.572 249.173 252.683 254.277C251.911 258.724 251.023 263.171 250.018 267.617C248.048 276.317 245.383 284.901 240.285 292.287C239.86 292.905 240.864 293.485 241.289 292.867C246.581 285.211 249.284 276.279 251.293 267.269C253.34 258.067 256.082 247.975 254.074 238.54C253.919 237.805 252.799 238.115 252.954 238.849Z" fill="#974D4D"/>
<path d="M253.804 242.561C255.156 260.116 252.297 277.787 245.461 294.027C245.19 294.723 246.31 295.032 246.581 294.336C253.417 278.019 256.314 260.232 254.962 242.561C254.924 241.827 253.765 241.827 253.804 242.561Z" fill="#974D4D"/>
<path d="M181.729 292.867C201.081 296.192 220.857 296.076 240.169 292.557C240.903 292.441 240.594 291.32 239.86 291.436C220.779 294.916 201.158 295.032 182.038 291.745C181.305 291.629 180.996 292.751 181.729 292.867Z" fill="#974D4D"/>
<path d="M184.279 286.293C183.39 287.763 182.232 289 180.841 290.005C180.223 290.431 180.802 291.436 181.42 291.011C182.965 289.889 184.279 288.536 185.244 286.912C185.669 286.255 184.665 285.675 184.279 286.293Z" fill="#974D4D"/>
<path d="M186.982 294.761C186.48 295.728 185.901 296.656 185.206 297.507C184.742 298.087 185.553 298.899 186.017 298.319C186.789 297.391 187.446 296.424 187.948 295.341C188.296 294.684 187.33 294.065 186.982 294.761Z" fill="#974D4D"/>
<path d="M185.862 299.092C205.291 301.373 225.028 300.136 244.032 295.419C244.765 295.225 244.456 294.104 243.723 294.297C224.835 298.976 205.213 300.175 185.862 297.893C185.128 297.855 185.128 299.015 185.862 299.092Z" fill="#974D4D"/>
<path d="M195.325 248.052C212.011 245.771 228.852 246.853 245.577 248.013C246.31 248.052 246.31 246.892 245.577 246.853C228.736 245.693 211.818 244.611 195.016 246.931C194.283 247.008 194.592 248.129 195.325 248.052Z" fill="#974D4D"/>
<path d="M190.536 265.375C206.179 265.607 221.784 266.341 237.349 267.579C238.083 267.656 238.083 266.496 237.349 266.419C221.784 265.143 206.179 264.408 190.536 264.215C189.763 264.215 189.763 265.375 190.536 265.375Z" fill="#974D4D"/>
<path d="M185.862 274.345C203.166 275.157 220.47 276.008 237.774 276.82C238.508 276.859 238.508 275.699 237.774 275.66C220.47 274.848 203.166 273.997 185.862 273.185C185.128 273.147 185.128 274.307 185.862 274.345Z" fill="#974D4D"/>
<path d="M200.154 258.569C196.87 266.38 193.742 274.229 190.845 282.195C190.575 282.891 191.695 283.2 191.965 282.504C194.862 274.655 197.913 266.883 201.158 259.188C201.428 258.492 200.424 257.873 200.154 258.569Z" fill="#974D4D"/>
<path d="M213.247 259.923C209.424 267.656 206.256 275.621 203.514 283.741C203.282 284.437 204.402 284.747 204.634 284.051C207.338 276.008 210.466 268.12 214.252 260.503C214.599 259.845 213.595 259.265 213.247 259.923Z" fill="#974D4D"/>
<path d="M227.925 260.851C223.522 268.004 220.239 275.776 218.191 283.935C217.998 284.669 219.118 284.979 219.312 284.244C221.32 276.163 224.565 268.507 228.929 261.431C229.315 260.812 228.311 260.232 227.925 260.851Z" fill="#974D4D"/>
<path d="M239.512 261.392C235.882 268.429 232.792 275.737 230.242 283.277C230.011 283.973 231.131 284.283 231.363 283.587C233.873 276.163 236.925 268.971 240.517 262.011C240.826 261.315 239.86 260.735 239.512 261.392Z" fill="#974D4D"/>
<path d="M188.914 268.197C190.613 268.971 192.042 270.015 193.317 271.368C193.819 271.909 194.63 271.097 194.128 270.556C192.815 269.125 191.27 268.004 189.493 267.192C188.798 266.921 188.218 267.888 188.914 268.197Z" fill="#974D4D"/>
<path d="M194.167 266.225C191.695 267.695 189.532 269.551 187.716 271.755C187.253 272.335 188.064 273.147 188.527 272.567C190.304 270.401 192.351 268.623 194.746 267.231C195.403 266.844 194.823 265.839 194.167 266.225Z" fill="#974D4D"/>
<path d="M209.655 278.367C211.818 279.643 213.672 281.228 215.295 283.123C215.758 283.703 216.608 282.852 216.106 282.311C214.445 280.339 212.475 278.676 210.235 277.361C209.617 276.975 209.037 277.98 209.655 278.367Z" fill="#974D4D"/>
<path d="M216.222 276.743C213.75 278.599 211.471 280.687 209.385 282.968C208.883 283.509 209.694 284.36 210.196 283.78C212.205 281.537 214.406 279.527 216.801 277.709C217.38 277.323 216.801 276.317 216.222 276.743Z" fill="#974D4D"/>
<path d="M198.879 266.457C200.887 268.313 202.896 270.131 204.904 271.987C205.445 272.489 206.256 271.677 205.716 271.175C203.707 269.319 201.699 267.501 199.69 265.645C199.149 265.104 198.338 265.916 198.879 266.457Z" fill="#974D4D"/>
<path d="M205.484 265.529C202.664 267.153 200.192 269.241 198.184 271.793C197.72 272.373 198.531 273.185 198.995 272.605C200.965 270.131 203.321 268.12 206.063 266.535C206.72 266.148 206.102 265.143 205.484 265.529Z" fill="#974D4D"/>
<path d="M213.479 274.191C210.698 272.683 210.312 268.932 212.977 266.999C214.986 265.568 219.08 264.369 220.625 266.999C221.977 269.357 220.354 272.219 218.423 273.649C215.41 275.853 213.286 273.417 211.896 270.904C211.548 270.247 210.544 270.827 210.891 271.484C212.668 274.693 215.526 277.207 219.08 274.616C221.706 272.721 223.522 268.7 221.281 265.839C218.964 262.9 213.672 264.447 211.432 266.767C208.921 269.396 209.848 273.456 212.9 275.119C213.556 275.544 214.136 274.539 213.479 274.191Z" fill="#974D4D"/>
<path d="M197.102 235.563C196.368 238.231 196.137 240.937 196.523 243.721C196.6 244.456 197.797 244.456 197.682 243.721C197.334 241.053 197.488 238.463 198.222 235.872C198.415 235.176 197.295 234.867 197.102 235.563Z" fill="#974D4D"/>
<path d="M197.836 236.259C212.359 234.635 226.998 234.248 241.598 235.137C241.405 234.944 241.212 234.751 241.019 234.557C241.212 236.839 241.173 239.081 240.787 241.324C240.671 242.059 241.791 242.368 241.907 241.633C242.293 239.275 242.409 236.955 242.178 234.557C242.139 234.248 241.946 234.016 241.598 233.977C226.998 233.088 212.359 233.475 197.836 235.099C197.102 235.176 197.102 236.336 197.836 236.259Z" fill="#974D4D"/>
<path d="M198.956 243.335C212.861 243.025 226.766 242.716 240.671 242.407C241.405 242.407 241.405 241.247 240.671 241.247C226.766 241.556 212.861 241.865 198.956 242.175C198.222 242.213 198.222 243.373 198.956 243.335Z" fill="#974D4D"/>
<path d="M431.942 471.777C453.649 471.777 475.318 471.777 497.025 471.777C499.266 471.777 499.266 468.297 497.025 468.297C475.318 468.297 453.649 468.297 431.942 468.297C429.702 468.297 429.702 471.777 431.942 471.777Z" fill="#161616"/>
<path d="M504.905 471.777C509.578 471.777 514.213 471.777 518.887 471.777C521.127 471.777 521.127 468.297 518.887 468.297C514.213 468.297 509.578 468.297 504.905 468.297C502.664 468.297 502.664 471.777 504.905 471.777Z" fill="#161616"/>
<path d="M532.908 469.341C535.728 469.341 538.586 469.341 541.405 469.341C543.646 469.341 543.646 465.861 541.405 465.861C538.586 465.861 535.728 465.861 532.908 465.861C530.668 465.861 530.668 469.341 532.908 469.341Z" fill="#161616"/>
<path d="M505.523 501.009C531.479 501.009 557.435 501.009 583.391 501.009C585.631 501.009 585.631 497.529 583.391 497.529C557.435 497.529 531.479 497.529 505.523 497.529C503.283 497.529 503.283 501.009 505.523 501.009Z" fill="#161616"/>
<path d="M588.258 501.009C594.747 501.009 601.236 501.009 607.725 501.009C609.965 501.009 609.965 497.529 607.725 497.529C601.236 497.529 594.747 497.529 588.258 497.529C586.017 497.529 586.017 501.009 588.258 501.009Z" fill="#161616"/>
<path d="M619.891 500.429C629.432 500.429 638.934 500.429 648.474 500.429C650.714 500.429 650.714 496.949 648.474 496.949C638.934 496.949 629.432 496.949 619.891 496.949C617.651 496.949 617.651 500.429 619.891 500.429Z" fill="#161616"/>
<path d="M660.023 498.573C662.031 498.573 664.078 498.573 666.087 498.573C668.327 498.573 668.327 495.093 666.087 495.093C664.078 495.093 662.031 495.093 660.023 495.093C657.783 495.093 657.783 498.573 660.023 498.573Z" fill="#161616"/>
<path d="M131.787 508.433C163.074 507.66 194.36 507.08 225.646 506.732C234.607 506.616 243.607 506.539 252.568 506.461C253.302 506.461 253.302 505.301 252.568 505.301C221.281 505.533 189.995 505.997 158.709 506.655C149.748 506.848 140.748 507.041 131.787 507.273C131.015 507.312 131.015 508.472 131.787 508.433Z" fill="#161616"/>
<path d="M216.26 514.891C239.976 513.885 263.73 514.04 287.407 515.355C288.141 515.393 288.141 514.233 287.407 514.195C263.73 512.88 239.976 512.725 216.26 513.731C215.488 513.769 215.488 514.929 216.26 514.891Z" fill="#161616"/>
<path d="M591.232 466.596C589.725 470.153 587.755 473.44 585.322 476.456C584.858 477.036 585.67 477.848 586.133 477.268C588.721 474.097 590.768 470.656 592.352 466.905C592.622 466.209 591.502 465.9 591.232 466.596Z" fill="#974D4D"/>
<path d="M598.532 465.745C595.48 472.512 591.116 478.583 585.67 483.648C585.129 484.151 585.94 484.963 586.481 484.46C592.004 479.356 596.407 473.208 599.536 466.325C599.845 465.668 598.841 465.088 598.532 465.745Z" fill="#974D4D"/>
<path d="M606.102 466.132C601.274 475.953 594.36 484.537 585.747 491.304C585.168 491.768 585.979 492.58 586.558 492.116C595.21 485.272 602.201 476.572 607.068 466.673C607.416 466.055 606.411 465.475 606.102 466.132Z" fill="#974D4D"/>
<path d="M613.171 466.441C607.918 475.992 601.39 484.692 593.665 492.387C593.124 492.928 593.974 493.74 594.476 493.199C602.24 485.465 608.883 476.649 614.136 467.021C614.561 466.364 613.557 465.784 613.171 466.441Z" fill="#974D4D"/>
<path d="M619.467 466.171C614.445 475.915 608.227 484.963 600.849 493.083C600.347 493.624 601.158 494.475 601.66 493.895C609.076 485.697 615.411 476.611 620.471 466.751C620.818 466.093 619.814 465.513 619.467 466.171Z" fill="#974D4D"/>
<path d="M624.565 466.209C619.969 476.031 613.982 485.156 606.759 493.237C606.257 493.779 607.068 494.629 607.57 494.049C614.87 485.852 620.934 476.688 625.569 466.751C625.917 466.132 624.913 465.513 624.565 466.209Z" fill="#974D4D"/>
<path d="M625.183 473.711C621.591 480.903 617.188 487.631 612.051 493.817C611.587 494.397 612.398 495.209 612.862 494.629C618.076 488.365 622.557 481.56 626.187 474.291C626.535 473.633 625.531 473.053 625.183 473.711Z" fill="#974D4D"/>
<path d="M287.678 141.564C287.678 148.137 287.678 154.711 287.678 161.245C287.678 161.98 288.837 161.98 288.837 161.245C288.837 154.672 288.837 148.099 288.837 141.564C288.837 140.791 287.678 140.791 287.678 141.564Z" fill="#974D4D"/>
<path d="M266.589 162.328C285.94 162.328 305.252 162.328 324.603 162.328C325.337 162.328 325.337 161.168 324.603 161.168C305.252 161.168 285.94 161.168 266.589 161.168C265.816 161.168 265.816 162.328 266.589 162.328Z" fill="#974D4D"/>
<path d="M307.377 163.759C307.377 169.829 307.377 175.861 307.377 181.932C307.377 182.667 308.535 182.667 308.535 181.932C308.535 175.861 308.535 169.829 308.535 163.759C308.535 163.024 307.377 163.024 307.377 163.759Z" fill="#974D4D"/>
<path d="M277.172 184.059C296.021 184.059 314.831 184.059 333.68 184.059C334.414 184.059 334.414 182.899 333.68 182.899C314.831 182.899 296.021 182.899 277.172 182.899C276.438 182.899 276.438 184.059 277.172 184.059Z" fill="#974D4D"/>
<path d="M276.09 184.484C276.09 189.047 276.09 193.571 276.09 198.133C276.09 198.868 277.249 198.868 277.249 198.133C277.249 193.571 277.249 189.047 277.249 184.484C277.249 183.749 276.09 183.711 276.09 184.484Z" fill="#974D4D"/>
<path d="M556.353 345.492C568.057 345.492 579.721 345.492 591.425 345.492C592.159 345.492 592.159 344.332 591.425 344.332C579.721 344.332 568.057 344.332 556.353 344.332C555.581 344.332 555.581 345.492 556.353 345.492Z" fill="#974D4D"/>
<path d="M574.893 345.956C574.893 350.557 574.893 355.159 574.893 359.799C574.893 360.533 576.052 360.533 576.052 359.799C576.052 355.197 576.052 350.596 576.052 345.956C576.052 345.221 574.893 345.221 574.893 345.956Z" fill="#974D4D"/>
<path d="M553.688 360.379C567.168 360.379 580.61 360.379 594.09 360.379C594.824 360.379 594.824 359.219 594.09 359.219C580.61 359.219 567.168 359.219 553.688 359.219C552.954 359.219 552.954 360.379 553.688 360.379Z" fill="#974D4D"/>
<path d="M564.271 360.34C564.271 364.245 564.271 368.151 564.271 372.056C564.271 372.791 565.43 372.791 565.43 372.056C565.43 368.151 565.43 364.245 565.43 360.34C565.43 359.567 564.271 359.567 564.271 360.34Z" fill="#974D4D"/>
<path d="M589.764 360.843C589.764 364.748 589.764 368.653 589.764 372.559C589.764 373.293 590.923 373.293 590.923 372.559C590.923 368.653 590.923 364.748 590.923 360.843C590.923 360.108 589.764 360.108 589.764 360.843Z" fill="#974D4D"/>
<path d="M212.552 472.241C230.088 472.241 247.624 472.241 265.159 472.241C265.893 472.241 265.893 471.081 265.159 471.081C247.624 471.081 230.088 471.081 212.552 471.081C211.78 471.081 211.78 472.241 212.552 472.241Z" fill="#974D4D"/>
<path d="M131.787 472.976C142.834 472.976 153.881 472.976 164.928 472.976C165.661 472.976 165.661 471.816 164.928 471.816C153.881 471.816 142.834 471.816 131.787 471.816C131.015 471.816 131.015 472.976 131.787 472.976Z" fill="#974D4D"/>
<path d="M201.505 381.181C219.041 381.181 236.577 381.181 254.113 381.181C254.847 381.181 254.847 380.021 254.113 380.021C236.577 380.021 219.041 380.021 201.505 380.021C200.733 380.021 200.733 381.181 201.505 381.181Z" fill="#974D4D"/>
<path d="M230.899 381.645C230.899 385.667 230.899 389.727 230.899 393.748C230.899 394.483 232.058 394.483 232.058 393.748C232.058 389.727 232.058 385.667 232.058 381.645C232.058 380.911 230.899 380.911 230.899 381.645Z" fill="#974D4D"/>
<path d="M220.972 394.328C234.646 394.328 248.319 394.328 261.992 394.328C262.726 394.328 262.726 393.168 261.992 393.168C248.319 393.168 234.646 393.168 220.972 393.168C220.2 393.168 220.2 394.328 220.972 394.328Z" fill="#974D4D"/>
<path d="M251.95 394.792C251.95 399.161 251.95 403.569 251.95 407.939C251.95 408.673 253.108 408.673 253.108 407.939C253.108 403.569 253.108 399.161 253.108 394.792C253.108 394.057 251.95 394.057 251.95 394.792Z" fill="#974D4D"/>
<path d="M535.728 476.379C550.598 476.379 565.43 476.379 580.301 476.379C581.035 476.379 581.035 475.219 580.301 475.219C565.43 475.219 550.598 475.219 535.728 475.219C534.955 475.219 534.955 476.379 535.728 476.379Z" fill="#974D4D"/>
<path d="M631.131 472.164C646.929 472.164 662.688 472.164 678.485 472.164C679.219 472.164 679.219 471.004 678.485 471.004C662.688 471.004 646.929 471.004 631.131 471.004C630.397 471.004 630.397 472.164 631.131 472.164Z" fill="#974D4D"/>
<path d="M479.412 362.157C479.412 369.581 479.412 377.044 479.412 384.468C479.412 385.203 480.571 385.203 480.571 384.468C480.571 377.044 480.571 369.581 480.571 362.157C480.571 361.384 479.412 361.384 479.412 362.157Z" fill="#974D4D"/>
<path d="M480.687 373.177C487.639 373.177 494.631 373.177 501.583 373.177C502.317 373.177 502.317 372.017 501.583 372.017C494.631 372.017 487.639 372.017 480.687 372.017C479.953 372.017 479.953 373.177 480.687 373.177Z" fill="#974D4D"/>
<path d="M500.308 364.941C500.308 371.901 500.308 378.9 500.308 385.86C500.308 386.595 501.467 386.595 501.467 385.86C501.467 378.9 501.467 371.901 501.467 364.941C501.467 364.168 500.308 364.168 500.308 364.941Z" fill="#974D4D"/>
<path d="M486.983 387.832C497.875 387.832 508.806 387.832 519.698 387.832C520.432 387.832 520.432 386.672 519.698 386.672C508.806 386.672 497.875 386.672 486.983 386.672C486.21 386.672 486.21 387.832 486.983 387.832Z" fill="#974D4D"/>
<path d="M509.385 389.34C509.385 394.676 509.385 400.012 509.385 405.387C509.385 406.121 510.544 406.121 510.544 405.387C510.544 400.051 510.544 394.715 510.544 389.34C510.544 388.567 509.385 388.567 509.385 389.34Z" fill="#974D4D"/>
<path d="M421.243 170.989C421.243 183.092 421.243 195.195 421.243 207.297C421.243 208.032 422.402 208.032 422.402 207.297C422.402 195.195 422.402 183.092 422.402 170.989C422.402 170.255 421.243 170.255 421.243 170.989Z" fill="#974D4D"/>
<path d="M422.44 170.912C441.444 170.912 460.447 170.912 479.412 170.912C480.146 170.912 480.146 169.752 479.412 169.752C460.409 169.752 441.405 169.752 422.44 169.752C421.706 169.752 421.706 170.912 422.44 170.912Z" fill="#974D4D"/>
<path d="M478.91 170.796C478.91 182.783 478.91 194.769 478.91 206.717C478.91 207.452 480.069 207.452 480.069 206.717C480.069 194.731 480.069 182.744 480.069 170.796C480.069 170.061 478.91 170.061 478.91 170.796Z" fill="#974D4D"/>
<path d="M422.324 208.264C441.521 208.264 460.756 208.264 479.953 208.264C480.687 208.264 480.687 207.104 479.953 207.104C460.756 207.104 441.521 207.104 422.324 207.104C421.591 207.104 421.591 208.264 422.324 208.264Z" fill="#974D4D"/>
<path d="M447.083 169.713C446.89 168.669 446.851 167.625 447.045 166.581C447.238 165.653 447.701 163.797 448.783 164.957C449.323 165.537 449.362 166.813 449.517 167.548C449.71 168.515 449.903 169.52 450.096 170.487C450.25 171.221 451.371 170.912 451.216 170.177C450.868 168.476 450.714 166.581 450.057 164.957C449.71 164.107 449.053 163.101 448.01 163.14C446.851 163.179 446.388 164.416 446.118 165.383C445.654 166.891 445.654 168.437 445.963 169.945C446.079 170.757 447.199 170.448 447.083 169.713Z" fill="#974D4D"/>
<path d="M424.603 175.165C424.603 184.561 424.603 193.957 424.603 203.353C424.603 204.088 425.762 204.088 425.762 203.353C425.762 193.957 425.762 184.561 425.762 175.165C425.762 174.392 424.603 174.392 424.603 175.165Z" fill="#974D4D"/>
<path d="M425.492 175.088C442.178 175.088 458.864 175.088 475.511 175.088C476.245 175.088 476.245 173.928 475.511 173.928C458.825 173.928 442.139 173.928 425.492 173.928C424.758 173.928 424.758 175.088 425.492 175.088Z" fill="#974D4D"/>
<path d="M475.588 174.199C475.588 184.213 475.588 194.228 475.588 204.243C475.588 204.977 476.747 204.977 476.747 204.243C476.747 194.228 476.747 184.213 476.747 174.199C476.747 173.464 475.588 173.464 475.588 174.199Z" fill="#974D4D"/>
<path d="M426.11 204.204C442.68 204.204 459.25 204.204 475.82 204.204C476.554 204.204 476.554 203.044 475.82 203.044C459.25 203.044 442.68 203.044 426.11 203.044C425.376 203.044 425.376 204.204 426.11 204.204Z" fill="#974D4D"/>
<path d="M425.453 194.112C433.024 192.063 440.594 190.284 448.358 192.488C454.769 194.344 460.641 197.785 467.284 198.907C468.018 199.023 468.327 197.901 467.593 197.785C460.525 196.587 454.345 192.759 447.431 191.057C439.899 189.201 432.444 191.019 425.183 192.991C424.41 193.184 424.719 194.305 425.453 194.112Z" fill="#974D4D"/>
<path d="M452.027 194.035C459.173 193.223 466.28 190.4 473.503 191.908C474.237 192.063 474.546 190.941 473.812 190.787C466.434 189.24 459.289 192.024 452.027 192.836C451.293 192.952 451.293 194.151 452.027 194.035Z" fill="#974D4D"/>
<path d="M453.263 185.799C452.375 184.948 452.298 183.44 453.225 182.589C454.229 181.623 456.044 181.893 456.817 183.015C457.628 184.136 457.435 185.837 456.392 186.727C455.117 187.809 453.418 186.959 452.529 185.837C452.104 185.257 451.062 185.837 451.525 186.417C452.761 188.08 455.04 189.163 456.894 187.809C458.632 186.533 458.902 183.865 457.589 182.203C456.43 180.733 454.036 180.424 452.568 181.623C451.023 182.86 450.984 185.335 452.413 186.688C452.993 187.113 453.804 186.301 453.263 185.799Z" fill="#974D4D"/>
<path d="M465.546 328.01C466.712 334.246 468.169 347.41 462.231 361.778C451.085 388.799 423.437 396.749 419.721 397.733C419.612 402 419.466 406.303 419.357 410.57C426.132 413.779 436.15 419.394 446.131 428.912C453.525 435.987 466.421 448.604 471.411 469.28C474.471 481.934 473.56 493.348 471.775 501.954C427.772 502.683 383.804 503.413 339.801 504.142C338.38 495.828 336.814 479.272 343.844 460.857C356.411 427.928 386.463 415.128 392.219 412.794C392.328 407.032 392.474 401.307 392.583 395.545C386.937 394.306 373.86 390.659 362.895 379.026C344.609 359.663 347.377 334.319 347.851 330.599C387.119 329.724 426.351 328.885 465.546 328.01Z" fill="white" stroke="#161616" stroke-width="3" stroke-miterlimit="10"/>
<path d="M458.516 368.524C454.91 370.493 451.048 371.988 446.932 372.572C443.945 372.973 441.104 372.718 438.117 372.389C434.328 371.952 430.576 371.624 426.824 370.967C423 370.311 419.357 369.18 415.568 368.342C414.549 368.123 413.601 368.013 412.581 368.232C410.578 368.633 409.412 369.873 407.882 371.04C405.77 372.645 403.038 372.535 400.852 371.222C399.686 370.493 398.63 369.581 397.464 368.889C395.752 367.868 393.858 367.357 391.855 367.211C389.705 367.065 387.52 367.211 385.407 367.612C382.894 368.086 380.672 369.107 378.267 369.873C373.532 371.405 372.075 366.336 368.396 364.622C363.988 362.544 357.905 362.762 353.278 363.747C352.586 363.893 352.295 362.835 352.987 362.689C356.994 361.814 360.928 361.851 364.971 362.544C366.684 362.835 368.323 363.236 369.816 364.148C371.528 365.206 372.512 366.81 373.969 368.123C376.082 370.019 378.522 368.56 380.744 367.722C382.748 366.992 384.861 366.518 387.01 366.263C390.58 365.825 394.368 365.971 397.61 367.722C400.269 369.18 402.564 372.098 405.915 370.858C407.372 370.311 408.283 368.962 409.594 368.196C410.651 367.539 411.926 367.138 413.164 367.029C415.532 366.847 417.973 367.868 420.268 368.451C424.602 369.545 429.046 370.274 433.527 370.748C437.024 371.113 440.63 371.769 444.164 371.66C449.045 371.514 453.707 369.873 457.933 367.539C458.589 367.211 459.135 368.159 458.516 368.524Z" fill="#161616"/>
<path d="M419.175 406.194C418.592 407.579 418.009 409.038 417.026 410.205C416.406 410.971 415.459 411.554 415.059 412.539C414.658 413.56 414.658 414.909 414.512 416.003C414.039 419.759 413.529 423.515 411.962 427.016C411.671 427.672 410.724 427.089 411.015 426.469C412.727 422.713 413.055 418.629 413.601 414.581C413.784 413.268 413.856 411.919 414.804 410.898C416.261 409.293 417.244 407.981 418.118 405.902C418.373 405.246 419.43 405.537 419.175 406.194Z" fill="#161616"/>
<path d="M395.352 409.366C396.954 408.126 398.193 410.424 398.776 411.663C399.359 412.83 399.796 414.034 400.087 415.274C400.415 416.696 400.342 418.337 400.998 419.65C401.617 420.999 402.637 422.129 403.22 423.515C403.766 424.755 404.167 426.068 404.531 427.38C405.369 430.662 405.843 434.054 406.425 437.372C406.535 438.065 405.478 438.357 405.369 437.664C404.495 432.668 404.058 427.089 401.544 422.603C400.961 421.582 400.196 420.707 399.796 419.613C399.504 418.847 399.468 418.045 399.359 417.279C399.249 416.477 397.209 409.293 396.117 410.132C395.607 410.569 394.805 409.804 395.352 409.366Z" fill="#161616"/>
<path d="M407.045 452.323C407.373 451.74 407.7 451.047 407.555 450.391C407.336 449.37 406.207 449.224 405.843 450.208C405.405 451.375 406.098 452.724 406.899 453.49C406.68 453.454 406.462 453.417 406.243 453.417C406.68 453.089 407.118 452.761 407.518 452.469C408.101 452.032 408.611 453.016 408.065 453.417C407.627 453.746 407.19 454.074 406.79 454.365C406.608 454.511 406.28 454.438 406.134 454.293C404.823 453.016 403.621 449.588 405.915 448.567C406.826 448.166 407.846 448.64 408.356 449.479C409.012 450.573 408.575 451.886 407.992 452.907C407.664 453.49 406.717 452.943 407.045 452.323Z" fill="#161616"/>
<path d="M409.922 464.868C410.177 464.357 410.578 463.665 410.469 463.045C410.396 462.68 409.922 462.169 409.558 462.498C409.194 462.789 409.157 463.664 409.267 464.066C409.376 464.43 409.995 465.05 410.323 464.576C410.724 464.029 411.671 464.576 411.27 465.123C410.687 465.962 409.485 466.035 408.72 465.305C407.882 464.503 407.955 462.899 408.575 461.987C409.194 461.075 410.396 461.221 411.052 461.987C411.999 463.008 411.416 464.43 410.869 465.488C410.542 466.035 409.594 465.488 409.922 464.868Z" fill="#161616"/>
<path d="M404.64 469.207C405.114 468.843 404.64 467.639 403.985 468.004C403.693 468.15 403.511 468.587 403.584 468.915C403.693 469.39 404.313 469.317 404.568 469.061C405.078 468.551 405.843 469.353 405.333 469.827C404.568 470.556 403.147 470.556 402.637 469.535C402.236 468.697 402.601 467.639 403.329 467.129C404.13 466.582 405.15 466.91 405.624 467.749C406.098 468.587 405.952 469.608 405.15 470.155C404.64 470.556 404.094 469.608 404.64 469.207Z" fill="#161616"/>
<path d="M440.448 502.574C437.425 500.131 434.401 497.687 431.378 495.244C429.921 494.077 428.537 492.837 426.97 491.816C425.404 490.795 423.692 490.321 421.943 489.665C416.479 487.55 411.671 478.47 405.405 484.158C403.366 485.982 401.69 487.586 399.031 488.461C396.007 489.446 393.02 490.029 390.143 491.452C384.606 494.187 380.089 498.599 377.065 503.96C376.737 504.579 375.79 504.032 376.118 503.413C378.45 499.219 381.655 495.645 385.589 492.874C387.483 491.525 389.56 490.394 391.709 489.519C394.186 488.498 396.772 488.097 399.286 487.185C403.803 485.544 406.134 479.782 411.634 481.46C413.856 482.153 415.641 483.648 417.353 485.179C418.373 486.091 419.393 487.003 420.559 487.732C422.053 488.68 423.765 489.008 425.367 489.701C427.917 490.795 430.03 492.728 432.179 494.442C435.203 496.885 438.226 499.328 441.25 501.772C441.76 502.246 440.995 503.011 440.448 502.574Z" fill="#161616"/>
<path d="M393.239 403.75C393.639 406.704 394.077 409.621 394.477 412.575C394.842 415.237 394.878 418.373 396.08 420.853C395.825 420.78 395.57 420.707 395.315 420.671C396.335 419.978 395.643 416.55 395.643 415.529C395.606 413.742 395.57 411.992 395.534 410.205C395.534 409.512 396.626 409.512 396.626 410.205C396.699 412.794 396.736 415.383 396.809 418.009C396.845 419.321 397.1 420.78 395.898 421.619C395.679 421.765 395.279 421.692 395.133 421.436C393.967 419.03 393.858 416.222 393.494 413.596C393.057 410.424 392.583 407.251 392.146 404.079C392.11 403.349 393.166 403.057 393.239 403.75Z" fill="#161616"/>
<path d="M419.685 399.119C420.268 402.219 419.83 405.209 418.446 408.017C418.118 408.637 417.208 408.09 417.499 407.47C418.738 404.917 419.138 402.182 418.628 399.411C418.519 398.718 419.575 398.426 419.685 399.119Z" fill="#161616"/>
<path d="M439.72 383.657C433.09 388.508 424.894 390.367 417.973 394.634C417.39 394.998 416.807 394.05 417.426 393.686C424.384 389.419 432.58 387.559 439.173 382.709C439.756 382.272 440.302 383.22 439.72 383.657Z" fill="#161616"/>
<path d="M418.483 389.31C415.204 391.315 412.909 394.379 411.926 398.135C411.744 398.827 410.687 398.536 410.87 397.843C411.889 393.831 414.367 390.513 417.9 388.362C418.519 387.997 419.066 388.945 418.483 389.31Z" fill="#161616"/>
<path d="M399.577 403.094C397.829 398.281 395.534 393.43 391.272 390.367C390.689 389.966 391.235 389.018 391.818 389.419C396.335 392.701 398.776 397.661 400.633 402.802C400.852 403.495 399.796 403.75 399.577 403.094Z" fill="#161616"/>
<path d="M432.434 500.021C428.719 495.937 423.947 493.129 418.592 491.816C417.9 491.67 418.191 490.613 418.883 490.759C424.42 492.072 429.374 495.025 433.199 499.219C433.673 499.802 432.908 500.568 432.434 500.021Z" fill="#161616"/>
<path d="M424.056 496.593C421.433 495.427 418.811 494.26 416.188 493.093C415.532 492.801 416.115 491.853 416.734 492.145C419.357 493.311 421.98 494.478 424.602 495.645C425.222 495.937 424.675 496.885 424.056 496.593Z" fill="#161616"/>
<path d="M402.309 482.991C399.104 485.945 393.931 484.924 390.98 488.133C390.507 488.644 389.742 487.878 390.215 487.367C393.239 484.085 398.339 485.143 401.544 482.226C402.054 481.715 402.819 482.517 402.309 482.991Z" fill="#161616"/>
<path d="M471.739 505.819C437.315 505.819 402.892 505.819 368.432 505.819C358.743 505.819 349.017 505.819 339.327 505.819C335.101 505.819 335.101 499.255 339.327 499.255C373.75 499.255 408.174 499.255 442.634 499.255C452.323 499.255 462.049 499.255 471.739 499.255C475.964 499.255 475.964 505.819 471.739 505.819Z" fill="#161616"/>
<path d="M466.566 330.271C435.53 330.271 404.495 330.271 373.459 330.271C364.716 330.271 356.01 330.271 347.268 330.271C343.042 330.271 343.042 323.707 347.268 323.707C378.304 323.707 409.339 323.707 440.375 323.707C449.118 323.707 457.824 323.707 466.566 323.707C470.792 323.707 470.792 330.271 466.566 330.271Z" fill="#161616"/>
<path d="M475.454 323.707C478.004 323.707 480.554 323.707 483.104 323.707C487.33 323.707 487.33 330.271 483.104 330.271C480.554 330.271 478.004 330.271 475.454 330.271C471.229 330.271 471.229 323.707 475.454 323.707Z" fill="#161616"/>
<path d="M497.42 329.542C496.436 329.542 495.453 329.542 494.469 329.542C492.757 329.542 491.118 328.046 491.191 326.26C491.264 324.473 492.648 322.978 494.469 322.978C495.453 322.978 496.436 322.978 497.42 322.978C499.132 322.978 500.771 324.473 500.698 326.26C500.625 328.01 499.278 329.542 497.42 329.542Z" fill="#161616"/>
<path d="M331.714 505.345C326.541 505.345 321.332 505.345 316.159 505.345C311.934 505.345 311.934 498.781 316.159 498.781C321.332 498.781 326.541 498.781 331.714 498.781C335.939 498.781 335.939 505.345 331.714 505.345Z" fill="#161616"/>
<path d="M305.013 506.075C304.102 506.075 303.191 506.075 302.281 506.075C300.569 506.075 298.929 504.58 299.002 502.793C299.075 501.006 300.459 499.511 302.281 499.511C303.191 499.511 304.102 499.511 305.013 499.511C306.725 499.511 308.364 501.006 308.291 502.793C308.218 504.58 306.871 506.075 305.013 506.075Z" fill="#161616"/>
<path d="M419.721 397.989C419.976 400.505 420.195 403.058 419.685 405.537C419.138 408.163 417.499 410.023 416.297 412.356C414.913 414.982 414.512 418.155 413.856 420.999C413.164 424.026 412.472 427.052 411.78 430.079C411.452 431.465 409.376 430.881 409.667 429.496C410.323 426.578 411.015 423.661 411.671 420.744C412.29 418.045 412.727 415.201 413.747 412.648C414.658 410.351 416.516 408.491 417.281 406.121C418.118 403.495 417.791 400.651 417.536 397.989C417.39 396.603 419.575 396.603 419.721 397.989Z" fill="#161616"/>
<path d="M424.675 396.895C422.672 397.843 420.632 398.135 418.446 397.77C417.062 397.551 417.645 395.436 419.029 395.655C420.595 395.91 422.162 395.691 423.582 394.999C424.857 394.379 425.95 396.275 424.675 396.895Z" fill="#161616"/>
<path d="M397.683 409.476C399.431 410.715 400.306 412.502 400.706 414.544C400.998 415.93 401.071 417.352 401.471 418.738C401.872 420.124 402.528 421.4 403.183 422.713C405.624 427.636 408.065 432.85 407.372 438.466C407.19 439.852 405.005 439.852 405.187 438.466C405.842 433.179 403.584 428.402 401.289 423.807C400.306 421.838 399.395 419.905 399.031 417.753C398.63 415.529 398.594 412.794 396.59 411.372C395.424 410.533 396.517 408.637 397.683 409.476Z" fill="#161616"/>
<path d="M418.956 458.34C417.536 458.34 417.536 456.152 418.956 456.152C420.34 456.152 420.34 458.34 418.956 458.34Z" fill="#161616"/>
<path d="M422.89 476.391C421.47 476.391 421.47 474.203 422.89 474.203C424.311 474.203 424.311 476.391 422.89 476.391Z" fill="#161616"/>
<path d="M411.634 434.564C411.525 435.294 411.416 436.06 411.307 436.789C411.234 437.372 410.469 437.701 409.959 437.555C409.34 437.372 409.121 436.789 409.194 436.205C409.303 435.476 409.412 434.71 409.522 433.981C409.595 433.398 410.359 433.069 410.869 433.215C411.489 433.397 411.707 433.981 411.634 434.564Z" fill="#161616"/>
<path d="M405.952 443.9C405.952 443.973 405.952 444.082 405.952 444.155C405.952 444.738 405.442 445.285 404.859 445.249C404.276 445.212 403.766 444.775 403.766 444.155C403.766 444.082 403.766 443.973 403.766 443.9C403.766 443.316 404.276 442.769 404.859 442.806C405.442 442.842 405.952 443.28 405.952 443.9Z" fill="#161616"/>
<path d="M375.9 370.566C372.403 369.253 369.634 366.701 366.283 365.133C362.167 363.236 357.832 365.534 353.752 363.966C352.441 363.455 353.023 361.34 354.335 361.851C356.557 362.689 358.815 362.215 361.147 362.07C363.077 361.924 364.899 362.179 366.684 362.908C370.181 364.33 372.985 367.102 376.519 368.451C377.757 368.962 377.211 371.077 375.9 370.566Z" fill="#161616"/>
<path d="M369.233 435.148C372.548 436.57 369.743 440.071 368.214 441.602C365.081 444.738 362.276 448.203 359.835 451.886C355.063 459.07 351.749 467.129 349.964 475.552C349.818 476.245 348.762 475.953 348.907 475.261C350.437 468.113 353.06 461.221 356.703 454.876C358.451 451.813 360.455 448.895 362.677 446.161C363.806 444.775 364.972 443.426 366.21 442.113C367.303 440.982 371.674 437.372 368.687 436.096C368.031 435.804 368.614 434.856 369.233 435.148Z" fill="#161616"/>
<path d="M365.19 437.956C354.153 447.145 349.672 461.185 345.629 474.458C345.41 475.115 344.354 474.859 344.572 474.167C348.689 460.711 353.242 446.489 364.425 437.153C364.972 436.716 365.737 437.482 365.19 437.956Z" fill="#161616"/>
<path d="M349.49 479.199C348.798 480.184 347.96 481.351 346.649 481.46C345.629 481.533 344.536 480.949 344.39 479.855C344.281 479.163 345.337 478.871 345.447 479.564C345.556 480.257 346.284 480.512 346.904 480.293C347.632 480.038 348.142 479.272 348.543 478.652C348.944 478.069 349.891 478.616 349.49 479.199Z" fill="#161616"/>
<path d="M347.341 494.588C345.702 495.317 343.662 494.807 342.788 493.166C341.95 491.598 342.605 489.446 344.135 488.571C345.702 487.696 347.851 488.316 348.762 489.847C349.672 491.452 349.016 493.494 347.559 494.478C346.977 494.879 346.43 493.931 347.013 493.53C347.997 492.874 348.434 491.452 347.814 490.394C347.232 489.373 345.738 488.935 344.682 489.519C343.625 490.066 343.188 491.561 343.735 492.619C344.281 493.713 345.738 494.114 346.794 493.64C347.414 493.348 347.997 494.296 347.341 494.588Z" fill="#161616"/>
<path d="M458.917 335.85C458.552 352.734 451.522 369.107 439.501 380.923C438.991 381.433 438.226 380.631 438.736 380.157C450.575 368.524 457.496 352.442 457.824 335.85C457.86 335.157 458.953 335.157 458.917 335.85Z" fill="#161616"/>
<path d="M457.751 335.376C458.698 334.428 460.046 334.465 461.066 335.303C462.414 336.434 462.268 338.476 462.122 340.08C461.758 344.858 460.811 349.562 459.39 354.12C456.549 363.164 451.777 371.551 445.475 378.589C445.001 379.099 444.236 378.334 444.71 377.823C449.846 372.098 453.926 365.534 456.731 358.386C458.079 355.032 459.099 351.531 459.864 347.994C460.264 346.061 460.592 344.128 460.811 342.195C460.92 341.284 461.029 340.409 461.066 339.497C461.102 339.096 461.139 338.695 461.102 338.33C461.066 337.455 460.119 334.538 458.516 336.179C458.006 336.653 457.241 335.85 457.751 335.376Z" fill="#161616"/>
<path opacity="0.25" d="M347.086 330.854C347.05 332.021 378.45 333.918 441.25 336.616C442.342 341.576 443.071 348.358 441.25 355.87C435.421 380.12 409.121 389.456 406.498 390.331C406.17 399.666 405.806 409.038 405.478 418.373C408.283 419.431 411.962 421.035 416.006 423.479C418.592 425.047 424.748 429.058 430.467 435.585C433.709 439.305 444.127 451.266 444.965 469.39C445.475 480.147 442.379 488.826 439.902 494.041C410.323 495.718 380.708 497.432 351.129 499.11C391.418 499.438 431.669 499.802 471.957 500.131C473.232 491.999 474.435 476.428 467.914 458.924C466.712 455.751 456.731 430.152 430.103 415.675C425.877 413.378 422.198 411.882 419.648 410.934C419.758 406.412 419.867 401.927 419.976 397.405C423.655 396.457 429.119 394.707 435.166 391.315C438.7 389.346 462.159 375.708 466.566 349.088C467.258 344.857 467.841 338.184 466.238 329.833C386.828 329.213 347.122 329.542 347.086 330.854Z" fill="#474747"/>
<path opacity="0.3" d="M400.051 329.943C418.956 332.605 437.862 335.267 456.767 337.892C456.257 344.201 454.29 357.219 445.366 370.42C434.328 386.721 419.357 393.43 413.565 395.691C413.237 402.62 412.873 409.549 412.545 416.477C424.894 418.884 433.017 423.916 437.461 427.198C440.412 429.386 467.076 448.932 464.089 477.047C463.579 481.898 461.831 490.212 455.128 499.401C460.884 499.474 466.603 499.547 472.358 499.584C473.524 490.649 474.58 472.234 465.036 453.235C457.751 438.794 447.333 429.933 441.286 424.901C433.163 418.155 425.404 413.779 419.721 411.044C419.539 406.558 419.32 402.073 419.138 397.588C426.387 396.056 440.849 391.862 451.995 378.953C452.797 378.042 455.565 374.76 458.334 369.837C466.421 355.469 466.967 340.445 466.202 330.636C444.091 330.38 422.052 330.162 400.051 329.943Z" fill="#474747"/>
<path d="M359.615 247.609C359.33 254.764 360.312 261.856 360.628 269.059C360.872 271.723 360.609 274.409 359.852 276.975C358.079 281.914 353.267 285.001 348.771 287.723C345.922 289.449 342.676 291.919 343.072 295.243C343.346 296.496 344.018 297.627 344.989 298.466C345.959 299.305 347.175 299.807 348.454 299.897C351.02 300.012 353.576 299.512 355.911 298.441C360.687 296.887 365.064 294.304 368.733 290.874C375.905 283.418 376.142 271.877 375.604 261.54C375.145 252.865 374.401 243.335 370 235.609C362.908 223.262 359.868 241.419 359.615 247.609Z" fill="url(#paint1_linear)"/>
<path d="M338.465 290.51C335.189 289.37 331.706 287.818 328.429 288.927C328.116 288.997 327.824 289.141 327.579 289.348C327.334 289.554 327.142 289.817 327.02 290.114C326.951 290.549 327.012 290.995 327.194 291.396L330.993 302.652C331.165 303.212 331.416 303.745 331.738 304.235C332.492 305.095 333.511 305.679 334.635 305.897C338.759 307.037 343.14 306.831 347.141 305.311C351.288 303.728 351.652 298.631 349.452 295.053C347.251 291.475 342.265 291.824 338.465 290.51Z" fill="url(#paint2_linear)"/>
<path d="M363.098 237.731C362.857 233.522 363.966 229.346 366.264 225.81C368.559 222.305 371.631 219.375 375.24 217.246C377.21 215.825 379.603 215.111 382.031 215.22C384.041 215.473 391.007 207.906 392.637 209.109C397.228 212.513 396.31 225.098 400.204 229.293C401.226 234.921 401.861 240.612 402.104 246.327L404.431 289.481C404.811 296.62 405.001 304.393 400.727 310.06C389.963 306.15 379.489 301.484 369.382 296.098C368.217 295.682 367.233 294.872 366.601 293.809C365.968 292.746 365.725 291.495 365.915 290.272C365.488 279.539 365.488 268.774 365.915 258.041C366.105 252.279 363.573 243.493 363.098 237.731Z" fill="#9483C4"/>
<path d="M363.098 238.484C362.857 234.274 363.966 230.098 366.264 226.563C368.559 223.058 371.631 220.128 375.24 217.999C377.21 216.577 379.603 215.863 382.031 215.973C384.041 216.226 391.007 208.659 392.637 209.862C397.228 213.265 396.31 225.851 400.204 230.046C401.226 235.674 401.861 241.365 402.104 247.079L404.431 290.233C404.811 297.373 405.001 305.146 400.727 310.813C389.963 306.903 379.489 302.237 369.382 296.851C368.217 296.434 367.233 295.625 366.601 294.562C365.968 293.498 365.725 292.248 365.915 291.025C365.488 280.292 365.488 269.527 365.915 258.794C366.105 253.032 363.573 244.246 363.098 238.484Z" fill="url(#paint3_linear)"/>
<path d="M354.454 206.078V207.313C354.412 208.864 354.836 210.392 355.673 211.698C357.256 213.661 360.137 213.74 362.591 213.376C364.503 212.891 366.488 212.757 368.448 212.98C370.395 213.408 372.548 221.386 374.416 221.703C377.82 222.289 385.039 218.11 387.382 216.004C387.619 215.798 384.896 209.672 384.991 209.339C385.07 209.017 385.07 208.68 384.991 208.358L381.192 190.691C380.84 188.177 379.925 185.774 378.516 183.662C377.395 182.296 375.969 181.212 374.353 180.496C368.987 178.042 361.119 178.913 357.193 183.789C355.119 186.369 355.151 190.849 354.818 194.015C354.394 198.022 354.273 202.054 354.454 206.078Z" fill="url(#paint4_linear)"/>
<path d="M382.443 328.883C371.963 335.642 359.995 339.632 348.169 343.542C345.257 344.508 341.837 345.426 339.257 343.874C337.798 342.85 336.644 341.449 335.917 339.822C331.262 330.988 319.627 328.36 325.342 320.176C327.764 316.693 341.489 305.28 344.877 302.762C351.589 297.776 358.618 292.647 366.865 291.27C370.739 290.708 374.674 290.708 378.548 291.27C386.036 292.172 404.922 295.053 403.339 304.662C401.756 314.271 390.025 323.944 382.443 328.883Z" fill="#3E3E54"/>
<path d="M385.609 244.886C385.609 251.218 386.273 257.551 384.184 263.503C381.382 271.418 374.068 276.848 366.77 281.122C362.259 283.782 357.367 286.457 354.945 291.08C352.523 295.702 354.232 302.857 359.377 303.744C361.376 303.949 363.393 303.655 365.251 302.889C375.211 299.597 384.833 295.356 393.983 290.225C397.735 288.103 401.534 285.713 403.845 282.088C405.849 278.417 406.935 274.317 407.011 270.136C407.762 261.164 407.496 252.136 406.22 243.224C404.745 236.204 401.998 229.514 398.115 223.483C385.609 206.545 385.609 235.546 385.609 244.886Z" fill="#9483C4"/>
<path d="M385.609 244.886C385.609 251.218 386.273 257.551 384.184 263.503C381.382 271.418 374.068 276.848 366.77 281.122C362.259 283.782 357.367 286.457 354.945 291.08C352.523 295.702 354.232 302.857 359.377 303.744C361.376 303.949 363.393 303.655 365.251 302.889C375.211 299.597 384.833 295.356 393.983 290.225C397.735 288.103 401.534 285.713 403.845 282.088C405.849 278.417 406.935 274.317 407.011 270.136C407.762 261.164 407.496 252.136 406.22 243.224C404.745 236.204 401.998 229.514 398.115 223.483C385.609 206.545 385.609 235.546 385.609 244.886Z" fill="url(#paint5_linear)"/>
<path d="M316.793 356.761L314.086 408.574C320.419 408.178 323.3 400.833 324.82 394.77C329.125 377.567 333.437 360.365 337.753 343.162C339.019 338.065 340.318 332.761 339.336 327.601C338.64 323.944 335.347 317.596 330.962 317.2C326.292 316.788 323.838 322.788 322.223 326.398C317.997 335.88 317.316 346.566 316.793 356.761Z" fill="url(#paint6_linear)"/>
<path d="M326.213 360.259L328.049 412.104C334.239 411.154 336.534 403.587 337.547 397.413C340.333 379.905 343.125 362.391 345.922 344.872C346.745 339.679 347.505 334.297 346.143 329.231C345.13 325.653 341.299 319.622 336.898 319.606C332.149 319.606 330.297 325.78 328.983 329.532C325.595 339.299 325.849 350.127 326.213 360.259Z" fill="url(#paint7_linear)"/>
<path d="M323.585 398.046L317.696 398.474C317.085 398.438 316.474 398.528 315.9 398.738C315.325 398.947 314.8 399.272 314.356 399.693C313.874 400.436 313.636 401.31 313.675 402.194C313.517 405.36 313.485 408.526 313.675 411.566C313.643 411.69 313.643 411.821 313.675 411.946C313.765 412.052 313.88 412.134 314.01 412.184C314.14 412.234 314.281 412.25 314.419 412.231C316.671 412.212 318.882 411.623 320.846 410.521C321.681 410.13 322.401 409.53 322.936 408.78C323.421 407.875 323.666 406.861 323.648 405.835C323.806 403.191 323.87 400.532 323.775 397.92L323.585 398.046Z" fill="#9483C4"/>
<path d="M323.458 408.7C323.446 408.477 323.381 408.26 323.268 408.067C323.119 407.912 322.921 407.813 322.708 407.787C322.494 407.762 322.278 407.81 322.097 407.925C321.745 408.176 321.436 408.48 321.178 408.827C320.161 410.028 318.733 410.806 317.173 411.012C315.585 410.975 313.997 411.07 312.424 411.297C311.29 411.74 310.26 412.413 309.401 413.275L304.271 417.708C303.068 418.737 301.754 420.083 302.039 421.65C302.263 422.336 302.681 422.942 303.244 423.395C303.806 423.847 304.487 424.126 305.205 424.198C307.799 424.482 310.422 424.156 312.867 423.249C315.149 422.638 317.39 421.887 319.58 421.001C320.728 420.591 321.753 419.893 322.556 418.974C324.313 416.616 323.727 411.471 323.458 408.7Z" fill="#3E3E54"/>
<path d="M337.721 398.743L331.785 399.202C331.172 399.168 330.559 399.258 329.982 399.468C329.405 399.677 328.877 400.002 328.429 400.421C327.962 401.169 327.73 402.041 327.764 402.922C327.59 406.088 327.574 409.254 327.685 412.294C327.687 412.429 327.714 412.564 327.764 412.69C327.853 412.792 327.966 412.87 328.094 412.917C328.221 412.964 328.358 412.979 328.492 412.959C330.751 412.949 332.969 412.361 334.935 411.249C335.77 410.865 336.49 410.27 337.025 409.523C337.492 408.613 337.731 407.602 337.721 406.579C337.901 403.919 337.948 401.281 337.864 398.664L337.721 398.743Z" fill="#9483C4"/>
<path d="M337.595 409.349C337.593 409.122 337.533 408.898 337.421 408.7C337.269 408.544 337.067 408.446 336.85 408.423C336.633 408.399 336.415 408.453 336.233 408.574C335.883 408.821 335.578 409.126 335.331 409.476C334.311 410.671 332.884 411.444 331.326 411.645C329.737 411.62 328.149 411.721 326.577 411.946C325.439 412.382 324.404 413.051 323.537 413.909L318.408 418.341C317.221 419.386 315.907 420.732 316.176 422.283C316.401 422.968 316.82 423.573 317.382 424.026C317.944 424.478 318.625 424.758 319.342 424.832C321.941 425.124 324.571 424.799 327.02 423.882C329.303 423.276 331.545 422.525 333.732 421.634C334.877 421.225 335.897 420.527 336.692 419.608C338.45 417.249 337.864 412.152 337.595 409.349Z" fill="#3E3E54"/>
<path d="M342.755 295.417C339.304 295.591 335.489 295.417 332.861 297.697C332.6 297.872 332.385 298.107 332.233 298.382C332.081 298.658 331.998 298.966 331.991 299.28C332.086 299.709 332.307 300.1 332.624 300.404L340.365 309.411C340.735 309.895 341.178 310.317 341.679 310.662C342.698 311.166 343.855 311.322 344.972 311.105C349.228 310.629 353.218 308.797 356.354 305.881C359.52 302.858 358.048 297.966 354.66 295.512C351.272 293.058 346.776 295.211 342.755 295.417Z" fill="url(#paint8_linear)"/>
<path d="M382.522 167.072C393.382 168.006 403.101 174.876 409.687 183.552C416.542 192.575 422.019 204.559 433.1 206.933C438.087 208.01 443.295 206.791 448.361 207.313C453.085 207.898 457.508 209.942 461.016 213.159C464.523 216.377 466.939 220.609 467.927 225.265C469.115 231.423 467.658 237.787 468.292 244.024C469.542 256.325 478.819 268.023 475.352 279.88C472.597 289.252 461.104 294.935 451.939 291.357C442.187 287.542 437.96 276.413 431.359 268.245C428.494 264.683 424.299 261.343 419.803 262.182C417.571 262.609 415.623 264.018 413.47 264.588C408.405 265.902 403.133 262.34 400.553 257.781C397.972 253.222 397.387 247.839 396.579 242.679C395.408 235.397 393.413 227.925 388.664 222.336C382.775 215.498 373.198 212.094 368.749 204.242C366.121 199.588 365.662 194.095 363.272 189.361C361.151 185.198 357.082 183.029 358.871 178.106C361.863 169.969 375.002 166.439 382.522 167.072Z" fill="#FF5858"/>
<path d="M352.729 177.932C352.472 179.262 352.538 180.635 352.921 181.935C353.304 183.235 353.992 184.424 354.929 185.404C356.832 187.342 358.957 189.048 361.261 190.485C363.558 191.938 365.457 193.94 366.786 196.311C366.923 196.711 367.15 197.074 367.451 197.372C367.607 197.507 367.806 197.582 368.013 197.582C368.22 197.582 368.419 197.507 368.575 197.372C368.728 197.16 368.806 196.904 368.797 196.643C369.113 192.211 368.306 187.794 368.306 183.362C368.306 180.354 369.208 176.523 367.403 173.863C363.937 168.718 354.122 172.85 352.729 177.932Z" fill="#EB5B5B"/>
</g>
<defs>
<linearGradient id="paint0_linear" x1="118" y1="70.2275" x2="673" y2="625.228" gradientUnits="userSpaceOnUse">
<stop stop-color="#FF5858"/>
<stop offset="1" stop-color="#FEC940"/>
</linearGradient>
<linearGradient id="paint1_linear" x1="387.888" y1="275.55" x2="330.265" y2="257.202" gradientUnits="userSpaceOnUse">
<stop offset="0.01"/>
<stop offset="0.13" stop-opacity="0.69"/>
<stop offset="1" stop-opacity="0"/>
</linearGradient>
<linearGradient id="paint2_linear" x1="325.745" y1="293.351" x2="349.996" y2="303.139" gradientUnits="userSpaceOnUse">
<stop stop-color="white"/>
<stop offset="0.42" stop-color="#EAD4D1"/>
<stop offset="1" stop-color="white"/>
</linearGradient>
<linearGradient id="paint3_linear" x1="10705.7" y1="10353.2" x2="8867.96" y2="10381.6" gradientUnits="userSpaceOnUse">
<stop offset="0.01"/>
<stop offset="0.13" stop-opacity="0.69"/>
<stop offset="1" stop-opacity="0"/>
</linearGradient>
<linearGradient id="paint4_linear" x1="7331.26" y1="2862.24" x2="8021.12" y2="2862.24" gradientUnits="userSpaceOnUse">
<stop stop-color="white"/>
<stop offset="0.42" stop-color="#EBEBEB"/>
<stop offset="1" stop-color="#D7D7D7"/>
</linearGradient>
<linearGradient id="paint5_linear" x1="14465.7" y1="9088.77" x2="11305.2" y2="8988.65" gradientUnits="userSpaceOnUse">
<stop offset="0.01"/>
<stop offset="0.13" stop-opacity="0.69"/>
<stop offset="1" stop-opacity="0"/>
</linearGradient>
<linearGradient id="paint6_linear" x1="-346.852" y1="27270.4" x2="-10.5499" y2="27299.9" gradientUnits="userSpaceOnUse">
<stop stop-color="white"/>
<stop offset="0.578125" stop-color="#D7D7D7"/>
<stop offset="1" stop-color="#D7D7D7"/>
</linearGradient>
<linearGradient id="paint7_linear" x1="4363.27" y1="15853.7" x2="4638.89" y2="15853.7" gradientUnits="userSpaceOnUse">
<stop stop-color="white"/>
<stop offset="0.42" stop-color="#EBEBEB"/>
<stop offset="1" stop-color="#D7D7D7"/>
</linearGradient>
<linearGradient id="paint8_linear" x1="5479.35" y1="2453.23" x2="5911" y2="2453.23" gradientUnits="userSpaceOnUse">
<stop stop-color="white"/>
<stop offset="0.42" stop-color="#EBEBEB"/>
<stop offset="1" stop-color="#D7D7D7"/>
</linearGradient>
<clipPath id="clip0">
<rect width="618" height="464" fill="white" transform="translate(73 115)"/>
</clipPath>
</defs>
</svg>
