<svg width="60" height="82" viewBox="0 0 60 82" fill="none" xmlns="http://www.w3.org/2000/svg">
<circle cx="30" cy="30" r="30" fill="#FFC400"/>
<circle cx="30" cy="30" r="22.5" fill="white"/>
<g clip-path="url(#clip0)">
<path d="M40.8435 26.2527L40.625 26.2503C37.5782 26.2503 34.837 27.9534 33.4429 30.6205C32.566 30.225 31.6152 30.0002 30.6252 30.0002C28.9897 30.0002 27.4516 30.5833 26.234 31.5989C26.2105 30.5253 26.0706 29.456 25.9341 28.5061C25.8173 27.6939 25.7051 26.9059 25.6978 26.2497L28.8577 26.2503C29.3582 26.2503 29.8293 26.055 30.1833 25.701L32.6833 23.201C33.3979 22.4865 33.4028 21.3404 32.7207 20.606C32.9589 20.2489 33.0724 19.8212 33.0288 19.3846C32.9732 18.8236 32.6724 18.322 32.203 18.0094L30.6857 16.9981C29.9527 16.5092 29.0988 16.2505 28.2169 16.2505C26.3785 16.2505 24.6506 16.9664 23.3506 18.2664C20.9562 20.6608 19.0721 23.4024 17.7489 26.4157C16.1547 30.046 15.3466 32.7242 15.3466 34.3751C15.3466 35.3212 15.2648 36.0896 15.103 36.6597C14.7576 37.8773 15.3014 39.1761 16.4251 39.8182C20.9263 42.3902 26.0459 43.75 31.2301 43.75H32.134C35.3475 43.75 38.5224 43.2348 41.5711 42.2187L42.0088 42.0722C43.7977 41.4765 45 39.8085 45 37.9225V30.6307C45 28.2772 43.1354 26.3131 40.8435 26.2527ZM43.75 37.9225C43.75 39.2695 42.8912 40.4609 41.6126 40.8869L41.1749 41.0334C38.2551 42.0063 35.2131 42.5 32.134 42.5H31.23C26.2631 42.5 21.3578 41.1976 17.0451 38.733C16.4213 38.3766 16.1174 37.6642 16.3054 37.0008C16.4988 36.3202 16.5965 35.4365 16.5965 34.3751C16.5965 32.9188 17.3906 30.3407 18.8938 26.9186C20.1536 24.0475 21.9504 21.4341 24.2343 19.1502C25.2981 18.0864 26.7123 17.5004 28.2168 17.5004C28.8509 17.5004 29.4649 17.6866 29.9923 18.0382L31.5096 19.0495C31.6664 19.1538 31.7665 19.321 31.7849 19.5078C31.8038 19.6952 31.7379 19.8783 31.6054 20.0114L29.609 22.0078C29.3953 22.2214 29.07 22.2739 28.8003 22.1391C28.5964 22.0371 28.4585 21.8497 28.4219 21.6246C28.3853 21.3994 28.4567 21.1778 28.6178 21.0167L29.1921 20.4423C29.4363 20.1982 29.4363 19.8027 29.1921 19.5586C28.948 19.3144 28.5525 19.3144 28.3084 19.5586L27.7341 20.1329C27.2855 20.5815 27.0858 21.1986 27.1878 21.8254C27.2897 22.4516 27.6736 22.9734 28.2412 23.2572C28.992 23.632 29.8983 23.4867 30.4928 22.8916L31.8599 21.5245C32.0288 21.7679 32.0162 22.1006 31.7995 22.3173L29.2995 24.8173C29.1829 24.9339 29.0218 25.0004 28.8576 25.0004L25.9393 24.9999C25.9785 24.935 26.0161 24.8683 26.0671 24.8173C26.3113 24.5731 26.3113 24.1776 26.0671 23.9335C25.823 23.6894 25.4275 23.6894 25.1834 23.9335C24.1611 24.9558 24.4095 26.6837 24.697 28.6844C24.8459 29.7232 25.0003 30.7974 25.0003 31.8752C25.0003 34.4497 23.0521 34.9978 22.9691 35.0197C22.637 35.1058 22.4356 35.4433 22.5192 35.7766C22.59 36.061 22.8445 36.2502 23.1247 36.2502C23.1747 36.2502 23.226 36.2441 23.2767 36.2312C24.025 36.0443 25.2514 35.3261 25.8679 33.853C25.8764 33.8417 25.8902 33.8374 25.8981 33.8253C26.9406 32.2127 28.7075 31.2502 30.6252 31.2502C32.1181 31.2502 33.5243 31.8288 34.5845 32.8799C34.8299 33.1228 35.226 33.1216 35.4682 32.8762C35.7112 32.6308 35.7099 32.2353 35.4645 31.9924C35.1754 31.7057 34.8584 31.4585 34.5306 31.2308C35.7054 28.9553 38.0347 27.5003 40.625 27.5003L40.8099 27.5028C42.431 27.5455 43.7499 28.9486 43.7499 30.6307V37.9225H43.75Z" fill="#4F4F4F"/>
</g>
<path d="M31.4181 79.874C31.0706 80.6787 29.9294 80.6787 29.5819 79.874L21.9954 62.3051C21.6369 61.475 22.4766 60.6332 23.3076 60.9896L30.1059 63.905C30.3575 64.013 30.6425 64.013 30.8941 63.905L37.6924 60.9896C38.5234 60.6332 39.3631 61.475 39.0046 62.3051L31.4181 79.874Z" fill="#FFC400"/>
<defs>
<clipPath id="clip0">
<rect width="30" height="30" fill="white" transform="translate(15 15)"/>
</clipPath>
</defs>
</svg>
