<svg width="28" height="24" viewBox="0 0 28 24" fill="none" xmlns="http://www.w3.org/2000/svg">
<path fill-rule="evenodd" clip-rule="evenodd" d="M9.17613 5C9.17613 5.55 8.65995 6 8.02907 6H6.88201V18H8.02907C8.65995 18 9.17613 18.45 9.17613 19C9.17613 19.55 8.65995 20 8.02907 20H5.73495C5.10407 20 4.58789 19.55 4.58789 19V5C4.58789 4.45 5.10407 4 5.73495 4H8.02907C8.65995 4 9.17613 4.45 9.17613 5ZM20.6512 7.4248L23.879 11.4248C24.1658 11.7788 24.1566 12.2538 23.8584 12.5998L20.4172 16.5998C20.1924 16.8618 19.8471 16.9998 19.4984 16.9998C19.2598 16.9998 19.0178 16.9348 18.8113 16.7998C18.3043 16.4688 18.2022 15.8418 18.5819 15.4008L20.6478 12.9998H20.6466H11.4701C10.837 12.9998 10.3231 12.5528 10.3231 11.9998C10.3231 11.4468 10.837 10.9998 11.4701 10.9998H20.6466C20.6656 10.9998 20.6831 11.0044 20.7009 11.0089C20.7153 11.0127 20.7298 11.0165 20.7453 11.0178L18.7746 8.5748C18.4098 8.1238 18.5349 7.4998 19.0533 7.1818C19.5707 6.8628 20.2864 6.9728 20.6512 7.4248Z" fill="#9FA2B4"/>
<mask id="mask0" mask-type="alpha" maskUnits="userSpaceOnUse" x="4" y="4" width="21" height="16">
<path fill-rule="evenodd" clip-rule="evenodd" d="M9.17613 5C9.17613 5.55 8.65995 6 8.02907 6H6.88201V18H8.02907C8.65995 18 9.17613 18.45 9.17613 19C9.17613 19.55 8.65995 20 8.02907 20H5.73495C5.10407 20 4.58789 19.55 4.58789 19V5C4.58789 4.45 5.10407 4 5.73495 4H8.02907C8.65995 4 9.17613 4.45 9.17613 5ZM20.6512 7.4248L23.879 11.4248C24.1658 11.7788 24.1566 12.2538 23.8584 12.5998L20.4172 16.5998C20.1924 16.8618 19.8471 16.9998 19.4984 16.9998C19.2598 16.9998 19.0178 16.9348 18.8113 16.7998C18.3043 16.4688 18.2022 15.8418 18.5819 15.4008L20.6478 12.9998H20.6466H11.4701C10.837 12.9998 10.3231 12.5528 10.3231 11.9998C10.3231 11.4468 10.837 10.9998 11.4701 10.9998H20.6466C20.6656 10.9998 20.6831 11.0044 20.7009 11.0089C20.7153 11.0127 20.7298 11.0165 20.7453 11.0178L18.7746 8.5748C18.4098 8.1238 18.5349 7.4998 19.0533 7.1818C19.5707 6.8628 20.2864 6.9728 20.6512 7.4248Z" fill="white"/>
</mask>
<g mask="url(#mask0)">
<rect width="27.5294" height="24" fill="#9FA2B4"/>
</g>
</svg>
