<svg width="0" height="0" class="hidden">
  <symbol fill="none" xmlns="http://www.w3.org/2000/svg" viewBox="0 0 18 18" id="cast">
    <path d="M17.1 17.1H12a.3.3 0 010-.6h5.1a.3.3 0 00.3-.3V1.8a.3.3 0 00-.3-.3H.9a.3.3 0 00-.3.3v3.3a.3.3 0 01-.6 0V1.8A.902.902 0 01.9.9h16.2a.902.902 0 01.9.9v14.4a.902.902 0 01-.9.9z" fill="#020202"></path>
    <path d="M16.5 15.9h-4.56a.3.3 0 110-.6h4.26V2.7H1.8v2.46a.3.3 0 11-.6 0V2.4a.3.3 0 01.3-.3h15a.3.3 0 01.3.3v13.2a.3.3 0 01-.3.3zm-11.633-.575a.315.315 0 00-.211.362c.091.364.14.738.144 1.113h.6a5.322 5.322 0 00-.163-1.26.285.285 0 00-.37-.214zM.3 11.7v.6a4.508 4.508 0 013.091 1.235c.07.062.137.13.198.2a.312.312 0 00.42.018.288.288 0 00.019-.426 2.27 2.27 0 00-.224-.226A5.11 5.11 0 00.3 11.7zm3.95 2.943a.3.3 0 00.166.14l.055.012a.26.26 0 00.06 0c.02 0 .038-.002.056-.007a.3.3 0 00.21-.192.31.31 0 00.011-.123.307.307 0 00-.224-.268.29.29 0 00-.118-.003.261.261 0 00-.109.04.337.337 0 00-.137.184.291.291 0 00.03.217z" fill="#020202"></path>
    <path d="M6.6 17.1H5.1a.3.3 0 010-.6h1.193A6.01 6.01 0 00.6 10.807V12a.3.3 0 01-.6 0v-1.5a.3.3 0 01.3-.3 6.608 6.608 0 016.6 6.6.3.3 0 01-.3.3z" fill="#020202"></path>
    <path d="M9.3 17.1H7.8a.3.3 0 01-.3-.3A7.208 7.208 0 00.3 9.6a.3.3 0 01-.3-.3V7.8a.3.3 0 01.3-.3 9.31 9.31 0 019.3 9.3.3.3 0 01-.3.3zm-1.206-.6h.901A8.714 8.714 0 00.6 8.105v.9A7.81 7.81 0 018.094 16.5z" fill="#020202"></path>
    <path d="M12 17.1h-1.5a.3.3 0 01-.3-.3A9.91 9.91 0 00.3 6.9a.3.3 0 01-.3-.3V5.1a.3.3 0 01.3-.3c.403 0 .817.021 1.23.061A12.031 12.031 0 0112.24 15.57c.039.416.06.83.06 1.23a.3.3 0 01-.3.3zm-1.205-.6h.9a12.305 12.305 0 00-.054-.87A11.427 11.427 0 001.47 5.458a12.16 12.16 0 00-.87-.055v.9A10.513 10.513 0 0110.795 16.5z" fill="#020202"></path>
  </symbol>
  <symbol fill="none" xmlns="http://www.w3.org/2000/svg" viewBox="0 0 21 15" id="orgs">
    <path d="M3.15 6.429c1.158 0 2.1-.961 2.1-2.143s-.942-2.143-2.1-2.143c-1.158 0-2.1.96-2.1 2.143 0 1.182.942 2.143 2.1 2.143zm14.7 0c1.158 0 2.1-.961 2.1-2.143s-.942-2.143-2.1-2.143c-1.158 0-2.1.96-2.1 2.143 0 1.182.942 2.143 2.1 2.143zM18.9 7.5h-2.1c-.578 0-1.1.238-1.48.623a4.899 4.899 0 012.464 3.663h2.166c.58 0 1.05-.48 1.05-1.072V9.643C21 8.46 20.058 7.5 18.9 7.5zm-8.4 0c2.031 0 3.675-1.677 3.675-3.75S12.531 0 10.5 0C8.469 0 6.825 1.677 6.825 3.75S8.469 7.5 10.5 7.5zm2.52 1.071h-.272a5.084 5.084 0 01-2.248.536c-.807 0-1.562-.2-2.248-.536H7.98c-2.087 0-3.78 1.728-3.78 3.858v.964C4.2 14.28 4.905 15 5.775 15h9.45c.87 0 1.575-.72 1.575-1.607v-.964c0-2.13-1.693-3.858-3.78-3.858zm-7.34-.448A2.073 2.073 0 004.2 7.5H2.1C.942 7.5 0 8.46 0 9.643v1.071c0 .593.47 1.072 1.05 1.072h2.162A4.91 4.91 0 015.68 8.123z" fill="#0B0B0B"></path>
  </symbol>
  <symbol fill="none"  xmlns="http://www.w3.org/2000/svg" viewBox="0 0 25 25" id="events">
    <path d="M21.582 2.19726H20.6787V1.58691C20.6787 0.711911 19.9668 0 19.0918 0C18.2167 0 17.5049 0.711862 17.5049 1.58691V2.19726H17.5048H16.2842V1.58691C16.2842 0.711911 15.5723 0 14.6973 0C13.8222 0 13.1103 0.711862 13.1103 1.58691V2.19726H13.1103H11.8897V1.58691C11.8897 0.711911 11.1777 0 10.3027 0C9.42775 0 8.71583 0.711862 8.71583 1.58691V2.19726H7.49519V1.58691C7.49519 0.711911 6.78327 0 5.90828 0C5.03328 0 4.32137 0.711862 4.32137 1.58691V2.19726H3.41796C1.53329 2.19726 0 3.73055 0 5.61521V21.582C0 23.4667 1.53329 25 3.41796 25H21.582C23.4667 25 24.9999 23.4667 24.9999 21.582V5.61521C24.9999 3.73055 23.4667 2.19726 21.582 2.19726V2.19726ZM18.4814 1.58691C18.4814 1.25039 18.7552 0.976559 19.0918 0.976559C19.4283 0.976559 19.7021 1.25034 19.7021 1.58691V3.78416C19.7021 4.12074 19.4283 4.39451 19.0918 4.39451C18.7552 4.39451 18.4814 4.12074 18.4814 3.78416V1.58691ZM14.0869 1.58691C14.0869 1.25039 14.3607 0.976559 14.6973 0.976559C15.0338 0.976559 15.3076 1.25034 15.3076 1.58691V3.78416C15.3076 4.12074 15.0338 4.39451 14.6973 4.39451C14.3607 4.39451 14.0869 4.12074 14.0869 3.78416V1.58691ZM9.69239 1.58691C9.69239 1.25039 9.96617 0.976559 10.3027 0.976559C10.6393 0.976559 10.9131 1.25034 10.9131 1.58691V3.78416C10.9131 4.12074 10.6393 4.39451 10.3027 4.39451C9.96617 4.39451 9.69239 4.12074 9.69239 3.78416V1.58691ZM5.29788 1.58691C5.29788 1.25039 5.57166 0.976559 5.90823 0.976559C6.2448 0.976559 6.51858 1.25034 6.51858 1.58691V3.78416C6.51858 4.12074 6.2448 4.39451 5.90823 4.39451C5.57166 4.39451 5.29788 4.12074 5.29788 3.78416V1.58691ZM24.0234 21.582C24.0234 22.9282 22.9282 24.0234 21.582 24.0234H3.41796C2.07177 24.0234 0.976559 22.9282 0.976559 21.582V5.61521C0.976559 4.26903 2.07177 3.17382 3.41796 3.17382H4.32127V3.78416C4.32127 4.65916 5.03318 5.37107 5.90818 5.37107C6.78318 5.37107 7.49509 4.65916 7.49509 3.78416V3.17382H8.71579V3.78416C8.71579 4.65916 9.4277 5.37107 10.3027 5.37107C11.1777 5.37107 11.8896 4.65916 11.8896 3.78416V3.17382H13.1103H13.1103V3.78416C13.1103 4.65916 13.8222 5.37107 14.6973 5.37107C15.5723 5.37107 16.2842 4.65916 16.2842 3.78416V3.17382H17.5048H17.5049V3.78416C17.5049 4.65916 18.2167 5.37107 19.0918 5.37107C19.9668 5.37107 20.6787 4.65916 20.6787 3.78416V3.17382H21.582C22.9282 3.17382 24.0234 4.26903 24.0234 5.61521V21.582Z" fill="black"/>
<path d="M21.5821 6.5918H10.3028C10.0331 6.5918 9.81447 6.8104 9.81447 7.08008C9.81447 7.34975 10.0331 7.56836 10.3028 7.56836H21.5821C21.7098 7.56836 21.8262 7.68471 21.8262 7.8125V21.5821C21.8262 21.7099 21.7098 21.8262 21.5821 21.8262H3.41796C3.29018 21.8262 3.17382 21.7099 3.17382 21.5821V7.8125C3.17382 7.68471 3.29018 7.56836 3.41796 7.56836H5.90824C6.17791 7.56836 6.39652 7.34975 6.39652 7.08008C6.39652 6.8104 6.17791 6.5918 5.90824 6.5918H3.41796C2.74487 6.5918 2.19727 7.1394 2.19727 7.8125V21.5821C2.19727 22.2552 2.74487 22.8028 3.41796 22.8028H21.5821C22.2551 22.8028 22.8028 22.2552 22.8028 21.5821V7.8125C22.8028 7.13935 22.2552 6.5918 21.5821 6.5918Z" fill="black"/>
<path d="M7.97176 13.5886C7.86688 13.9053 7.94442 14.2524 8.17376 14.494L9.62489 16.026L9.33817 18.0515C9.28851 18.3837 9.4245 18.7137 9.6931 18.9131C9.85199 19.031 10.0409 19.0914 10.2312 19.0914C10.3625 19.0914 10.4946 19.0626 10.618 19.0041L12.5264 18.096L14.3492 18.9873C14.6462 19.1434 15.0018 19.1223 15.2802 18.9313C15.561 18.7386 15.708 18.409 15.664 18.0711L15.3903 15.9778L16.8179 14.5023C17.0505 14.2637 17.132 13.9171 17.0305 13.5977C16.9295 13.28 16.6628 13.045 16.3352 12.9845L14.2613 12.5982L13.2993 10.7846C13.1445 10.4899 12.8406 10.3052 12.5063 10.3028C12.1723 10.3007 11.8665 10.4806 11.7071 10.7734L10.6986 12.6268L8.67376 12.9818C8.34593 13.0387 8.07689 13.2713 7.97176 13.5886ZM11.0994 13.548C11.2459 13.5223 11.3728 13.4312 11.4439 13.3005L12.4995 11.3606L13.5091 13.2639C13.5788 13.3953 13.7047 13.4878 13.851 13.5151L16.0229 13.9197L14.5248 15.468C14.4213 15.5749 14.3723 15.7233 14.3915 15.8708L14.6778 18.061L12.7437 17.1153C12.6101 17.05 12.4538 17.0491 12.3195 17.1131L10.3229 18.0632L10.6248 15.9297C10.6457 15.7823 10.5982 15.6335 10.4959 15.5255L8.97557 13.9204L11.0994 13.548Z" fill="black"/>
<path d="M8.10561 7.56836C8.37529 7.56836 8.59389 7.34976 8.59389 7.08008C8.59389 6.8104 8.37529 6.5918 8.10561 6.5918H8.10527C7.83559 6.5918 7.61719 6.8104 7.61719 7.08008C7.61719 7.34976 7.83594 7.56836 8.10561 7.56836V7.56836Z" fill="black"/>
  </symbol>
  <symbol fill="none" xmlns="http://www.w3.org/2000/svg" viewBox="0 0 14 16" id="users">
    <path d="M7 8C9.20937 8 11 6.20937 11 4C11 1.79063 9.20937 0 7 0C4.79063 0 3 1.79063 3 4C3 6.20937 4.79063 8 7 8ZM9.99375 9.01875L8.5 15L7.5 10.75L8.5 9H5.5L6.5 10.75L5.5 15L4.00625 9.01875C1.77812 9.125 0 10.9469 0 13.2V14.5C0 15.3281 0.671875 16 1.5 16H12.5C13.3281 16 14 15.3281 14 14.5V13.2C14 10.9469 12.2219 9.125 9.99375 9.01875V9.01875Z" fill="#0B0B0B"/>
  </symbol>
  <symbol fill="none" xmlns="http://www.w3.org/2000/svg" viewBox="0 0 25 25" id="support">
        <path d="M4.39701 19.3335C4.04701 19.3335 3.71056 19.4208 3.41206 19.5848C1.83964 17.5692 0.976562 15.0652 0.976562 12.5C0.976562 6.14586 6.14586 0.976562 12.5 0.976562C13.2725 0.976562 14.0446 1.05343 14.7949 1.20506C15.0589 1.25847 15.3168 1.08757 15.3702 0.823212C15.4236 0.558853 15.2527 0.301361 14.9883 0.247765C14.1745 0.0833511 13.3373 0 12.5 0C9.16119 0 6.02207 1.30024 3.66116 3.66116C1.30024 6.02207 0 9.16119 0 12.5C0 15.3086 0.953674 18.0494 2.68993 20.2467C2.46639 20.5807 2.34623 20.9732 2.34623 21.3842C2.34623 21.932 2.55966 22.447 2.94704 22.8342C3.33424 23.2216 3.84922 23.435 4.39701 23.435C4.9448 23.435 5.45979 23.2216 5.84717 22.8342C6.23455 22.447 6.44779 21.9318 6.44779 21.384C6.44779 20.8364 6.23455 20.3213 5.84717 19.9341C5.45979 19.5467 4.9448 19.3335 4.39701 19.3335V19.3335ZM5.15652 22.1437C4.95377 22.3467 4.68388 22.4585 4.39701 22.4585C4.11015 22.4585 3.84045 22.3467 3.6375 22.1437C3.43456 21.9408 3.32279 21.6711 3.32279 21.3842C3.32279 21.0972 3.43456 20.8275 3.6375 20.6245C3.84026 20.4216 4.11015 20.31 4.39701 20.31C4.68388 20.31 4.95358 20.4218 5.15652 20.6245C5.35946 20.8275 5.47123 21.0972 5.47123 21.3842C5.47123 21.6711 5.35946 21.9408 5.15652 22.1437V22.1437Z" fill="black"/>
        <path d="M22.3095 4.75269C22.8403 3.95638 22.755 2.86766 22.053 2.16557C21.6656 1.77837 21.1506 1.56494 20.6028 1.56494C20.055 1.56494 19.54 1.77837 19.1526 2.16557C18.7653 2.55295 18.552 3.06793 18.552 3.61572C18.552 4.16351 18.7653 4.6785 19.1526 5.06588C19.54 5.45326 20.055 5.6665 20.6028 5.6665C20.9528 5.6665 21.2893 5.57915 21.5878 5.41512C23.1602 7.43099 24.0232 9.93477 24.0232 12.5C24.0232 18.8541 18.854 24.0234 12.4998 24.0234C11.735 24.0234 10.9701 23.9481 10.2268 23.7993C9.96246 23.7465 9.70516 23.9179 9.65214 24.1823C9.5993 24.4468 9.77078 24.7039 10.0351 24.757C10.8414 24.9181 11.6707 25 12.4998 25C15.8386 25 18.9777 23.6997 21.3387 21.3388C23.6996 18.9779 24.9998 15.8388 24.9998 12.5C24.9998 9.6912 24.0459 6.95015 22.3095 4.75269V4.75269ZM19.8433 4.37542C19.6403 4.17248 19.5286 3.90278 19.5286 3.61572C19.5286 3.32886 19.6403 3.05916 19.8433 2.85622C20.046 2.65327 20.3159 2.5415 20.6028 2.5415C20.8897 2.5415 21.1596 2.65327 21.3625 2.85622C21.7812 3.27507 21.7812 3.95657 21.3625 4.37542C21.1596 4.57817 20.8897 4.68994 20.6028 4.68994C20.3157 4.68994 20.046 4.57817 19.8433 4.37542Z" fill="black"/>
        <path d="M10.4849 20.8984C10.4849 21.1681 10.7036 21.3867 10.9731 21.3867H14.0262C14.2959 21.3867 14.5145 21.1681 14.5145 20.8984V19.9518C15.1565 19.779 15.7703 19.5246 16.3471 19.1923L17.0154 19.8606C17.107 19.9522 17.2312 20.0037 17.3609 20.0037C17.4902 20.0037 17.6145 19.9522 17.7061 19.8605L19.8641 17.701C20.0546 17.5102 20.0546 17.201 19.8641 17.0105L19.1965 16.3429C19.5287 15.7661 19.7832 15.1524 19.956 14.5103H20.899C21.1687 14.5103 21.3873 14.2918 21.3873 14.0221V10.969C21.3873 10.6993 21.1687 10.4807 20.899 10.4807H19.9558C19.783 9.83887 19.5287 9.22508 19.1965 8.6483L19.8604 7.98435C19.952 7.8928 20.0035 7.76844 20.0035 7.63893C20.0033 7.50942 19.9518 7.38506 19.8602 7.29351L17.7006 5.13554C17.51 4.94499 17.2008 4.94499 17.0101 5.13573L16.3471 5.79891C15.7703 5.46665 15.1565 5.21221 14.5145 5.03941V4.10156C14.5145 3.83186 14.2959 3.61328 14.0262 3.61328H10.9731C10.7036 3.61328 10.4849 3.83186 10.4849 4.10156V5.0396C9.84304 5.21221 9.22926 5.46665 8.65247 5.79891L7.98929 5.13573C7.79874 4.94518 7.48956 4.94499 7.29883 5.13554L5.13933 7.2937C5.04759 7.38525 4.99609 7.50942 4.99609 7.63893C4.99609 7.76844 5.04759 7.8928 5.13914 7.98435L5.80309 8.6483C5.47083 9.22508 5.21639 9.83868 5.04358 10.4807H4.1023C3.8326 10.4807 3.61402 10.6993 3.61402 10.9688L3.61231 14.0219C3.61211 14.1514 3.66361 14.2757 3.75517 14.3673C3.84672 14.4588 3.97089 14.5103 4.10059 14.5103H5.04358C5.21639 15.1524 5.47083 15.7661 5.80309 16.3429L5.13551 17.0105C4.94497 17.201 4.94478 17.5102 5.13551 17.701L7.29349 19.8605C7.38504 19.952 7.50921 20.0037 7.63872 20.0037H7.63891C7.76842 20.0037 7.89259 19.9522 7.98414 19.8606L8.65228 19.1923C9.22926 19.5246 9.84304 19.779 10.4849 19.9518V20.8984ZM8.84378 18.1654C8.65057 18.0405 8.39632 18.0676 8.23343 18.2302L7.63891 18.8248L6.1712 17.3559L6.76515 16.7618C6.92785 16.5991 6.95493 16.3448 6.83 16.1516C6.38731 15.4665 6.07603 14.7156 5.90513 13.9194C5.85668 13.6946 5.65794 13.5338 5.42772 13.5338H4.58906L4.5902 11.4573H5.42772C5.65794 11.4573 5.85668 11.2967 5.90513 11.0716C6.07603 10.2757 6.38731 9.52473 6.83 8.83961C6.95493 8.64639 6.92785 8.39214 6.76515 8.22945L6.17502 7.63912L7.64387 6.17142L8.23343 6.76117C8.39632 6.92387 8.65038 6.95076 8.84378 6.82602C9.52871 6.38332 10.2796 6.07204 11.0758 5.90115C11.3006 5.8527 11.4614 5.65376 11.4614 5.42374V4.58984H13.538V5.42355C13.538 5.65376 13.6986 5.8527 13.9236 5.90096C14.7196 6.07204 15.4707 6.38313 16.1556 6.82583C16.3488 6.95076 16.6031 6.92387 16.7658 6.76098L17.3555 6.17142L18.8244 7.63912L18.2342 8.22926C18.0713 8.39214 18.0444 8.64639 18.1694 8.83961C18.6121 9.52473 18.9232 10.2757 19.0943 11.0716C19.1425 11.2967 19.3414 11.4573 19.5717 11.4573H20.4107V13.5338H19.5717C19.3414 13.5338 19.1427 13.6946 19.0943 13.9194C18.9234 14.7154 18.6121 15.4665 18.1694 16.1514C18.0444 16.3448 18.0715 16.5991 18.2342 16.7618L18.8282 17.3557L17.3605 18.8246L16.766 18.2302C16.6031 18.0674 16.3488 18.0405 16.1556 18.1654C15.4705 18.6081 14.7196 18.9192 13.9236 19.0903C13.6986 19.1387 13.538 19.3375 13.538 19.5677V20.4102H11.4614V19.5677C11.4614 19.3377 11.3006 19.1387 11.0758 19.0903C10.2798 18.9194 9.5289 18.6081 8.84378 18.1654V18.1654Z" fill="black"/>
        <path d="M16.5351 12.5002C16.5351 10.2755 14.7252 8.46558 12.5004 8.46558C10.2757 8.46558 8.46582 10.2755 8.46582 12.5002C8.46582 14.7249 10.2757 16.5348 12.5004 16.5348C14.7252 16.5348 16.5351 14.7249 16.5351 12.5002ZM9.44238 12.5002C9.44238 10.8139 10.8141 9.44214 12.5004 9.44214C14.1867 9.44214 15.5585 10.8141 15.5585 12.5002C15.5585 14.1863 14.1867 15.5582 12.5004 15.5582C10.8141 15.5582 9.44238 14.1865 9.44238 12.5002Z" fill="black"/>
        <path d="M16.9961 1.84701C17.1246 1.84701 17.2505 1.79475 17.3413 1.70396C17.4321 1.61259 17.4844 1.48671 17.4844 1.35815C17.4844 1.23036 17.4323 1.10429 17.3413 1.01292C17.2505 0.922134 17.1246 0.869873 16.9961 0.869873C16.8672 0.869873 16.7418 0.922134 16.6511 1.01292C16.5601 1.10429 16.5078 1.22979 16.5078 1.35815C16.5078 1.48709 16.5601 1.61259 16.6511 1.70396C16.7418 1.79475 16.8672 1.84701 16.9961 1.84701Z" fill="black"/>
        <path d="M8.02539 23.1621C7.89703 23.1621 7.77095 23.2144 7.68016 23.3052C7.58937 23.396 7.53711 23.522 7.53711 23.6504C7.53711 23.7793 7.58937 23.9048 7.68016 23.9956C7.77095 24.0864 7.89703 24.1387 8.02539 24.1387C8.15376 24.1387 8.27983 24.0864 8.37062 23.9956C8.46141 23.9048 8.51367 23.7788 8.51367 23.6504C8.51367 23.522 8.46141 23.396 8.37062 23.3052C8.27983 23.2144 8.15376 23.1621 8.02539 23.1621Z" fill="black"/>
  </symbol>
</svg>