<svg width="17" height="16" viewBox="0 0 17 16" fill="none" xmlns="http://www.w3.org/2000/svg">
<path d="M15.2677 1.69503H14.2338V0.87525C14.2338 0.639187 14.0407 0.446045 13.8048 0.446045C13.5688 0.446045 13.3758 0.639187 13.3758 0.87525V1.69503H9.17166V0.87525C9.17166 0.639187 8.97861 0.446045 8.74266 0.446045C8.50672 0.446045 8.31367 0.639187 8.31367 0.87525V1.69503H4.06663V0.87525C4.06663 0.639187 3.87358 0.446045 3.63764 0.446045C3.40169 0.446045 3.20864 0.639187 3.20864 0.87525V1.69503H2.21767C1.27388 1.69503 0.505981 2.48906 0.505981 3.43332V13.4123C0.505981 14.3609 1.26959 15.1292 2.21767 15.1292H15.2634C16.2114 15.1292 16.9751 14.3609 16.9751 13.4166V3.43332C16.9793 2.48906 16.2114 1.69503 15.2677 1.69503ZM16.1214 13.4123C16.1214 13.8845 15.7438 14.2665 15.272 14.2708H15.2677H2.21767C1.74577 14.2708 1.36397 13.8888 1.36397 13.4166V13.4123V3.43332C1.36397 2.9569 1.74577 2.55344 2.21767 2.55344H3.20864V3.17579C3.20864 3.41186 3.40169 3.605 3.63764 3.605C3.87358 3.605 4.06663 3.41186 4.06663 3.17579V2.55344H8.31367V3.17579C8.31367 3.41186 8.50672 3.605 8.74266 3.605C8.97861 3.605 9.17166 3.41186 9.17166 3.17579V2.55344H13.3758V3.17579C13.3758 3.41186 13.5688 3.605 13.8048 3.605C14.0407 3.605 14.2338 3.41186 14.2338 3.17579V2.55344H15.2677C15.7438 2.55344 16.1214 2.96119 16.1214 3.43332V13.4123Z" fill="black"/>
<path d="M7.61467 5.34302H6.86393C6.62798 5.34302 6.43494 5.53629 6.43494 5.77252C6.43494 6.00874 6.62798 6.20202 6.86393 6.20202H7.61467C7.85062 6.20202 8.04366 6.00874 8.04366 5.77252C8.04366 5.53629 7.85062 5.34302 7.61467 5.34302Z" fill="black"/>
<path d="M10.6004 5.34302H9.84965C9.6137 5.34302 9.42065 5.53629 9.42065 5.77252C9.42065 6.00874 9.6137 6.20202 9.84965 6.20202H10.6004C10.8363 6.20202 11.0294 6.00874 11.0294 5.77252C11.0294 5.53629 10.8406 5.34302 10.6004 5.34302Z" fill="black"/>
<path d="M13.6119 5.34302H12.8611C12.6252 5.34302 12.4321 5.53629 12.4321 5.77252C12.4321 6.00874 12.6252 6.20202 12.8611 6.20202H13.6119C13.8478 6.20202 14.0409 6.00874 14.0409 5.77252C14.0409 5.53629 13.8478 5.34302 13.6119 5.34302Z" fill="black"/>
<path d="M7.61467 8.30469H6.86393C6.62798 8.30469 6.43494 8.49797 6.43494 8.7342C6.43494 8.97044 6.62798 9.16372 6.86393 9.16372H7.61467C7.85062 9.16372 8.04366 8.97044 8.04366 8.7342C8.04366 8.49797 7.85062 8.30469 7.61467 8.30469Z" fill="black"/>
<path d="M4.60712 8.30469H3.85209C3.61614 8.30469 3.4231 8.49797 3.4231 8.7342C3.4231 8.97044 3.61614 9.16372 3.85209 9.16372H4.60283C4.83877 9.16372 5.03182 8.97044 5.03182 8.7342C5.03182 8.49797 4.84306 8.30469 4.60712 8.30469Z" fill="black"/>
<path d="M10.6004 8.30469H9.84965C9.6137 8.30469 9.42065 8.49797 9.42065 8.7342C9.42065 8.97044 9.6137 9.16372 9.84965 9.16372H10.6004C10.8363 9.16372 11.0294 8.97044 11.0294 8.7342C11.0294 8.49797 10.8406 8.30469 10.6004 8.30469Z" fill="black"/>
<path d="M13.6119 8.30469H12.8611C12.6252 8.30469 12.4321 8.49797 12.4321 8.7342C12.4321 8.97044 12.6252 9.16372 12.8611 9.16372H13.6119C13.8478 9.16372 14.0409 8.97044 14.0409 8.7342C14.0409 8.49797 13.8478 8.30469 13.6119 8.30469Z" fill="black"/>
<path d="M7.61467 11.2234H6.86393C6.62798 11.2234 6.43494 11.4167 6.43494 11.6529C6.43494 11.8892 6.62798 12.0824 6.86393 12.0824H7.61467C7.85062 12.0824 8.04366 11.8892 8.04366 11.6529C8.04366 11.4167 7.85062 11.2234 7.61467 11.2234Z" fill="black"/>
<path d="M4.60712 11.2234H3.85209C3.61614 11.2234 3.4231 11.4167 3.4231 11.6529C3.4231 11.8892 3.61614 12.0824 3.85209 12.0824H4.60283C4.83877 12.0824 5.03182 11.8892 5.03182 11.6529C5.03182 11.4167 4.84306 11.2234 4.60712 11.2234Z" fill="black"/>
<path d="M10.6004 11.2234H9.84965C9.6137 11.2234 9.42065 11.4167 9.42065 11.6529C9.42065 11.8892 9.6137 12.0824 9.84965 12.0824H10.6004C10.8363 12.0824 11.0294 11.8892 11.0294 11.6529C11.0294 11.4167 10.8406 11.2234 10.6004 11.2234Z" fill="black"/>
</svg>
