<svg width="37" height="82" viewBox="0 0 37 82" fill="none" xmlns="http://www.w3.org/2000/svg">
<circle opacity="0.2" cx="18.6066" cy="7.80802" r="5.80802" stroke="#FF5A57" stroke-width="4"/>
<path opacity="0.2" d="M9.59746 28.229L7.15495 46.5478M7.15495 46.5478L5.99376 55.2567H30.6191L27.0154 28.229C27.5159 31.7326 28.6971 40.3014 29.4178 46.5478C33.9825 46.0673 34.7233 43.1443 34.5231 41.7429L32.4209 28.229C32.1206 25.0257 28.9373 18.6191 18.6067 18.6191C8.51635 18.6191 4.79252 25.0257 4.1919 28.229C3.79149 31.2321 2.81049 38.1392 2.08975 41.7429C1.36901 45.3466 5.16624 46.4477 7.15495 46.5478Z" stroke="#FF5A57" stroke-width="4" stroke-linecap="round" stroke-linejoin="round"/>
<path opacity="0.2" d="M8.99683 56.458L11.099 77.4796C11.8998 79.3815 14.1621 82.0443 16.8048 77.4796C17.0451 72.4344 17.3054 61.2629 17.4055 56.458" stroke="#FF5A57" stroke-width="3"/>
<path opacity="0.2" d="M27.616 56.458L25.5138 77.4796C24.713 79.3815 22.4507 82.0443 19.8079 77.4796C19.5677 72.4344 19.3074 61.2629 19.2073 56.458" stroke="#FF5A57" stroke-width="3"/>
</svg>
