<svg width="24" height="23" viewBox="0 0 24 23" fill="none" xmlns="http://www.w3.org/2000/svg">
<path d="M12 0C5.38338 0 0 5.15863 0 11.5C0 17.8414 5.38338 23 12 23C18.6166 23 24 17.8414 24 11.5C24 5.15863 18.6166 0 12 0ZM17.7692 12.3846H12.9231V17.25C12.9231 17.7383 12.5095 18.1346 12 18.1346C11.4905 18.1346 11.0769 17.7383 11.0769 17.25V12.3846H6.23077C5.72123 12.3846 5.30769 11.9883 5.30769 11.5C5.30769 11.0117 5.72123 10.6154 6.23077 10.6154H11.0769V6.19231C11.0769 5.704 11.4905 5.30769 12 5.30769C12.5095 5.30769 12.9231 5.704 12.9231 6.19231V10.6154H17.7692C18.2788 10.6154 18.6923 11.0117 18.6923 11.5C18.6923 11.9883 18.2788 12.3846 17.7692 12.3846Z" fill="#FE5A56"/>
</svg>
