<svg width="1440" height="1024" viewBox="0 0 1440 1024" fill="none" xmlns="http://www.w3.org/2000/svg">
<mask id="mask0" mask-type="alpha" maskUnits="userSpaceOnUse" x="0" y="0" width="1440" height="1078">
<g opacity="0.1">
<path d="M577.179 624.585C576.079 623.042 575.315 621.946 573.712 620.991C572.258 620.118 570.544 619.631 568.885 619.712C564.878 619.915 561.262 622.636 560.125 626.921C559.156 630.556 560.199 634.617 562.753 637.196C564.542 638.983 566.63 639.937 569.053 640.079C569.929 640.14 570.823 640.039 571.643 639.775C573.302 639.267 574.029 638.556 575.334 637.419C575.725 636.851 576.135 636.302 576.527 635.734C577.086 634.779 577.384 633.744 577.421 632.647C577.44 632.566 577.421 632.485 577.44 632.424C577.645 631.977 577.831 631.49 577.925 631.002C578.372 628.972 578.391 626.312 577.179 624.585Z" fill="url(#paint0_linear)" fill-opacity="0.8"/>
<path d="M548.439 453.605C541.244 441.097 534.366 428.283 526.706 416.14C526.687 416.12 526.669 416.1 526.65 416.059C526.65 416.039 526.669 416.018 526.687 415.978C530.285 403.164 534.739 390.879 539.268 378.452C542.381 369.903 545.177 359.648 539.678 351.403C534.553 343.707 522.829 350.53 515.989 352.541C504.135 356.054 491.852 360.176 481.191 366.958C472.226 357.292 462.795 347.87 452.674 339.666C446.766 334.874 435.173 323.401 426.897 326.427C418.062 329.655 419.703 344.905 419.609 352.358C419.442 366.877 419.218 382.391 421.66 396.768C421.212 396.687 420.709 396.788 420.169 397.133C410.085 403.692 400.151 410.536 390.459 417.765C385.352 421.562 373.051 427.309 372.678 435.106C372.305 442.863 382.128 445.584 387.16 447.839C399.405 453.321 411.614 459.657 424.325 463.759C424.362 463.779 424.4 463.759 424.418 463.759C426.543 477.811 429.898 492.35 433.7 505.955C435.62 512.819 439.254 529.978 447.306 531.927C454.24 533.592 462.739 522.647 466.597 518.139C475.767 507.417 482.421 494.584 488.944 481.872C489.168 481.425 489.261 480.999 489.28 480.572C502.401 482.765 515.747 483.537 528.98 484.674C537.144 485.385 550.302 487.659 555.297 478.217C559.808 469.708 552.39 460.489 548.439 453.605Z" fill="url(#paint1_linear)" fill-opacity="0.8"/>
<path d="M1102 784.6C1094.81 772.091 1087.93 759.278 1080.27 747.135C1080.25 747.114 1080.23 747.094 1080.21 747.053C1080.21 747.033 1080.23 747.013 1080.25 746.972C1083.85 734.159 1088.3 721.873 1092.83 709.446C1095.94 700.897 1098.74 690.642 1093.24 682.398C1088.12 674.702 1076.39 681.525 1069.55 683.535C1057.7 687.048 1045.41 691.17 1034.75 697.952C1025.79 688.287 1016.36 678.864 1006.24 670.661C1000.33 665.868 988.716 654.395 980.459 657.421C971.625 660.65 973.265 675.9 973.172 683.352C973.004 697.871 972.78 713.385 975.222 727.762C974.775 727.681 974.271 727.783 973.731 728.128C963.647 734.687 953.713 741.53 944.021 748.759C938.914 752.556 926.613 758.303 926.24 766.101C925.867 773.837 935.69 776.579 940.722 778.833C952.968 784.315 965.176 790.651 977.887 794.753C977.924 794.773 977.962 794.753 977.98 794.753C980.105 808.805 983.46 823.344 987.262 836.95C989.182 843.813 992.817 860.972 1000.87 862.922C1007.8 864.587 1016.3 853.641 1020.16 849.133C1029.33 838.412 1035.98 825.578 1042.51 812.866C1042.73 812.419 1042.82 811.993 1042.84 811.567C1055.96 813.76 1069.31 814.531 1082.54 815.669C1090.71 816.379 1103.86 818.654 1108.86 809.211C1113.37 800.703 1105.95 791.484 1102 784.6Z" fill="url(#paint2_linear)" fill-opacity="0.8"/>
<path d="M504.526 298.83C505.812 289.49 507.378 280.149 508.291 270.767C508.291 270.747 508.291 270.726 508.291 270.706C508.31 270.706 508.328 270.686 508.328 270.686C514.964 266.097 521.841 262.157 528.793 258.177C533.565 255.436 538.84 251.72 539.324 245.222C539.771 239.15 531.477 237.14 527.396 235.028C520.294 231.352 512.764 227.778 504.992 226.235C504.321 217.463 503.352 208.63 501.581 200.04C500.537 195.024 499.289 184.201 494.126 181.906C488.609 179.47 483.577 187.612 480.669 191.186C475.04 198.172 469.001 205.604 464.696 213.686C464.509 213.442 464.23 213.259 463.838 213.178C456.439 211.797 449.002 210.62 441.528 209.706C437.595 209.239 429.432 206.457 426.263 210.051C423.113 213.645 426.841 219.433 428.425 222.803C432.283 231.027 435.787 239.637 440.391 247.394C440.41 247.415 440.428 247.435 440.428 247.435C436.086 255.233 432.153 263.802 428.817 272.148C427.121 276.351 422.33 286.342 425.499 290.931C428.239 294.891 436.552 293.429 440.149 292.982C448.704 291.947 456.83 288.718 464.863 285.509C465.143 285.408 465.348 285.225 465.534 285.022C471.07 292.048 477.258 298.465 483.241 305.024C486.931 309.065 492.448 316.132 498.487 313.837C503.893 311.806 503.818 303.968 504.526 298.83Z" fill="url(#paint3_linear)" fill-opacity="0.8"/>
<path d="M903.39 859.287C904.676 849.946 906.241 840.605 907.155 831.223C907.155 831.203 907.155 831.183 907.155 831.162C907.173 831.162 907.192 831.142 907.192 831.142C913.827 826.553 920.705 822.613 927.657 818.633C932.428 815.892 937.703 812.176 938.188 805.678C938.635 799.606 930.341 797.596 926.259 795.484C919.158 791.809 911.628 788.235 903.856 786.691C903.185 777.919 902.215 769.086 900.445 760.496C899.401 755.481 898.152 744.657 892.989 742.363C887.472 739.926 882.44 748.069 879.532 751.643C873.904 758.628 867.865 766.06 863.559 774.142C863.373 773.898 863.093 773.716 862.702 773.634C855.302 772.254 847.866 771.076 840.392 770.162C836.459 769.695 828.295 766.913 825.127 770.507C821.977 774.101 825.704 779.889 827.289 783.26C831.147 791.484 834.651 800.094 839.255 807.851C839.273 807.871 839.292 807.891 839.292 807.891C834.949 815.689 831.016 824.258 827.68 832.604C825.984 836.808 821.194 846.798 824.363 851.388C827.102 855.347 835.415 853.885 839.012 853.438C847.567 852.403 855.694 849.174 863.727 845.966C864.007 845.864 864.212 845.681 864.398 845.478C869.934 852.504 876.122 858.921 882.104 865.48C885.795 869.521 891.312 876.588 897.351 874.293C902.756 872.262 902.681 864.424 903.39 859.287Z" fill="url(#paint4_linear)" fill-opacity="0.8"/>
<path d="M394.839 342.957C394.82 336.966 394.988 330.935 394.746 324.945C394.746 324.925 394.746 324.925 394.746 324.904L394.764 324.884C398.529 321.31 402.499 318.102 406.506 314.893C409.265 312.68 412.247 309.796 411.986 305.654C411.744 301.796 406.339 301.41 403.599 300.496C398.809 298.932 393.776 297.47 388.744 297.308C387.551 291.866 386.172 286.424 384.289 281.205C383.19 278.159 381.456 271.499 378.008 270.605C374.318 269.651 371.876 275.296 370.367 277.834C367.44 282.809 364.309 288.109 362.315 293.632C362.184 293.49 361.979 293.409 361.737 293.409C356.965 293.308 352.194 293.348 347.423 293.572C344.906 293.693 339.539 292.78 337.861 295.379C336.202 297.958 339.054 301.207 340.34 303.156C343.49 307.908 346.453 312.964 350.013 317.35C350.032 317.371 350.032 317.371 350.051 317.371C348 322.711 346.304 328.519 344.925 334.103C344.235 336.926 342.111 343.688 344.496 346.246C346.565 348.439 351.654 346.652 353.871 346.003C359.146 344.459 363.974 341.576 368.745 338.733C368.913 338.631 369.025 338.51 369.118 338.367C373.218 342.205 377.673 345.596 381.997 349.089C384.681 351.242 388.763 355.1 392.36 353.029C395.584 351.181 394.858 346.267 394.839 342.957Z" fill="url(#paint5_linear)" fill-opacity="0.8"/>
<path d="M998.725 217.057C998.707 211.067 998.874 205.036 998.632 199.046C998.632 199.025 998.632 199.025 998.632 199.005L998.651 198.985C1002.42 195.411 1006.39 192.202 1010.39 188.994C1013.15 186.78 1016.13 183.897 1015.87 179.754C1015.63 175.896 1010.23 175.51 1007.49 174.597C1002.7 173.033 997.663 171.571 992.631 171.409C991.438 165.966 990.058 160.524 988.176 155.306C987.076 152.26 985.343 145.599 981.895 144.706C978.204 143.751 975.763 149.396 974.253 151.935C971.327 156.91 968.196 162.21 966.201 167.733C966.071 167.591 965.866 167.51 965.623 167.51C960.852 167.408 956.08 167.449 951.309 167.672C948.793 167.794 943.425 166.88 941.747 169.479C940.089 172.058 942.94 175.307 944.226 177.257C947.376 182.008 950.34 187.065 953.9 191.451C953.918 191.471 953.918 191.471 953.937 191.471C951.887 196.812 950.191 202.619 948.811 208.204C948.122 211.026 945.997 217.788 948.383 220.347C950.452 222.54 955.54 220.753 957.758 220.103C963.033 218.56 967.86 215.676 972.632 212.834C972.799 212.732 972.911 212.61 973.004 212.468C977.105 216.306 981.559 219.697 985.883 223.19C988.567 225.342 992.649 229.2 996.246 227.129C999.471 225.281 998.744 220.367 998.725 217.057Z" fill="url(#paint6_linear)" fill-opacity="0.8"/>
<path d="M1065.82 251.577C1065.8 245.587 1065.97 239.556 1065.73 233.565C1065.73 233.545 1065.73 233.545 1065.73 233.525L1065.75 233.504C1069.51 229.93 1073.48 226.722 1077.49 223.514C1080.25 221.3 1083.23 218.417 1082.97 214.274C1082.73 210.416 1077.32 210.03 1074.58 209.116C1069.79 207.553 1064.76 206.091 1059.73 205.928C1058.54 200.486 1057.16 195.044 1055.27 189.825C1054.17 186.779 1052.44 180.119 1048.99 179.225C1045.3 178.271 1042.86 183.916 1041.35 186.454C1038.42 191.43 1035.29 196.73 1033.3 202.253C1033.17 202.111 1032.96 202.029 1032.72 202.029C1027.95 201.928 1023.18 201.969 1018.41 202.192C1015.89 202.314 1010.52 201.4 1008.85 203.999C1007.19 206.578 1010.04 209.827 1011.32 211.777C1014.47 216.528 1017.44 221.585 1021 225.971C1021.02 225.991 1021.02 225.991 1021.04 225.991C1018.99 231.332 1017.29 237.139 1015.91 242.723C1015.22 245.546 1013.1 252.308 1015.48 254.867C1017.55 257.06 1022.64 255.273 1024.86 254.623C1030.13 253.08 1034.96 250.196 1039.73 247.353C1039.9 247.252 1040.01 247.13 1040.1 246.988C1044.2 250.826 1048.66 254.217 1052.98 257.71C1055.67 259.862 1059.75 263.72 1063.34 261.649C1066.57 259.801 1065.84 254.887 1065.82 251.577Z" fill="url(#paint7_linear)" fill-opacity="0.8"/>
<path d="M57.4828 783.605C57.4641 777.614 57.6318 771.583 57.3895 765.593C57.3895 765.573 57.3895 765.573 57.3895 765.552L57.4082 765.532C61.1731 761.958 65.1431 758.75 69.1503 755.541C71.9088 753.328 74.891 750.444 74.6301 746.302C74.3878 742.444 68.9827 742.058 66.2428 741.144C61.4528 739.581 56.4204 738.118 51.3879 737.956C50.1951 732.514 48.8158 727.072 46.9333 721.853C45.8337 718.807 44.1003 712.147 40.6522 711.253C36.9619 710.299 34.5203 715.944 33.0105 718.482C30.0844 723.457 26.9529 728.757 24.9586 734.281C24.8281 734.138 24.6232 734.057 24.3809 734.057C19.6095 733.956 14.8379 733.996 10.0665 734.22C7.55029 734.341 2.1825 733.428 0.505005 736.027C-1.15381 738.606 1.69775 741.855 2.98389 743.804C6.13379 748.556 9.09729 753.612 12.6572 757.998C12.6759 758.019 12.6759 758.019 12.6945 758.019C10.6443 763.359 8.94812 769.167 7.56885 774.751C6.87927 777.574 4.75452 784.336 7.14026 786.894C9.20911 789.087 14.2974 787.301 16.5153 786.651C21.79 785.107 26.6174 782.224 31.3888 779.381C31.5566 779.279 31.6685 779.158 31.7616 779.016C35.8621 782.853 40.3167 786.245 44.6409 789.737C47.3247 791.89 51.4065 795.748 55.0038 793.677C58.2281 791.829 57.5013 786.915 57.4828 783.605Z" fill="url(#paint8_linear)" fill-opacity="0.8"/>
<path d="M1395.37 36.9191C1390.8 33.5482 1386.33 30.0149 1381.63 26.8674C1381.62 26.8674 1381.62 26.8471 1381.6 26.8471C1381.6 26.8268 1381.6 26.8268 1381.6 26.8065C1381 21.405 1380.81 16.0238 1380.61 10.602C1380.48 6.86565 1379.97 2.56069 1376.68 0.469138C1373.6 -1.48027 1370.28 3.14958 1368.05 5.1396C1364.17 8.57138 1360.22 12.2874 1357.27 16.7345C1352.48 14.7445 1347.56 12.9373 1342.55 11.6783C1339.62 10.9472 1333.58 8.77445 1330.97 11.3737C1328.18 14.1556 1331.09 19.5368 1332.17 22.3188C1334.29 27.7609 1336.55 33.5685 1339.62 38.4624C1339.44 38.503 1339.27 38.6451 1339.12 38.8685C1336.36 43.1125 1333.7 47.4378 1331.18 51.8646C1329.86 54.1795 1326.15 58.5251 1327.17 61.4898C1328.2 64.4342 1332.26 63.7032 1334.48 63.6423C1339.86 63.5001 1345.34 63.6626 1350.69 62.9112C1350.71 62.9112 1350.71 62.8909 1350.73 62.8909C1353.64 67.7442 1357.09 72.5365 1360.55 76.9226C1362.31 79.136 1366.24 84.8624 1369.54 84.1517C1372.37 83.5222 1373.88 77.938 1374.63 75.5621C1376.42 69.9372 1376.96 63.9672 1377.48 58.0783C1377.5 57.8753 1377.46 57.6925 1377.4 57.5301C1382.62 56.0071 1387.69 53.8952 1392.78 51.9458C1395.93 50.7477 1401.15 49.2451 1401.6 44.8386C1402.02 40.8585 1397.87 38.767 1395.37 36.9191Z" fill="url(#paint9_linear)" fill-opacity="0.8"/>
<path d="M292.327 887.168C292.309 881.177 292.476 875.146 292.234 869.156C292.234 869.135 292.234 869.136 292.234 869.115L292.253 869.095C296.018 865.521 299.988 862.313 303.995 859.104C306.753 856.891 309.736 854.007 309.475 849.865C309.232 846.007 303.827 845.621 301.087 844.707C296.297 843.143 291.265 841.681 286.233 841.519C285.04 836.077 283.66 830.635 281.778 825.416C280.678 822.37 278.945 815.709 275.497 814.816C271.806 813.862 269.365 819.507 267.855 822.045C264.929 827.02 261.797 832.32 259.803 837.844C259.673 837.701 259.468 837.62 259.225 837.62C254.454 837.518 249.682 837.559 244.911 837.783C242.395 837.904 237.027 836.991 235.349 839.59C233.691 842.169 236.542 845.418 237.828 847.367C240.978 852.119 243.942 857.175 247.502 861.561C247.52 861.582 247.52 861.582 247.539 861.582C245.489 866.922 243.793 872.73 242.413 878.314C241.724 881.137 239.599 887.899 241.985 890.457C244.054 892.65 249.142 890.863 251.36 890.214C256.635 888.67 261.462 885.787 266.234 882.944C266.401 882.842 266.513 882.721 266.606 882.578C270.707 886.416 275.161 889.807 279.485 893.3C282.169 895.453 286.251 899.311 289.848 897.24C293.073 895.392 292.346 890.478 292.327 887.168Z" fill="url(#paint10_linear)" fill-opacity="0.8"/>
<path d="M322.596 830.614C322.596 827.081 322.689 823.527 322.54 819.994V819.974C322.54 819.974 322.559 819.974 322.559 819.953C324.777 817.841 327.125 815.953 329.492 814.065C331.114 812.765 332.885 811.059 332.717 808.622C332.568 806.348 329.399 806.104 327.759 805.576C324.945 804.642 321.963 803.789 318.999 803.708C318.291 800.5 317.471 797.291 316.371 794.225C315.719 792.438 314.693 788.499 312.662 787.971C310.5 787.402 309.046 790.733 308.151 792.235C306.418 795.159 304.573 798.286 303.399 801.556C303.324 801.475 303.212 801.434 303.063 801.414C300.249 801.353 297.434 801.373 294.62 801.495C293.147 801.556 289.96 801.028 288.991 802.571C288.003 804.094 289.699 806.003 290.464 807.16C292.309 809.963 294.061 812.948 296.167 815.526C296.167 815.526 296.185 815.527 296.185 815.547C294.974 818.694 293.968 822.126 293.166 825.416C292.756 827.081 291.507 831.081 292.905 832.584C294.117 833.884 297.136 832.828 298.441 832.442C301.553 831.528 304.405 829.842 307.201 828.157C307.294 828.096 307.369 828.015 307.425 827.934C309.829 830.188 312.457 832.198 315.029 834.249C316.613 835.528 319.018 837.803 321.142 836.564C323.044 835.467 322.615 832.564 322.596 830.614Z" fill="url(#paint11_linear)" fill-opacity="0.8"/>
<path d="M365.465 909.809C365.465 906.276 365.558 902.722 365.409 899.189V899.169C365.409 899.169 365.427 899.169 365.427 899.148C367.645 897.036 369.994 895.148 372.361 893.259C373.982 891.96 375.753 890.254 375.585 887.817C375.436 885.543 372.268 885.299 370.627 884.771C367.813 883.837 364.831 882.984 361.867 882.903C361.159 879.695 360.339 876.486 359.239 873.42C358.587 871.633 357.562 867.694 355.53 867.166C353.368 866.597 351.915 869.927 351.02 871.43C349.286 874.354 347.441 877.481 346.267 880.751C346.192 880.669 346.081 880.629 345.932 880.609C343.117 880.548 340.303 880.568 337.488 880.69C336.016 880.751 332.829 880.223 331.86 881.766C330.872 883.289 332.568 885.198 333.332 886.355C335.177 889.157 336.929 892.143 339.035 894.721C339.035 894.721 339.054 894.721 339.054 894.742C337.842 897.889 336.836 901.321 336.035 904.611C335.625 906.276 334.376 910.276 335.774 911.779C336.985 913.078 340.004 912.023 341.309 911.637C344.422 910.723 347.274 909.037 350.069 907.352C350.162 907.291 350.237 907.21 350.293 907.129C352.697 909.383 355.325 911.393 357.897 913.444C359.482 914.723 361.886 916.997 364.011 915.759C365.912 914.662 365.483 911.759 365.465 909.809Z" fill="url(#paint12_linear)" fill-opacity="0.8"/>
<path d="M1042.04 156.442C1042.04 152.909 1042.13 149.355 1041.99 145.822V145.802C1041.99 145.802 1042 145.802 1042 145.781C1044.22 143.67 1046.57 141.781 1048.94 139.893C1050.56 138.593 1052.33 136.887 1052.16 134.451C1052.01 132.176 1048.84 131.933 1047.2 131.405C1044.39 130.47 1041.41 129.618 1038.44 129.536C1037.74 126.328 1036.92 123.12 1035.82 120.053C1035.16 118.266 1034.14 114.327 1032.11 113.799C1029.95 113.23 1028.49 116.561 1027.6 118.063C1025.86 120.987 1024.02 124.115 1022.84 127.384C1022.77 127.303 1022.66 127.262 1022.51 127.242C1019.69 127.181 1016.88 127.201 1014.07 127.323C1012.59 127.384 1009.41 126.856 1008.44 128.399C1007.45 129.922 1009.14 131.831 1009.91 132.988C1011.75 135.791 1013.51 138.776 1015.61 141.355C1015.61 141.355 1015.63 141.355 1015.63 141.375C1014.42 144.522 1013.41 147.954 1012.61 151.244C1012.2 152.909 1010.95 156.909 1012.35 158.412C1013.56 159.712 1016.58 158.656 1017.89 158.27C1021 157.356 1023.85 155.671 1026.65 153.985C1026.74 153.924 1026.81 153.843 1026.87 153.762C1029.27 156.016 1031.9 158.026 1034.47 160.077C1036.06 161.356 1038.46 163.631 1040.59 162.392C1042.49 161.296 1042.06 158.392 1042.04 156.442Z" fill="url(#paint13_linear)" fill-opacity="0.8"/>
<path d="M1355.17 1015.4C1355.17 1011.87 1355.26 1008.32 1355.11 1004.78V1004.76C1355.11 1004.76 1355.13 1004.76 1355.13 1004.74C1357.35 1002.63 1359.7 1000.74 1362.06 998.852C1363.68 997.553 1365.46 995.847 1365.29 993.41C1365.14 991.136 1361.97 990.892 1360.33 990.364C1357.52 989.43 1354.53 988.577 1351.57 988.496C1350.86 985.288 1350.04 982.079 1348.94 979.013C1348.29 977.226 1347.26 973.287 1345.23 972.759C1343.07 972.19 1341.62 975.52 1340.72 977.023C1338.99 979.947 1337.14 983.074 1335.97 986.344C1335.89 986.262 1335.78 986.222 1335.63 986.201C1332.82 986.141 1330.01 986.161 1327.19 986.283C1325.72 986.344 1322.53 985.816 1321.56 987.359C1320.57 988.882 1322.27 990.791 1323.03 991.948C1324.88 994.75 1326.63 997.735 1328.74 1000.31C1328.74 1000.31 1328.76 1000.31 1328.76 1000.33C1327.54 1003.48 1326.54 1006.91 1325.74 1010.2C1325.33 1011.87 1324.08 1015.87 1325.48 1017.37C1326.69 1018.67 1329.71 1017.62 1331.01 1017.23C1334.12 1016.32 1336.98 1014.63 1339.77 1012.94C1339.86 1012.88 1339.94 1012.8 1340 1012.72C1342.4 1014.98 1345.03 1016.99 1347.6 1019.04C1349.18 1020.32 1351.59 1022.59 1353.71 1021.35C1355.61 1020.26 1355.19 1017.35 1355.17 1015.4Z" fill="url(#paint14_linear)" fill-opacity="0.8"/>
<path d="M1286.21 426.517C1286.21 422.984 1286.3 419.43 1286.15 415.897V415.877C1286.15 415.877 1286.17 415.877 1286.17 415.857C1288.39 413.745 1290.73 411.856 1293.1 409.968C1294.72 408.668 1296.49 406.962 1296.33 404.526C1296.18 402.251 1293.01 402.008 1291.37 401.48C1288.55 400.566 1285.57 399.693 1282.61 399.611C1281.9 396.403 1281.08 393.195 1279.98 390.128C1279.33 388.341 1278.3 384.402 1276.27 383.874C1274.11 383.305 1272.65 386.636 1271.76 388.138C1270.03 391.062 1268.18 394.19 1267.01 397.459C1266.93 397.378 1266.82 397.337 1266.67 397.317C1263.86 397.256 1261.04 397.276 1258.23 397.398C1256.76 397.459 1253.57 396.931 1252.6 398.474C1251.61 399.997 1253.31 401.906 1254.07 403.064C1255.92 405.866 1257.67 408.851 1259.78 411.43C1259.78 411.43 1259.79 411.43 1259.79 411.45C1258.58 414.598 1257.58 418.029 1256.77 421.319C1256.36 422.984 1255.12 426.984 1256.51 428.487C1257.73 429.787 1260.74 428.731 1262.05 428.345C1265.16 427.431 1268.01 425.746 1270.81 424.06C1270.9 423.999 1270.98 423.918 1271.03 423.837C1273.44 426.091 1276.07 428.101 1278.64 430.152C1280.22 431.432 1282.63 433.706 1284.75 432.467C1286.65 431.371 1286.22 428.467 1286.21 426.517Z" fill="url(#paint15_linear)" fill-opacity="0.8"/>
<path d="M1424.13 107.707C1424.13 104.174 1424.22 100.62 1424.07 97.0868V97.0665C1424.07 97.0665 1424.09 97.0665 1424.09 97.0462C1426.31 94.9343 1428.66 93.0458 1431.03 91.1574C1432.65 89.8577 1434.42 88.152 1434.25 85.7152C1434.1 83.4409 1430.93 83.1973 1429.29 82.6693C1426.48 81.7352 1423.5 80.8823 1420.53 80.8011C1419.82 77.5927 1419 74.3843 1417.9 71.318C1417.25 69.5311 1416.23 65.5916 1414.2 65.0637C1412.03 64.4951 1410.58 67.8253 1409.68 69.328C1407.95 72.2521 1406.11 75.3793 1404.93 78.6486C1404.86 78.5674 1404.75 78.5268 1404.6 78.5065C1401.78 78.4456 1398.97 78.4659 1396.15 78.5877C1394.68 78.6486 1391.49 78.1207 1390.52 79.6639C1389.54 81.1869 1391.23 83.0957 1392 84.2532C1393.84 87.0555 1395.59 90.0405 1397.7 92.6194C1397.7 92.6194 1397.72 92.6194 1397.72 92.6397C1396.51 95.7872 1395.5 99.219 1394.7 102.509C1394.29 104.174 1393.04 108.174 1394.44 109.677C1395.65 110.976 1398.67 109.92 1399.97 109.535C1403.09 108.621 1405.94 106.935 1408.73 105.25C1408.83 105.189 1408.9 105.108 1408.96 105.027C1411.36 107.281 1413.99 109.291 1416.56 111.342C1418.15 112.621 1420.55 114.896 1422.68 113.657C1424.58 112.56 1424.15 109.656 1424.13 107.707Z" fill="url(#paint16_linear)" fill-opacity="0.8"/>
<path d="M97.071 716.898C97.071 713.365 97.1642 709.811 97.015 706.278V706.258C97.015 706.258 97.0337 706.258 97.0337 706.237C99.2516 704.125 101.6 702.237 103.967 700.349C105.589 699.049 107.359 697.343 107.192 694.906C107.043 692.632 103.874 692.388 102.234 691.86C99.4194 690.926 96.4373 690.073 93.4738 689.992C92.7655 686.784 91.9456 683.575 90.8458 680.509C90.1935 678.722 89.1682 674.783 87.1367 674.255C84.9559 673.686 83.5209 677.017 82.6262 678.519C80.8928 681.443 79.0477 684.57 77.8735 687.84C77.799 687.759 77.687 687.718 77.5378 687.698C74.7235 687.637 71.9091 687.657 69.0947 687.779C67.6223 687.84 64.4351 687.312 63.4659 688.855C62.478 690.378 64.1741 692.287 64.9382 693.444C66.7834 696.247 68.5355 699.232 70.6417 701.81C70.6417 701.81 70.6604 701.811 70.6604 701.831C69.4489 704.978 68.4424 708.41 67.6409 711.7C67.2308 713.365 65.9821 717.365 67.38 718.868C68.5914 720.168 71.611 719.112 72.9156 718.726C76.0283 717.812 78.8798 716.126 81.6755 714.441C81.7688 714.38 81.8433 714.299 81.8992 714.218C84.3036 716.472 86.9316 718.482 89.5038 720.533C91.088 721.812 93.4923 724.087 95.6171 722.848C97.5182 721.751 97.0897 718.848 97.071 716.898Z" fill="url(#paint17_linear)" fill-opacity="0.8"/>
<path d="M1301.12 1035.71C1301.12 1032.18 1301.21 1028.62 1301.06 1025.09V1025.07C1301.06 1025.07 1301.08 1025.07 1301.08 1025.05C1303.3 1022.94 1305.64 1021.05 1308.01 1019.16C1309.63 1017.86 1311.4 1016.15 1311.24 1013.72C1311.09 1011.44 1307.92 1011.2 1306.28 1010.67C1303.46 1009.74 1300.48 1008.88 1297.52 1008.8C1296.81 1005.59 1295.99 1002.39 1294.89 999.32C1294.24 997.533 1293.21 993.593 1291.18 993.065C1289.02 992.497 1287.57 995.827 1286.67 997.33C1284.94 1000.25 1283.09 1003.38 1281.92 1006.65C1281.84 1006.57 1281.73 1006.53 1281.58 1006.51C1278.77 1006.45 1275.95 1006.47 1273.14 1006.59C1271.67 1006.65 1268.48 1006.12 1267.51 1007.67C1266.52 1009.19 1268.22 1011.1 1268.98 1012.25C1270.83 1015.06 1272.58 1018.04 1274.69 1020.62C1274.69 1020.62 1274.7 1020.62 1274.7 1020.64C1273.49 1023.79 1272.49 1027.22 1271.69 1030.51C1271.28 1032.18 1270.03 1036.18 1271.42 1037.68C1272.64 1038.98 1275.66 1037.92 1276.96 1037.54C1280.07 1036.62 1282.92 1034.94 1285.72 1033.25C1285.81 1033.19 1285.89 1033.11 1285.94 1033.03C1288.35 1035.28 1290.98 1037.29 1293.55 1039.34C1295.13 1040.62 1297.54 1042.9 1299.66 1041.66C1301.56 1040.56 1301.13 1037.66 1301.12 1035.71Z" fill="url(#paint18_linear)" fill-opacity="0.8"/>
<path d="M1322.12 434.173C1322.12 431.817 1322.18 429.442 1322.08 427.086V427.066C1322.08 427.066 1322.08 427.066 1322.1 427.066C1323.59 425.665 1325.14 424.406 1326.73 423.126C1327.81 422.253 1328.98 421.116 1328.89 419.491C1328.79 417.968 1326.67 417.826 1325.59 417.461C1323.71 416.852 1321.71 416.263 1319.75 416.202C1319.29 414.07 1318.75 411.917 1318 409.866C1317.57 408.668 1316.88 406.049 1315.52 405.683C1314.07 405.318 1313.12 407.531 1312.52 408.526C1311.37 410.475 1310.14 412.567 1309.35 414.74C1309.3 414.679 1309.22 414.658 1309.13 414.658C1307.25 414.618 1305.37 414.638 1303.5 414.719C1302.51 414.76 1300.39 414.415 1299.74 415.43C1299.08 416.445 1300.2 417.725 1300.71 418.496C1301.94 420.365 1303.11 422.355 1304.51 424.081C1304.51 424.081 1304.51 424.081 1304.53 424.101C1303.73 426.213 1303.05 428.487 1302.51 430.68C1302.23 431.797 1301.4 434.457 1302.35 435.452C1303.17 436.325 1305.16 435.615 1306.04 435.351C1308.11 434.741 1310.01 433.604 1311.89 432.487C1311.94 432.447 1312 432.406 1312.04 432.345C1313.64 433.848 1315.39 435.188 1317.11 436.569C1318.17 437.422 1319.77 438.945 1321.19 438.112C1322.42 437.402 1322.14 435.473 1322.12 434.173Z" fill="url(#paint19_linear)" fill-opacity="0.8"/>
<path d="M1308.35 928.938C1308.35 926.582 1308.4 924.206 1308.31 921.851V921.831C1308.31 921.831 1308.31 921.831 1308.33 921.831C1309.82 920.429 1311.37 919.17 1312.95 917.891C1314.03 917.018 1315.21 915.881 1315.11 914.256C1315.02 912.733 1312.9 912.591 1311.81 912.226C1309.93 911.616 1307.94 911.028 1305.98 910.967C1305.51 908.834 1304.97 906.682 1304.23 904.631C1303.8 903.433 1303.11 900.813 1301.75 900.448C1300.3 900.082 1299.35 902.296 1298.75 903.291C1297.59 905.24 1296.36 907.332 1295.58 909.505C1295.52 909.444 1295.45 909.423 1295.36 909.423C1293.47 909.383 1291.59 909.403 1289.73 909.484C1288.74 909.525 1286.62 909.18 1285.96 910.195C1285.31 911.21 1286.43 912.49 1286.93 913.261C1288.16 915.129 1289.34 917.12 1290.73 918.846C1290.73 918.846 1290.73 918.846 1290.75 918.866C1289.95 920.978 1289.28 923.252 1288.74 925.445C1288.46 926.562 1287.62 929.222 1288.57 930.217C1289.39 931.09 1291.39 930.38 1292.26 930.116C1294.33 929.506 1296.23 928.369 1298.11 927.252C1298.17 927.212 1298.23 927.171 1298.26 927.11C1299.87 928.613 1301.64 929.953 1303.33 931.334C1304.4 932.187 1306 933.71 1307.42 932.877C1308.65 932.166 1308.35 930.217 1308.35 928.938Z" fill="url(#paint20_linear)" fill-opacity="0.8"/>
<path d="M1328.91 197.705C1328.91 195.349 1328.96 192.973 1328.87 190.618V190.597C1328.87 190.597 1328.87 190.597 1328.89 190.597C1330.38 189.196 1331.93 187.937 1333.51 186.658C1334.59 185.785 1335.76 184.648 1335.67 183.023C1335.58 181.5 1333.45 181.358 1332.37 180.993C1330.49 180.383 1328.5 179.794 1326.54 179.734C1326.07 177.601 1325.53 175.449 1324.79 173.398C1324.36 172.2 1323.67 169.58 1322.31 169.215C1320.85 168.849 1319.9 171.063 1319.31 172.058C1318.15 174.007 1316.92 176.099 1316.14 178.271C1316.08 178.211 1316.01 178.19 1315.91 178.19C1314.03 178.15 1312.15 178.17 1310.29 178.251C1309.3 178.292 1307.17 177.947 1306.52 178.962C1305.87 179.977 1306.99 181.257 1307.49 182.028C1308.72 183.896 1309.89 185.886 1311.29 187.612C1311.29 187.612 1311.29 187.612 1311.31 187.633C1310.51 189.745 1309.84 192.019 1309.3 194.212C1309.02 195.329 1308.18 197.989 1309.13 198.984C1309.95 199.857 1311.94 199.146 1312.82 198.882C1314.89 198.273 1316.79 197.136 1318.67 196.019C1318.73 195.979 1318.78 195.938 1318.82 195.877C1320.43 197.38 1322.18 198.72 1323.89 200.101C1324.95 200.954 1326.56 202.477 1327.97 201.644C1329.2 200.933 1328.91 199.004 1328.91 197.705Z" fill="url(#paint21_linear)" fill-opacity="0.8"/>
<path d="M152.819 932.796C152.819 930.44 152.875 928.064 152.781 925.709V925.688C152.781 925.688 152.781 925.688 152.8 925.688C154.291 924.287 155.838 923.028 157.422 921.749C158.503 920.876 159.677 919.739 159.584 918.114C159.491 916.591 157.366 916.449 156.285 916.083C154.403 915.474 152.409 914.885 150.452 914.824C149.986 912.692 149.445 910.54 148.699 908.489C148.271 907.291 147.581 904.671 146.22 904.306C144.767 903.94 143.816 906.154 143.22 907.149C142.064 909.098 140.834 911.19 140.051 913.362C139.995 913.301 139.921 913.281 139.828 913.281C137.945 913.241 136.063 913.261 134.199 913.342C133.211 913.383 131.086 913.037 130.434 914.053C129.781 915.068 130.9 916.347 131.403 917.119C132.633 918.987 133.807 920.977 135.205 922.703C135.205 922.703 135.205 922.703 135.224 922.724C134.422 924.835 133.751 927.11 133.211 929.303C132.931 930.42 132.093 933.08 133.043 934.075C133.863 934.948 135.858 934.237 136.734 933.973C138.802 933.364 140.703 932.227 142.586 931.11C142.642 931.07 142.698 931.029 142.735 930.968C144.338 932.471 146.09 933.811 147.805 935.192C148.867 936.045 150.47 937.568 151.887 936.735C153.117 936.024 152.819 934.095 152.819 932.796Z" fill="url(#paint22_linear)" fill-opacity="0.8"/>
<path d="M973.675 306.1C973.675 303.745 973.731 301.369 973.638 299.013V298.993C973.638 298.993 973.638 298.993 973.657 298.993C975.148 297.592 976.695 296.333 978.279 295.054C979.36 294.18 980.534 293.043 980.441 291.419C980.348 289.896 978.223 289.754 977.142 289.388C975.259 288.779 973.265 288.19 971.308 288.129C970.842 285.997 970.302 283.845 969.556 281.794C969.127 280.595 968.438 277.976 967.077 277.61C965.623 277.245 964.673 279.458 964.076 280.453C962.921 282.403 961.691 284.494 960.908 286.667C960.852 286.606 960.777 286.586 960.684 286.586C958.802 286.545 956.919 286.566 955.055 286.647C954.067 286.687 951.943 286.342 951.29 287.358C950.638 288.373 951.756 289.652 952.26 290.424C953.49 292.292 954.664 294.282 956.062 296.008C956.062 296.008 956.062 296.008 956.081 296.028C955.279 298.14 954.608 300.415 954.068 302.608C953.788 303.724 952.949 306.385 953.9 307.38C954.72 308.253 956.714 307.542 957.59 307.278C959.659 306.669 961.56 305.532 963.443 304.415C963.499 304.374 963.554 304.334 963.592 304.273C965.195 305.775 966.947 307.116 968.661 308.496C969.724 309.349 971.327 310.872 972.743 310.04C973.973 309.329 973.694 307.4 973.675 306.1Z" fill="url(#paint23_linear)" fill-opacity="0.8"/>
<path d="M1289.78 496.209C1289.78 493.853 1289.84 491.477 1289.75 489.122V489.101C1289.75 489.101 1289.75 489.101 1289.76 489.101C1291.26 487.7 1292.8 486.441 1294.39 485.162C1295.47 484.289 1296.64 483.152 1296.55 481.527C1296.46 480.004 1294.33 479.862 1293.25 479.496C1291.37 478.887 1289.37 478.298 1287.42 478.237C1286.95 476.105 1286.41 473.953 1285.66 471.902C1285.24 470.704 1284.55 468.084 1283.19 467.719C1281.73 467.353 1280.78 469.567 1280.18 470.562C1279.03 472.511 1277.8 474.603 1277.02 476.775C1276.96 476.714 1276.89 476.694 1276.79 476.694C1274.91 476.654 1273.03 476.674 1271.16 476.755C1270.18 476.796 1268.05 476.451 1267.4 477.466C1266.75 478.481 1267.86 479.76 1268.37 480.532C1269.6 482.4 1270.77 484.39 1272.17 486.116C1272.17 486.116 1272.17 486.116 1272.19 486.137C1271.39 488.248 1270.72 490.523 1270.18 492.716C1269.9 493.833 1269.06 496.493 1270.01 497.488C1270.83 498.361 1272.82 497.65 1273.7 497.386C1275.77 496.777 1277.67 495.64 1279.55 494.523C1279.61 494.483 1279.66 494.442 1279.7 494.381C1281.3 495.884 1283.05 497.224 1284.77 498.605C1285.83 499.458 1287.43 500.981 1288.85 500.148C1290.06 499.437 1289.78 497.508 1289.78 496.209Z" fill="url(#paint24_linear)" fill-opacity="0.8"/>
<path d="M203.161 232.226C203.161 229.87 203.217 227.495 203.124 225.139V225.119C203.124 225.119 203.124 225.119 203.142 225.119C204.633 223.718 206.181 222.459 207.765 221.179C208.846 220.306 210.02 219.169 209.927 217.544C209.834 216.021 207.709 215.879 206.628 215.514C204.745 214.905 202.751 214.316 200.794 214.255C200.328 212.123 199.787 209.97 199.042 207.919C198.613 206.721 197.924 204.102 196.563 203.736C195.109 203.371 194.159 205.584 193.562 206.579C192.407 208.528 191.177 210.62 190.394 212.793C190.338 212.732 190.263 212.711 190.17 212.711C188.288 212.671 186.405 212.691 184.541 212.772C183.553 212.813 181.429 212.468 180.776 213.483C180.124 214.498 181.242 215.778 181.746 216.549C182.976 218.418 184.15 220.408 185.548 222.134C185.548 222.134 185.548 222.134 185.566 222.154C184.765 224.266 184.094 226.54 183.553 228.733C183.274 229.85 182.435 232.51 183.386 233.505C184.206 234.378 186.2 233.668 187.076 233.404C189.145 232.794 191.046 231.657 192.929 230.54C192.984 230.5 193.04 230.459 193.078 230.398C194.681 231.901 196.451 233.241 198.147 234.622C199.21 235.475 200.813 236.998 202.229 236.165C203.441 235.455 203.161 233.525 203.161 232.226Z" fill="url(#paint25_linear)" fill-opacity="0.8"/>
<path d="M166.686 206.741C166.686 204.386 166.742 202.01 166.649 199.655V199.634C166.649 199.634 166.648 199.634 166.667 199.634C168.158 198.233 169.705 196.974 171.289 195.695C172.37 194.822 173.545 193.684 173.452 192.06C173.358 190.537 171.234 190.395 170.152 190.029C168.27 189.42 166.276 188.831 164.319 188.77C163.853 186.638 163.312 184.486 162.567 182.435C162.138 181.237 161.448 178.617 160.088 178.252C158.634 177.886 157.683 180.1 157.087 181.095C155.931 183.044 154.701 185.135 153.918 187.308C153.863 187.247 153.788 187.227 153.695 187.227C151.812 187.186 149.93 187.207 148.066 187.288C147.078 187.329 144.953 186.983 144.301 187.999C143.649 189.014 144.767 190.293 145.27 191.065C146.5 192.933 147.675 194.923 149.072 196.649C149.072 196.649 149.072 196.649 149.091 196.67C148.29 198.781 147.619 201.056 147.078 203.249C146.799 204.366 145.96 207.026 146.91 208.021C147.73 208.894 149.725 208.183 150.601 207.919C152.67 207.31 154.571 206.173 156.453 205.056C156.509 205.015 156.565 204.975 156.602 204.914C158.205 206.417 159.976 207.757 161.672 209.138C162.734 209.99 164.337 211.513 165.754 210.681C166.984 209.97 166.686 208.041 166.686 206.741Z" fill="url(#paint26_linear)" fill-opacity="0.8"/>
<path d="M174.905 323.706C174.905 321.35 174.961 318.974 174.868 316.619V316.599C174.868 316.599 174.868 316.599 174.886 316.599C176.377 315.197 177.925 313.938 179.509 312.659C180.59 311.786 181.764 310.649 181.671 309.024C181.578 307.501 179.453 307.359 178.372 306.994C176.489 306.384 174.495 305.796 172.538 305.735C172.072 303.603 171.531 301.45 170.786 299.399C170.357 298.201 169.668 295.581 168.307 295.216C166.853 294.85 165.903 297.064 165.306 298.059C164.151 300.008 162.921 302.1 162.138 304.273C162.082 304.212 162.007 304.191 161.914 304.191C160.032 304.151 158.149 304.171 156.285 304.252C155.297 304.293 153.173 303.948 152.52 304.963C151.868 305.978 152.986 307.258 153.49 308.029C154.72 309.897 155.894 311.888 157.292 313.614C157.292 313.614 157.292 313.613 157.31 313.634C156.509 315.746 155.838 318.02 155.297 320.213C155.018 321.33 154.179 323.99 155.13 324.985C155.95 325.858 157.944 325.148 158.82 324.884C160.889 324.274 162.79 323.137 164.673 322.02C164.729 321.98 164.784 321.939 164.822 321.878C166.425 323.381 168.195 324.721 169.891 326.102C170.954 326.955 172.557 328.478 173.973 327.645C175.203 326.935 174.905 325.005 174.905 323.706Z" fill="url(#paint27_linear)" fill-opacity="0.8"/>
<path d="M654.156 163.246C643.439 163.246 643.42 181.379 654.156 181.379C664.873 181.379 664.891 163.246 654.156 163.246Z" fill="url(#paint28_linear)" fill-opacity="0.8"/>
<path d="M251.565 638.414C240.848 638.414 240.829 656.548 251.565 656.548C262.282 656.548 262.3 638.414 251.565 638.414Z" fill="url(#paint29_linear)" fill-opacity="0.8"/>
<path d="M780.897 999.868C770.18 999.868 770.162 1018 780.897 1018C791.615 1018 791.633 999.868 780.897 999.868Z" fill="url(#paint30_linear)" fill-opacity="0.8"/>
<path d="M1317.69 664.813C1306.97 664.813 1306.95 682.946 1317.69 682.946C1328.4 682.946 1328.42 664.813 1317.69 664.813Z" fill="url(#paint31_linear)" fill-opacity="0.8"/>
<path d="M984.057 492.209C973.34 492.209 973.321 510.342 984.057 510.342C994.774 510.342 994.792 492.209 984.057 492.209Z" fill="url(#paint32_linear)" fill-opacity="0.8"/>
<path d="M1272.95 79.9892C1262.24 79.9892 1262.22 98.1228 1272.95 98.1228C1283.67 98.1228 1283.69 79.9892 1272.95 79.9892Z" fill="url(#paint33_linear)" fill-opacity="0.8"/>
<path d="M216.152 98.2649C205.435 98.2649 205.416 116.398 216.152 116.398C226.869 116.398 226.888 98.2649 216.152 98.2649Z" fill="url(#paint34_linear)" fill-opacity="0.8"/>
<path d="M76.3632 490.178C65.646 490.178 65.6274 508.311 76.3632 508.311C87.0802 508.311 87.0989 490.178 76.3632 490.178Z" fill="url(#paint35_linear)" fill-opacity="0.8"/>
<path d="M393.218 95.3001C371.802 95.3001 371.765 131.567 393.218 131.567C414.633 131.567 414.671 95.3001 393.218 95.3001Z" fill="url(#paint36_linear)" fill-opacity="0.8"/>
<path d="M443.541 773.533C422.126 773.533 422.089 809.8 443.541 809.8C464.957 809.8 464.994 773.533 443.541 773.533Z" fill="url(#paint37_linear)" fill-opacity="0.8"/>
<path d="M147.19 1041.58C125.774 1041.58 125.737 1077.84 147.19 1077.84C168.606 1077.84 168.643 1041.58 147.19 1041.58Z" fill="url(#paint38_linear)" fill-opacity="0.8"/>
<path d="M1423.92 739.012C1402.51 739.012 1402.47 775.279 1423.92 775.279C1445.34 775.279 1445.38 739.012 1423.92 739.012Z" fill="url(#paint39_linear)" fill-opacity="0.8"/>
<path d="M1151.8 607.02C1130.39 607.02 1130.35 643.288 1151.8 643.288C1173.22 643.288 1173.26 607.02 1151.8 607.02Z" fill="url(#paint40_linear)" fill-opacity="0.8"/>
<path d="M838.677 16.1052C817.261 16.1052 817.224 52.3724 838.677 52.3724C860.092 52.3724 860.13 16.1052 838.677 16.1052Z" fill="url(#paint41_linear)" fill-opacity="0.8"/>
<path d="M833.085 168.403C811.669 168.403 811.632 204.67 833.085 204.67C854.501 204.67 854.538 168.403 833.085 168.403Z" fill="url(#paint42_linear)" fill-opacity="0.8"/>
<path d="M279.523 460.815C258.108 460.815 258.07 497.082 279.523 497.082C300.939 497.082 300.976 460.815 279.523 460.815Z" fill="url(#paint43_linear)" fill-opacity="0.8"/>
<path d="M618.743 833.599C610.71 833.599 610.691 847.204 618.743 847.204C626.776 847.184 626.795 833.599 618.743 833.599Z" fill="url(#paint44_linear)" fill-opacity="0.8"/>
<path d="M514.367 902.641C506.334 902.641 506.315 916.246 514.367 916.246C522.4 916.226 522.419 902.641 514.367 902.641Z" fill="url(#paint45_linear)" fill-opacity="0.8"/>
<path d="M389.49 604.137C381.457 604.137 381.438 617.742 389.49 617.742C397.523 617.722 397.542 604.137 389.49 604.137Z" fill="url(#paint46_linear)" fill-opacity="0.8"/>
<path d="M779.034 106.631C771 106.631 770.982 120.236 779.034 120.236C787.067 120.216 787.085 106.631 779.034 106.631Z" fill="url(#paint47_linear)" fill-opacity="0.8"/>
<path d="M1114.53 466.054C1106.49 466.054 1106.47 479.659 1114.53 479.659C1122.56 479.639 1122.58 466.054 1114.53 466.054Z" fill="url(#paint48_linear)" fill-opacity="0.8"/>
<path d="M1205.85 910.764C1197.82 910.764 1197.8 924.369 1205.85 924.369C1213.89 924.349 1213.91 910.764 1205.85 910.764Z" fill="url(#paint49_linear)" fill-opacity="0.8"/>
<path d="M1021.33 900.61C1013.3 900.61 1013.28 914.215 1021.33 914.215C1029.37 914.195 1029.39 900.61 1021.33 900.61Z" fill="url(#paint50_linear)" fill-opacity="0.8"/>
<path d="M1084.7 987.928C1076.67 987.928 1076.65 1001.53 1084.7 1001.53C1092.74 1001.51 1092.76 987.928 1084.7 987.928Z" fill="url(#paint51_linear)" fill-opacity="0.8"/>
<path d="M654.156 1016.36C646.123 1016.36 646.104 1029.96 654.156 1029.96C662.189 1029.94 662.208 1016.36 654.156 1016.36Z" fill="url(#paint52_linear)" fill-opacity="0.8"/>
</g>
</mask>
<g mask="url(#mask0)">
<g opacity="0.5">
<rect x="-88.3833" width="1616.77" height="1077.84" fill="url(#paint53_linear)"/>
<rect x="-88.3833" width="1616.77" height="1077.84" fill="url(#paint54_linear)"/>
</g>
</g>
<defs>
<linearGradient id="paint0_linear" x1="1440" y1="538.922" x2="0.000171661" y2="538.922" gradientUnits="userSpaceOnUse">
<stop stop-color="white"/>
<stop offset="1" stop-color="#FEE140"/>
</linearGradient>
<linearGradient id="paint1_linear" x1="1440" y1="538.922" x2="0.000171661" y2="538.922" gradientUnits="userSpaceOnUse">
<stop stop-color="white"/>
<stop offset="1" stop-color="#FEE140"/>
</linearGradient>
<linearGradient id="paint2_linear" x1="1440" y1="538.922" x2="0.000171661" y2="538.922" gradientUnits="userSpaceOnUse">
<stop stop-color="white"/>
<stop offset="1" stop-color="#FEE140"/>
</linearGradient>
<linearGradient id="paint3_linear" x1="1440" y1="538.922" x2="0.000171661" y2="538.922" gradientUnits="userSpaceOnUse">
<stop stop-color="white"/>
<stop offset="1" stop-color="#FEE140"/>
</linearGradient>
<linearGradient id="paint4_linear" x1="1440" y1="538.922" x2="0.000171661" y2="538.922" gradientUnits="userSpaceOnUse">
<stop stop-color="white"/>
<stop offset="1" stop-color="#FEE140"/>
</linearGradient>
<linearGradient id="paint5_linear" x1="1440" y1="538.922" x2="0.000171661" y2="538.922" gradientUnits="userSpaceOnUse">
<stop stop-color="white"/>
<stop offset="1" stop-color="#FEE140"/>
</linearGradient>
<linearGradient id="paint6_linear" x1="1440" y1="538.922" x2="0.000171661" y2="538.922" gradientUnits="userSpaceOnUse">
<stop stop-color="white"/>
<stop offset="1" stop-color="#FEE140"/>
</linearGradient>
<linearGradient id="paint7_linear" x1="1440" y1="538.922" x2="0.000171661" y2="538.922" gradientUnits="userSpaceOnUse">
<stop stop-color="white"/>
<stop offset="1" stop-color="#FEE140"/>
</linearGradient>
<linearGradient id="paint8_linear" x1="1440" y1="538.922" x2="0.000171661" y2="538.922" gradientUnits="userSpaceOnUse">
<stop stop-color="white"/>
<stop offset="1" stop-color="#FEE140"/>
</linearGradient>
<linearGradient id="paint9_linear" x1="1440" y1="538.922" x2="0.000171661" y2="538.922" gradientUnits="userSpaceOnUse">
<stop stop-color="white"/>
<stop offset="1" stop-color="#FEE140"/>
</linearGradient>
<linearGradient id="paint10_linear" x1="1440" y1="538.922" x2="0.000171661" y2="538.922" gradientUnits="userSpaceOnUse">
<stop stop-color="white"/>
<stop offset="1" stop-color="#FEE140"/>
</linearGradient>
<linearGradient id="paint11_linear" x1="1440" y1="538.922" x2="0.000171661" y2="538.922" gradientUnits="userSpaceOnUse">
<stop stop-color="white"/>
<stop offset="1" stop-color="#FEE140"/>
</linearGradient>
<linearGradient id="paint12_linear" x1="1440" y1="538.922" x2="0.000171661" y2="538.922" gradientUnits="userSpaceOnUse">
<stop stop-color="white"/>
<stop offset="1" stop-color="#FEE140"/>
</linearGradient>
<linearGradient id="paint13_linear" x1="1440" y1="538.922" x2="0.000171661" y2="538.922" gradientUnits="userSpaceOnUse">
<stop stop-color="white"/>
<stop offset="1" stop-color="#FEE140"/>
</linearGradient>
<linearGradient id="paint14_linear" x1="1440" y1="538.922" x2="0.000171661" y2="538.922" gradientUnits="userSpaceOnUse">
<stop stop-color="white"/>
<stop offset="1" stop-color="#FEE140"/>
</linearGradient>
<linearGradient id="paint15_linear" x1="1440" y1="538.922" x2="0.000171661" y2="538.922" gradientUnits="userSpaceOnUse">
<stop stop-color="white"/>
<stop offset="1" stop-color="#FEE140"/>
</linearGradient>
<linearGradient id="paint16_linear" x1="1440" y1="538.922" x2="0.000171661" y2="538.922" gradientUnits="userSpaceOnUse">
<stop stop-color="white"/>
<stop offset="1" stop-color="#FEE140"/>
</linearGradient>
<linearGradient id="paint17_linear" x1="1440" y1="538.922" x2="0.000171661" y2="538.922" gradientUnits="userSpaceOnUse">
<stop stop-color="white"/>
<stop offset="1" stop-color="#FEE140"/>
</linearGradient>
<linearGradient id="paint18_linear" x1="1440" y1="538.922" x2="0.000171661" y2="538.922" gradientUnits="userSpaceOnUse">
<stop stop-color="white"/>
<stop offset="1" stop-color="#FEE140"/>
</linearGradient>
<linearGradient id="paint19_linear" x1="1440" y1="538.922" x2="0.000171661" y2="538.922" gradientUnits="userSpaceOnUse">
<stop stop-color="white"/>
<stop offset="1" stop-color="#FEE140"/>
</linearGradient>
<linearGradient id="paint20_linear" x1="1440" y1="538.922" x2="0.000171661" y2="538.922" gradientUnits="userSpaceOnUse">
<stop stop-color="white"/>
<stop offset="1" stop-color="#FEE140"/>
</linearGradient>
<linearGradient id="paint21_linear" x1="1440" y1="538.922" x2="0.000171661" y2="538.922" gradientUnits="userSpaceOnUse">
<stop stop-color="white"/>
<stop offset="1" stop-color="#FEE140"/>
</linearGradient>
<linearGradient id="paint22_linear" x1="1440" y1="538.922" x2="0.000171661" y2="538.922" gradientUnits="userSpaceOnUse">
<stop stop-color="white"/>
<stop offset="1" stop-color="#FEE140"/>
</linearGradient>
<linearGradient id="paint23_linear" x1="1440" y1="538.922" x2="0.000171661" y2="538.922" gradientUnits="userSpaceOnUse">
<stop stop-color="white"/>
<stop offset="1" stop-color="#FEE140"/>
</linearGradient>
<linearGradient id="paint24_linear" x1="1440" y1="538.922" x2="0.000171661" y2="538.922" gradientUnits="userSpaceOnUse">
<stop stop-color="white"/>
<stop offset="1" stop-color="#FEE140"/>
</linearGradient>
<linearGradient id="paint25_linear" x1="1440" y1="538.922" x2="0.000171661" y2="538.922" gradientUnits="userSpaceOnUse">
<stop stop-color="white"/>
<stop offset="1" stop-color="#FEE140"/>
</linearGradient>
<linearGradient id="paint26_linear" x1="1440" y1="538.922" x2="0.000171661" y2="538.922" gradientUnits="userSpaceOnUse">
<stop stop-color="white"/>
<stop offset="1" stop-color="#FEE140"/>
</linearGradient>
<linearGradient id="paint27_linear" x1="1440" y1="538.922" x2="0.000171661" y2="538.922" gradientUnits="userSpaceOnUse">
<stop stop-color="white"/>
<stop offset="1" stop-color="#FEE140"/>
</linearGradient>
<linearGradient id="paint28_linear" x1="1440" y1="538.922" x2="0.000171661" y2="538.922" gradientUnits="userSpaceOnUse">
<stop stop-color="white"/>
<stop offset="1" stop-color="#FEE140"/>
</linearGradient>
<linearGradient id="paint29_linear" x1="1440" y1="538.922" x2="0.000171661" y2="538.922" gradientUnits="userSpaceOnUse">
<stop stop-color="white"/>
<stop offset="1" stop-color="#FEE140"/>
</linearGradient>
<linearGradient id="paint30_linear" x1="1440" y1="538.922" x2="0.000171661" y2="538.922" gradientUnits="userSpaceOnUse">
<stop stop-color="white"/>
<stop offset="1" stop-color="#FEE140"/>
</linearGradient>
<linearGradient id="paint31_linear" x1="1440" y1="538.922" x2="0.000171661" y2="538.922" gradientUnits="userSpaceOnUse">
<stop stop-color="white"/>
<stop offset="1" stop-color="#FEE140"/>
</linearGradient>
<linearGradient id="paint32_linear" x1="1440" y1="538.922" x2="0.000171661" y2="538.922" gradientUnits="userSpaceOnUse">
<stop stop-color="white"/>
<stop offset="1" stop-color="#FEE140"/>
</linearGradient>
<linearGradient id="paint33_linear" x1="1440" y1="538.922" x2="0.000171661" y2="538.922" gradientUnits="userSpaceOnUse">
<stop stop-color="white"/>
<stop offset="1" stop-color="#FEE140"/>
</linearGradient>
<linearGradient id="paint34_linear" x1="1440" y1="538.922" x2="0.000171661" y2="538.922" gradientUnits="userSpaceOnUse">
<stop stop-color="white"/>
<stop offset="1" stop-color="#FEE140"/>
</linearGradient>
<linearGradient id="paint35_linear" x1="1440" y1="538.922" x2="0.000171661" y2="538.922" gradientUnits="userSpaceOnUse">
<stop stop-color="white"/>
<stop offset="1" stop-color="#FEE140"/>
</linearGradient>
<linearGradient id="paint36_linear" x1="1440" y1="538.922" x2="0.000171661" y2="538.922" gradientUnits="userSpaceOnUse">
<stop stop-color="white"/>
<stop offset="1" stop-color="#FEE140"/>
</linearGradient>
<linearGradient id="paint37_linear" x1="1440" y1="538.922" x2="0.000171661" y2="538.922" gradientUnits="userSpaceOnUse">
<stop stop-color="white"/>
<stop offset="1" stop-color="#FEE140"/>
</linearGradient>
<linearGradient id="paint38_linear" x1="1440" y1="538.922" x2="0.000171661" y2="538.922" gradientUnits="userSpaceOnUse">
<stop stop-color="white"/>
<stop offset="1" stop-color="#FEE140"/>
</linearGradient>
<linearGradient id="paint39_linear" x1="1440" y1="538.922" x2="0.000171661" y2="538.922" gradientUnits="userSpaceOnUse">
<stop stop-color="white"/>
<stop offset="1" stop-color="#FEE140"/>
</linearGradient>
<linearGradient id="paint40_linear" x1="1440" y1="538.922" x2="0.000171661" y2="538.922" gradientUnits="userSpaceOnUse">
<stop stop-color="white"/>
<stop offset="1" stop-color="#FEE140"/>
</linearGradient>
<linearGradient id="paint41_linear" x1="1440" y1="538.922" x2="0.000171661" y2="538.922" gradientUnits="userSpaceOnUse">
<stop stop-color="white"/>
<stop offset="1" stop-color="#FEE140"/>
</linearGradient>
<linearGradient id="paint42_linear" x1="1440" y1="538.922" x2="0.000171661" y2="538.922" gradientUnits="userSpaceOnUse">
<stop stop-color="white"/>
<stop offset="1" stop-color="#FEE140"/>
</linearGradient>
<linearGradient id="paint43_linear" x1="1440" y1="538.922" x2="0.000171661" y2="538.922" gradientUnits="userSpaceOnUse">
<stop stop-color="white"/>
<stop offset="1" stop-color="#FEE140"/>
</linearGradient>
<linearGradient id="paint44_linear" x1="1440" y1="538.922" x2="0.000171661" y2="538.922" gradientUnits="userSpaceOnUse">
<stop stop-color="white"/>
<stop offset="1" stop-color="#FEE140"/>
</linearGradient>
<linearGradient id="paint45_linear" x1="1440" y1="538.922" x2="0.000171661" y2="538.922" gradientUnits="userSpaceOnUse">
<stop stop-color="white"/>
<stop offset="1" stop-color="#FEE140"/>
</linearGradient>
<linearGradient id="paint46_linear" x1="1440" y1="538.922" x2="0.000171661" y2="538.922" gradientUnits="userSpaceOnUse">
<stop stop-color="white"/>
<stop offset="1" stop-color="#FEE140"/>
</linearGradient>
<linearGradient id="paint47_linear" x1="1440" y1="538.922" x2="0.000171661" y2="538.922" gradientUnits="userSpaceOnUse">
<stop stop-color="white"/>
<stop offset="1" stop-color="#FEE140"/>
</linearGradient>
<linearGradient id="paint48_linear" x1="1440" y1="538.922" x2="0.000171661" y2="538.922" gradientUnits="userSpaceOnUse">
<stop stop-color="white"/>
<stop offset="1" stop-color="#FEE140"/>
</linearGradient>
<linearGradient id="paint49_linear" x1="1440" y1="538.922" x2="0.000171661" y2="538.922" gradientUnits="userSpaceOnUse">
<stop stop-color="white"/>
<stop offset="1" stop-color="#FEE140"/>
</linearGradient>
<linearGradient id="paint50_linear" x1="1440" y1="538.922" x2="0.000171661" y2="538.922" gradientUnits="userSpaceOnUse">
<stop stop-color="white"/>
<stop offset="1" stop-color="#FEE140"/>
</linearGradient>
<linearGradient id="paint51_linear" x1="1440" y1="538.922" x2="0.000171661" y2="538.922" gradientUnits="userSpaceOnUse">
<stop stop-color="white"/>
<stop offset="1" stop-color="#FEE140"/>
</linearGradient>
<linearGradient id="paint52_linear" x1="1440" y1="538.922" x2="0.000171661" y2="538.922" gradientUnits="userSpaceOnUse">
<stop stop-color="white"/>
<stop offset="1" stop-color="#FEE140"/>
</linearGradient>
<linearGradient id="paint53_linear" x1="720" y1="0" x2="720" y2="1077.84" gradientUnits="userSpaceOnUse">
<stop stop-color="#FF5858"/>
<stop offset="0.421875" stop-color="#FEC940"/>
<stop offset="1" stop-color="#F09819"/>
</linearGradient>
<linearGradient id="paint54_linear" x1="720" y1="0" x2="720" y2="1077.84" gradientUnits="userSpaceOnUse">
<stop stop-color="#FF5858"/>
<stop offset="1" stop-color="#F09819"/>
<stop offset="1" stop-color="#FEE140"/>
</linearGradient>
</defs>
</svg>
