<svg width="150" height="730" viewBox="0 0 150 730" fill="none" xmlns="http://www.w3.org/2000/svg">
<g opacity="0.1">
<path d="M263.506 579.477C264.526 578.045 265.235 577.027 266.723 576.142C268.071 575.332 269.662 574.88 271.201 574.955C274.919 575.143 278.274 577.668 279.329 581.643C280.228 585.015 279.26 588.783 276.89 591.176C275.23 592.834 273.294 593.719 271.046 593.851C270.233 593.908 269.403 593.814 268.642 593.569C267.103 593.098 266.429 592.438 265.218 591.383C264.855 590.856 264.475 590.347 264.111 589.82C263.593 588.934 263.316 587.973 263.281 586.956C263.264 586.881 263.281 586.805 263.264 586.749C263.074 586.334 262.901 585.882 262.814 585.43C262.399 583.546 262.382 581.078 263.506 579.477Z" fill="url(#paint0_linear)" fill-opacity="0.8"/>
<path d="M290.171 420.845C296.846 409.24 303.227 397.352 310.334 386.086C310.351 386.067 310.368 386.048 310.386 386.01C310.386 385.991 310.368 385.973 310.351 385.935C307.014 374.047 302.881 362.649 298.679 351.119C295.791 343.187 293.197 333.673 298.298 326.024C303.054 318.884 313.931 325.214 320.277 327.079C331.275 330.339 342.671 334.163 352.562 340.456C360.879 331.488 369.629 322.746 379.019 315.135C384.501 310.689 395.257 300.044 402.934 302.851C411.131 305.847 409.609 319.996 409.696 326.91C409.851 340.38 410.059 354.774 407.794 368.112C408.209 368.037 408.676 368.131 409.177 368.452C418.532 374.537 427.749 380.886 436.741 387.593C441.479 391.116 452.892 396.448 453.238 403.682C453.584 410.879 444.471 413.403 439.802 415.495C428.441 420.581 417.114 426.459 405.321 430.265C405.286 430.284 405.252 430.265 405.234 430.265C403.263 443.302 400.15 456.791 396.623 469.414C394.842 475.782 391.47 491.702 383.999 493.51C377.567 495.055 369.681 484.9 366.102 480.718C357.594 470.771 351.421 458.864 345.368 447.07C345.161 446.656 345.074 446.26 345.057 445.864C332.883 447.899 320.502 448.615 308.224 449.67C300.65 450.329 288.442 452.439 283.807 443.679C279.623 435.785 286.505 427.232 290.171 420.845Z" fill="url(#paint1_linear)" fill-opacity="0.8"/>
<path d="M-223.412 727.934C-216.737 716.329 -210.356 704.441 -203.249 693.175C-203.232 693.156 -203.214 693.137 -203.197 693.099C-203.197 693.081 -203.214 693.062 -203.232 693.024C-206.569 681.136 -210.702 669.738 -214.904 658.208C-217.792 650.277 -220.386 640.762 -215.284 633.113C-210.529 625.973 -199.652 632.303 -193.306 634.168C-182.308 637.428 -170.912 641.252 -161.021 647.545C-152.703 638.577 -143.953 629.835 -134.564 622.224C-129.082 617.778 -118.309 607.133 -110.648 609.941C-102.452 612.936 -103.974 627.085 -103.887 633.999C-103.731 647.469 -103.524 661.863 -105.789 675.202C-105.374 675.126 -104.907 675.22 -104.406 675.541C-95.0506 681.626 -85.8338 687.975 -76.8418 694.682C-72.1036 698.205 -60.6908 703.537 -60.3449 710.771C-59.9991 717.949 -69.1121 720.493 -73.781 722.584C-85.1421 727.67 -96.4686 733.549 -108.262 737.354C-108.297 737.373 -108.331 737.354 -108.349 737.354C-110.32 750.391 -113.432 763.881 -116.96 776.503C-118.741 782.871 -122.113 798.791 -129.583 800.599C-136.016 802.144 -143.902 791.99 -147.481 787.807C-155.989 777.86 -162.162 765.953 -168.215 754.159C-168.422 753.745 -168.509 753.349 -168.526 752.953C-180.7 754.988 -193.081 755.704 -205.359 756.759C-212.933 757.419 -225.141 759.529 -229.775 750.768C-233.96 742.874 -227.078 734.321 -223.412 727.934Z" fill="url(#paint2_linear)" fill-opacity="0.8"/>
<path d="M330.912 277.248C329.719 268.582 328.266 259.916 327.419 251.212C327.419 251.193 327.419 251.174 327.419 251.155C327.402 251.155 327.384 251.136 327.384 251.136C321.228 246.879 314.847 243.224 308.397 239.531C303.97 236.988 299.077 233.54 298.627 227.511C298.212 221.878 305.907 220.013 309.694 218.054C316.283 214.644 323.269 211.328 330.48 209.896C331.102 201.757 332.001 193.562 333.644 185.593C334.613 180.939 335.771 170.898 340.561 168.769C345.68 166.508 350.348 174.063 353.046 177.378C358.268 183.859 363.871 190.755 367.866 198.253C368.039 198.027 368.298 197.857 368.661 197.782C375.526 196.501 382.426 195.408 389.36 194.56C393.009 194.127 400.583 191.546 403.523 194.881C406.445 198.215 402.986 203.585 401.517 206.712C397.937 214.342 394.686 222.33 390.415 229.527C390.398 229.546 390.38 229.565 390.38 229.565C394.409 236.799 398.058 244.75 401.153 252.493C402.727 256.393 407.171 265.662 404.232 269.92C401.69 273.593 393.977 272.237 390.64 271.822C382.703 270.862 375.163 267.866 367.71 264.889C367.451 264.795 367.26 264.626 367.087 264.437C361.952 270.956 356.211 276.909 350.66 282.994C347.236 286.744 342.117 293.3 336.515 291.171C331.5 289.287 331.569 282.015 330.912 277.248Z" fill="url(#paint3_linear)" fill-opacity="0.8"/>
<path d="M-39.1448 797.227C-40.338 788.561 -41.7905 779.894 -42.6378 771.19C-42.6378 771.172 -42.6378 771.153 -42.6378 771.134C-42.6551 771.134 -42.6724 771.115 -42.6724 771.115C-48.8285 766.857 -55.2093 763.202 -61.6594 759.51C-66.0862 756.967 -70.98 753.519 -71.4296 747.49C-71.8446 741.857 -64.1495 739.992 -60.3625 738.032C-53.7741 734.622 -46.788 731.307 -39.5771 729.875C-38.9546 721.736 -38.0553 713.541 -36.4126 705.572C-35.4442 700.918 -34.2856 690.876 -29.4956 688.748C-24.3771 686.487 -19.7082 694.042 -17.0106 697.357C-11.7883 703.838 -6.18554 710.734 -2.191 718.232C-2.01808 718.006 -1.75864 717.836 -1.3955 717.761C5.46956 716.48 12.3692 715.387 19.3034 714.539C22.9521 714.106 30.5261 711.525 33.4658 714.859C36.3882 718.194 32.9297 723.564 31.4599 726.691C27.8804 734.321 24.6295 742.309 20.3583 749.506C20.341 749.525 20.3237 749.544 20.3237 749.544C24.3528 756.778 28.0014 764.728 31.0967 772.472C32.6703 776.371 37.1145 785.641 34.1748 789.898C31.6328 793.572 23.9204 792.216 20.583 791.801C12.6458 790.84 5.10637 787.845 -2.34663 784.868C-2.60602 784.774 -2.79622 784.604 -2.96915 784.416C-8.10498 790.935 -13.846 796.888 -19.3969 802.973C-22.8208 806.722 -27.9394 813.279 -33.5421 811.15C-38.5569 809.266 -38.4877 801.994 -39.1448 797.227Z" fill="url(#paint4_linear)" fill-opacity="0.8"/>
<path d="M432.677 318.188C432.695 312.63 432.539 307.034 432.764 301.477C432.764 301.458 432.764 301.458 432.764 301.439L432.747 301.42C429.253 298.104 425.57 295.128 421.852 292.151C419.293 290.097 416.526 287.422 416.768 283.579C416.993 279.999 422.008 279.641 424.55 278.793C428.994 277.343 433.663 275.986 438.332 275.836C439.439 270.787 440.718 265.737 442.465 260.896C443.485 258.07 445.093 251.89 448.292 251.061C451.716 250.176 453.981 255.413 455.382 257.768C458.097 262.384 461.002 267.301 462.852 272.426C462.974 272.294 463.164 272.218 463.389 272.218C467.815 272.124 472.242 272.162 476.669 272.369C479.004 272.482 483.984 271.634 485.54 274.046C487.079 276.439 484.433 279.453 483.24 281.262C480.318 285.67 477.568 290.361 474.265 294.431C474.248 294.449 474.248 294.449 474.231 294.449C476.133 299.404 477.707 304.792 478.986 309.973C479.626 312.592 481.597 318.866 479.384 321.24C477.465 323.274 472.744 321.616 470.686 321.014C465.792 319.582 461.313 316.906 456.887 314.269C456.731 314.175 456.627 314.062 456.541 313.93C452.736 317.49 448.604 320.637 444.592 323.877C442.102 325.874 438.315 329.454 434.977 327.532C431.986 325.818 432.66 321.258 432.677 318.188Z" fill="url(#paint5_linear)" fill-opacity="0.8"/>
<path d="M-127.595 201.381C-127.578 195.823 -127.733 190.228 -127.509 184.67C-127.509 184.651 -127.509 184.651 -127.509 184.632L-127.526 184.613C-131.019 181.298 -134.702 178.321 -138.42 175.344C-140.979 173.291 -143.746 170.616 -143.504 166.772C-143.279 163.193 -138.264 162.835 -135.722 161.987C-131.278 160.536 -126.609 159.18 -121.941 159.029C-120.834 153.98 -119.554 148.931 -117.808 144.089C-116.787 141.263 -115.179 135.084 -111.98 134.255C-108.556 133.369 -106.291 138.607 -104.89 140.962C-102.175 145.577 -99.2703 150.495 -97.42 155.619C-97.2989 155.487 -97.1087 155.412 -96.8839 155.412C-92.4571 155.318 -88.0302 155.355 -83.6033 155.563C-81.2689 155.676 -76.2887 154.828 -74.7324 157.239C-73.1933 159.632 -75.8391 162.646 -77.0323 164.455C-79.9547 168.863 -82.7042 173.555 -86.007 177.624C-86.0243 177.643 -86.0243 177.643 -86.0416 177.643C-84.1394 182.598 -82.5658 187.986 -81.2862 193.167C-80.6464 195.785 -78.675 202.059 -80.8885 204.433C-82.8079 206.468 -87.5287 204.81 -89.5865 204.207C-94.4802 202.775 -98.959 200.1 -103.386 197.462C-103.542 197.368 -103.645 197.255 -103.732 197.123C-107.536 200.684 -111.669 203.83 -115.681 207.071C-118.171 209.068 -121.958 212.647 -125.295 210.725C-128.287 209.011 -127.612 204.452 -127.595 201.381Z" fill="url(#paint6_linear)" fill-opacity="0.8"/>
<path d="M-189.847 233.408C-189.83 227.85 -189.986 222.254 -189.761 216.697C-189.761 216.678 -189.761 216.678 -189.761 216.659L-189.778 216.64C-193.271 213.324 -196.954 210.348 -200.672 207.371C-203.232 205.317 -205.998 202.642 -205.756 198.799C-205.531 195.219 -200.517 194.861 -197.975 194.014C-193.531 192.563 -188.862 191.206 -184.193 191.056C-183.086 186.007 -181.806 180.958 -180.06 176.116C-179.04 173.29 -177.431 167.11 -174.232 166.281C-170.808 165.396 -168.543 170.633 -167.142 172.988C-164.428 177.604 -161.522 182.521 -159.672 187.646C-159.551 187.514 -159.361 187.438 -159.136 187.438C-154.709 187.344 -150.282 187.382 -145.856 187.589C-143.521 187.702 -138.541 186.854 -136.985 189.266C-135.446 191.659 -138.091 194.673 -139.284 196.482C-142.207 200.89 -144.956 205.581 -148.259 209.651C-148.276 209.669 -148.277 209.669 -148.294 209.669C-146.392 214.624 -144.818 220.012 -143.538 225.193C-142.899 227.812 -140.927 234.086 -143.141 236.46C-145.06 238.494 -149.781 236.836 -151.839 236.234C-156.732 234.802 -161.211 232.126 -165.638 229.489C-165.794 229.395 -165.897 229.282 -165.984 229.15C-169.788 232.711 -173.921 235.857 -177.933 239.097C-180.423 241.094 -184.21 244.674 -187.547 242.752C-190.539 241.038 -189.865 236.478 -189.847 233.408Z" fill="url(#paint7_linear)" fill-opacity="0.8"/>
<path d="M745.669 727.011C745.686 721.453 745.53 715.858 745.755 710.3C745.755 710.281 745.755 710.281 745.755 710.262L745.738 710.244C742.245 706.928 738.562 703.951 734.844 700.974C732.285 698.921 729.518 696.246 729.76 692.402C729.985 688.823 734.999 688.465 737.541 687.617C741.986 686.166 746.654 684.81 751.323 684.659C752.43 679.61 753.71 674.561 755.456 669.719C756.477 666.893 758.085 660.714 761.284 659.885C764.708 658.999 766.973 664.237 768.374 666.592C771.089 671.208 773.994 676.125 775.844 681.249C775.965 681.117 776.155 681.042 776.38 681.042C780.807 680.948 785.234 680.985 789.661 681.193C791.995 681.306 796.975 680.458 798.532 682.869C800.071 685.262 797.425 688.276 796.232 690.085C793.309 694.494 790.56 699.185 787.257 703.254C787.24 703.273 787.24 703.273 787.222 703.273C789.125 708.228 790.698 713.616 791.978 718.797C792.618 721.416 794.589 727.689 792.375 730.063C790.456 732.098 785.735 730.44 783.678 729.837C778.784 728.405 774.305 725.73 769.878 723.092C769.723 722.998 769.619 722.885 769.532 722.753C765.728 726.314 761.595 729.46 757.583 732.701C755.093 734.698 751.306 738.277 747.969 736.356C744.977 734.641 745.652 730.082 745.669 727.011Z" fill="url(#paint8_linear)" fill-opacity="0.8"/>
<path d="M-495.594 34.2527C-491.357 31.1253 -487.207 27.8472 -482.849 24.927C-482.832 24.927 -482.832 24.9082 -482.815 24.9082C-482.815 24.8893 -482.815 24.8893 -482.815 24.8705C-482.261 19.8591 -482.088 14.8665 -481.898 9.83632C-481.777 6.36979 -481.31 2.37576 -478.249 0.435256C-475.396 -1.37337 -472.318 2.92211 -470.243 4.76841C-466.646 7.95234 -462.98 11.4 -460.248 15.5259C-455.804 13.6796 -451.239 12.0029 -446.587 10.8348C-443.872 10.1566 -438.269 8.14074 -435.848 10.5522C-433.255 13.1333 -435.952 18.1258 -436.955 20.7069C-438.927 25.756 -441.019 31.1441 -443.872 35.6845C-443.699 35.7222 -443.544 35.8541 -443.405 36.0613C-440.846 39.9988 -438.373 44.0117 -436.039 48.1188C-434.811 50.2665 -431.37 54.2983 -432.321 57.0489C-433.272 59.7806 -437.042 59.1024 -439.099 59.0459C-444.097 58.914 -449.181 59.0647 -454.144 58.3677C-454.161 58.3677 -454.161 58.3488 -454.178 58.3488C-456.876 62.8515 -460.075 67.2977 -463.291 71.3671C-464.917 73.4207 -468.566 78.7335 -471.626 78.0741C-474.255 77.4901 -475.656 72.3091 -476.347 70.1048C-478.007 64.8862 -478.509 59.3473 -478.993 53.8838C-479.01 53.6954 -478.976 53.5258 -478.924 53.3751C-483.766 51.9621 -488.469 50.0028 -493.19 48.1942C-496.112 47.0826 -500.954 45.6885 -501.369 41.6002C-501.767 37.9076 -497.911 35.9671 -495.594 34.2527Z" fill="url(#paint9_linear)" fill-opacity="0.8"/>
<path d="M527.785 823.094C527.803 817.537 527.647 811.941 527.872 806.383C527.872 806.365 527.872 806.365 527.872 806.346L527.855 806.327C524.361 803.011 520.678 800.035 516.96 797.058C514.401 795.004 511.634 792.329 511.876 788.486C512.101 784.906 517.116 784.548 519.658 783.7C524.102 782.25 528.771 780.893 533.44 780.743C534.547 775.693 535.826 770.644 537.573 765.803C538.593 762.977 540.201 756.797 543.4 755.968C546.824 755.083 549.09 760.32 550.49 762.675C553.205 767.291 556.11 772.208 557.96 777.333C558.082 777.201 558.272 777.125 558.497 777.125C562.923 777.031 567.35 777.069 571.777 777.276C574.112 777.389 579.092 776.541 580.648 778.953C582.187 781.345 579.541 784.36 578.348 786.168C575.426 790.577 572.676 795.268 569.373 799.337C569.356 799.356 569.356 799.356 569.339 799.356C571.241 804.311 572.815 809.699 574.094 814.88C574.734 817.499 576.705 823.773 574.492 826.146C572.573 828.181 567.852 826.523 565.794 825.92C560.9 824.489 556.421 821.813 551.995 819.176C551.839 819.082 551.735 818.969 551.649 818.837C547.844 822.397 543.712 825.544 539.7 828.784C537.21 830.781 533.423 834.361 530.085 832.439C527.094 830.725 527.768 826.165 527.785 823.094Z" fill="url(#paint10_linear)" fill-opacity="0.8"/>
<path d="M499.703 770.625C499.703 767.347 499.616 764.05 499.754 760.772V760.753C499.754 760.753 499.737 760.753 499.737 760.734C497.679 758.775 495.501 757.023 493.304 755.271C491.8 754.065 490.157 752.483 490.313 750.222C490.451 748.112 493.391 747.886 494.913 747.396C497.524 746.529 500.29 745.738 503.04 745.663C503.697 742.686 504.458 739.709 505.478 736.864C506.083 735.207 507.035 731.552 508.919 731.062C510.925 730.534 512.274 733.624 513.104 735.018C514.712 737.731 516.424 740.632 517.514 743.666C517.583 743.59 517.687 743.553 517.825 743.534C520.436 743.477 523.047 743.496 525.658 743.609C527.024 743.666 529.981 743.176 530.881 744.608C531.797 746.021 530.223 747.792 529.514 748.865C527.803 751.465 526.177 754.235 524.223 756.627C524.223 756.627 524.206 756.627 524.206 756.646C525.33 759.566 526.263 762.75 527.007 765.802C527.387 767.347 528.546 771.059 527.249 772.453C526.125 773.659 523.324 772.679 522.113 772.321C519.226 771.473 516.58 769.909 513.986 768.346C513.9 768.289 513.83 768.214 513.778 768.139C511.548 770.23 509.11 772.095 506.723 773.998C505.253 775.185 503.023 777.295 501.051 776.145C499.287 775.128 499.685 772.434 499.703 770.625Z" fill="url(#paint11_linear)" fill-opacity="0.8"/>
<path d="M459.93 844.101C459.93 840.823 459.844 837.526 459.982 834.247V834.229C459.982 834.229 459.965 834.229 459.965 834.21C457.907 832.25 455.728 830.498 453.532 828.746C452.027 827.541 450.385 825.958 450.54 823.697C450.679 821.587 453.618 821.361 455.14 820.871C457.751 820.004 460.518 819.213 463.267 819.138C463.925 816.161 464.685 813.185 465.706 810.34C466.311 808.682 467.262 805.027 469.147 804.537C471.153 804.01 472.502 807.099 473.332 808.493C474.94 811.206 476.652 814.108 477.741 817.141C477.81 817.066 477.914 817.028 478.052 817.009C480.664 816.953 483.275 816.971 485.886 817.084C487.252 817.141 490.209 816.651 491.108 818.083C492.025 819.496 490.451 821.267 489.742 822.341C488.03 824.941 486.405 827.71 484.451 830.103C484.451 830.103 484.433 830.103 484.433 830.122C485.557 833.042 486.491 836.226 487.235 839.278C487.615 840.823 488.774 844.534 487.477 845.928C486.353 847.134 483.551 846.154 482.341 845.796C479.453 844.948 476.807 843.385 474.214 841.821C474.127 841.764 474.058 841.689 474.006 841.614C471.775 843.705 469.337 845.57 466.951 847.473C465.481 848.66 463.25 850.77 461.279 849.621C459.515 848.603 459.913 845.909 459.93 844.101Z" fill="url(#paint12_linear)" fill-opacity="0.8"/>
<path d="M-167.783 145.144C-167.783 141.866 -167.869 138.569 -167.731 135.29V135.272C-167.731 135.272 -167.748 135.272 -167.748 135.253C-169.806 133.293 -171.985 131.541 -174.181 129.789C-175.686 128.584 -177.328 127.001 -177.173 124.74C-177.034 122.63 -174.095 122.404 -172.573 121.914C-169.962 121.048 -167.195 120.256 -164.446 120.181C-163.788 117.204 -163.028 114.228 -162.007 111.383C-161.402 109.725 -160.451 106.07 -158.566 105.58C-156.56 105.053 -155.211 108.142 -154.381 109.536C-152.773 112.249 -151.061 115.151 -149.972 118.184C-149.903 118.109 -149.799 118.071 -149.661 118.052C-147.049 117.996 -144.438 118.014 -141.827 118.127C-140.461 118.184 -137.504 117.694 -136.605 119.126C-135.688 120.539 -137.262 122.31 -137.971 123.384C-139.683 125.984 -141.308 128.753 -143.262 131.146C-143.262 131.146 -143.28 131.146 -143.28 131.165C-142.156 134.085 -141.222 137.269 -140.478 140.321C-140.098 141.866 -138.939 145.577 -140.236 146.971C-141.36 148.177 -144.162 147.197 -145.372 146.839C-148.26 145.991 -150.906 144.428 -153.5 142.864C-153.586 142.808 -153.655 142.732 -153.707 142.657C-155.938 144.748 -158.376 146.613 -160.762 148.516C-162.232 149.703 -164.463 151.813 -166.434 150.664C-168.198 149.646 -167.8 146.952 -167.783 145.144Z" fill="url(#paint13_linear)" fill-opacity="0.8"/>
<path d="M-458.294 942.068C-458.294 938.789 -458.38 935.492 -458.242 932.214V932.195C-458.242 932.195 -458.259 932.195 -458.259 932.177C-460.317 930.217 -462.496 928.465 -464.692 926.713C-466.196 925.507 -467.839 923.925 -467.684 921.664C-467.545 919.554 -464.605 919.328 -463.084 918.838C-460.473 917.971 -457.706 917.18 -454.956 917.105C-454.299 914.128 -453.538 911.151 -452.518 908.306C-451.913 906.649 -450.962 902.994 -449.077 902.504C-447.071 901.976 -445.722 905.066 -444.892 906.46C-443.284 909.173 -441.572 912.075 -440.483 915.108C-440.414 915.032 -440.31 914.995 -440.171 914.976C-437.56 914.919 -434.949 914.938 -432.338 915.051C-430.972 915.108 -428.015 914.618 -427.116 916.05C-426.199 917.463 -427.773 919.234 -428.482 920.307C-430.194 922.907 -431.819 925.677 -433.773 928.069C-433.773 928.069 -433.79 928.069 -433.79 928.088C-432.666 931.008 -431.733 934.192 -430.989 937.244C-430.609 938.789 -429.45 942.501 -430.747 943.895C-431.871 945.101 -434.672 944.121 -435.883 943.763C-438.771 942.915 -441.416 941.352 -444.01 939.788C-444.097 939.731 -444.166 939.656 -444.218 939.581C-446.449 941.672 -448.887 943.537 -451.273 945.44C-452.743 946.627 -454.974 948.737 -456.945 947.588C-458.709 946.57 -458.311 943.876 -458.294 942.068Z" fill="url(#paint14_linear)" fill-opacity="0.8"/>
<path d="M-394.313 395.713C-394.313 392.435 -394.399 389.138 -394.261 385.86V385.841C-394.261 385.841 -394.278 385.841 -394.278 385.822C-396.336 383.863 -398.515 382.111 -400.711 380.359C-402.215 379.153 -403.858 377.571 -403.702 375.31C-403.564 373.2 -400.624 372.974 -399.102 372.484C-396.491 371.636 -393.725 370.826 -390.975 370.751C-390.318 367.774 -389.557 364.797 -388.537 361.952C-387.932 360.295 -386.981 356.64 -385.096 356.15C-383.09 355.622 -381.741 358.712 -380.911 360.106C-379.303 362.819 -377.591 365.72 -376.501 368.754C-376.432 368.678 -376.328 368.641 -376.19 368.622C-373.579 368.565 -370.968 368.584 -368.357 368.697C-366.991 368.754 -364.034 368.264 -363.134 369.696C-362.218 371.109 -363.792 372.88 -364.501 373.953C-366.212 376.553 -367.838 379.323 -369.792 381.715C-369.792 381.715 -369.809 381.715 -369.809 381.734C-368.685 384.654 -367.751 387.838 -367.008 390.89C-366.627 392.435 -365.469 396.147 -366.766 397.541C-367.89 398.747 -370.691 397.767 -371.902 397.409C-374.789 396.561 -377.435 394.997 -380.029 393.434C-380.115 393.377 -380.185 393.302 -380.237 393.227C-382.467 395.318 -384.905 397.183 -387.292 399.086C-388.762 400.273 -390.992 402.383 -392.964 401.233C-394.727 400.216 -394.33 397.522 -394.313 395.713Z" fill="url(#paint15_linear)" fill-opacity="0.8"/>
<path d="M-522.276 99.9282C-522.276 96.6501 -522.362 93.3531 -522.224 90.075V90.0562C-522.224 90.0562 -522.241 90.0562 -522.241 90.0373C-524.299 88.078 -526.478 86.3259 -528.674 84.5738C-530.178 83.368 -531.821 81.7855 -531.665 79.5247C-531.527 77.4146 -528.587 77.1886 -527.066 76.6987C-524.454 75.8321 -521.688 75.0408 -518.938 74.9655C-518.281 71.9888 -517.52 69.0121 -516.5 66.1673C-515.895 64.5094 -514.944 60.8545 -513.059 60.3646C-511.053 59.8371 -509.704 62.9268 -508.874 64.321C-507.266 67.0339 -505.554 69.9352 -504.465 72.9684C-504.395 72.8931 -504.292 72.8554 -504.153 72.8366C-501.542 72.7801 -498.931 72.7989 -496.32 72.9119C-494.954 72.9685 -491.997 72.4786 -491.098 73.9104C-490.181 75.3234 -491.755 77.0944 -492.464 78.1682C-494.176 80.7681 -495.801 83.5376 -497.755 85.9302C-497.755 85.9302 -497.772 85.9302 -497.772 85.9491C-496.648 88.8692 -495.715 92.0532 -494.971 95.1052C-494.591 96.6501 -493.432 100.362 -494.729 101.756C-495.853 102.961 -498.654 101.982 -499.865 101.624C-502.753 100.776 -505.398 99.2123 -507.992 97.6486C-508.079 97.5921 -508.148 97.5167 -508.2 97.4414C-510.43 99.5326 -512.869 101.398 -515.255 103.301C-516.725 104.487 -518.956 106.598 -520.927 105.448C-522.691 104.431 -522.293 101.737 -522.276 99.9282Z" fill="url(#paint16_linear)" fill-opacity="0.8"/>
<path d="M708.94 665.122C708.94 661.844 708.853 658.547 708.992 655.269V655.25C708.992 655.25 708.974 655.25 708.974 655.231C706.917 653.272 704.738 651.52 702.542 649.768C701.037 648.562 699.394 646.979 699.55 644.719C699.688 642.609 702.628 642.383 704.15 641.893C706.761 641.026 709.528 640.235 712.277 640.159C712.934 637.183 713.695 634.206 714.715 631.361C715.321 629.703 716.272 626.048 718.157 625.559C720.18 625.031 721.511 628.121 722.341 629.515C723.95 632.228 725.661 635.129 726.751 638.162C726.82 638.087 726.924 638.049 727.062 638.031C729.673 637.974 732.284 637.993 734.896 638.106C736.262 638.162 739.219 637.673 740.118 639.104C741.034 640.517 739.461 642.288 738.752 643.362C737.04 645.962 735.414 648.732 733.46 651.124C733.46 651.124 733.443 651.124 733.443 651.143C734.567 654.063 735.501 657.247 736.244 660.299C736.625 661.844 737.783 665.556 736.486 666.95C735.362 668.155 732.561 667.176 731.351 666.818C728.463 665.97 725.817 664.406 723.223 662.843C723.137 662.786 723.068 662.711 723.016 662.635C720.785 664.727 718.347 666.592 715.96 668.494C714.491 669.681 712.26 671.791 710.289 670.642C708.525 669.625 708.922 666.931 708.94 665.122Z" fill="url(#paint17_linear)" fill-opacity="0.8"/>
<path d="M-408.146 960.908C-408.146 957.629 -408.232 954.332 -408.094 951.054V951.036C-408.094 951.036 -408.111 951.036 -408.111 951.017C-410.169 949.057 -412.348 947.305 -414.544 945.553C-416.049 944.347 -417.691 942.765 -417.536 940.504C-417.397 938.394 -414.458 938.168 -412.936 937.678C-410.325 936.811 -407.558 936.02 -404.809 935.945C-404.152 932.968 -403.391 929.991 -402.37 927.147C-401.765 925.489 -400.814 921.834 -398.929 921.344C-396.923 920.816 -395.575 923.906 -394.744 925.3C-393.136 928.013 -391.424 930.915 -390.335 933.948C-390.266 933.873 -390.162 933.835 -390.024 933.816C-387.412 933.759 -384.801 933.778 -382.19 933.891C-380.824 933.948 -377.867 933.458 -376.968 934.89C-376.051 936.303 -377.625 938.074 -378.334 939.148C-380.046 941.747 -381.671 944.517 -383.626 946.91C-383.626 946.91 -383.643 946.91 -383.643 946.928C-382.519 949.849 -381.585 953.033 -380.841 956.085C-380.461 957.629 -379.302 961.341 -380.599 962.735C-381.723 963.941 -384.525 962.961 -385.735 962.603C-388.623 961.755 -391.269 960.192 -393.863 958.628C-393.949 958.571 -394.018 958.496 -394.07 958.421C-396.301 960.512 -398.739 962.377 -401.125 964.28C-402.595 965.467 -404.826 967.577 -406.797 966.428C-408.561 965.41 -408.163 962.716 -408.146 960.908Z" fill="url(#paint18_linear)" fill-opacity="0.8"/>
<path d="M-427.635 402.816C-427.635 400.631 -427.687 398.426 -427.6 396.241V396.222C-427.6 396.222 -427.6 396.222 -427.618 396.222C-429.001 394.922 -430.436 393.754 -431.906 392.567C-432.909 391.757 -433.999 390.702 -433.912 389.195C-433.826 387.782 -431.854 387.65 -430.851 387.311C-429.105 386.746 -427.255 386.199 -425.439 386.143C-425.007 384.165 -424.505 382.168 -423.813 380.265C-423.416 379.153 -422.776 376.723 -421.513 376.384C-420.165 376.045 -419.283 378.098 -418.729 379.021C-417.657 380.83 -416.516 382.77 -415.79 384.786C-415.738 384.73 -415.669 384.711 -415.582 384.711C-413.836 384.673 -412.089 384.692 -410.36 384.767C-409.443 384.805 -407.472 384.485 -406.867 385.427C-406.262 386.369 -407.299 387.556 -407.766 388.272C-408.907 390.005 -409.997 391.851 -411.294 393.453C-411.294 393.453 -411.294 393.453 -411.311 393.471C-410.567 395.431 -409.945 397.541 -409.443 399.576C-409.184 400.612 -408.406 403.08 -409.288 404.003C-410.049 404.813 -411.899 404.154 -412.712 403.909C-414.631 403.343 -416.395 402.288 -418.141 401.252C-418.193 401.215 -418.245 401.177 -418.28 401.12C-419.767 402.515 -421.392 403.758 -422.983 405.039C-423.969 405.83 -425.456 407.243 -426.77 406.471C-427.912 405.812 -427.652 404.022 -427.635 402.816Z" fill="url(#paint19_linear)" fill-opacity="0.8"/>
<path d="M-414.856 861.848C-414.856 859.662 -414.908 857.458 -414.821 855.273V855.254C-414.821 855.254 -414.821 855.254 -414.838 855.254C-416.222 853.954 -417.657 852.786 -419.127 851.599C-420.13 850.789 -421.219 849.734 -421.133 848.227C-421.046 846.814 -419.075 846.682 -418.072 846.343C-416.326 845.777 -414.475 845.231 -412.66 845.175C-412.227 843.196 -411.726 841.199 -411.034 839.297C-410.636 838.185 -409.997 835.755 -408.734 835.416C-407.385 835.076 -406.504 837.13 -405.95 838.053C-404.878 839.862 -403.737 841.802 -403.01 843.818C-402.959 843.762 -402.889 843.743 -402.803 843.743C-401.056 843.705 -399.31 843.724 -397.581 843.799C-396.664 843.837 -394.693 843.517 -394.088 844.459C-393.482 845.401 -394.52 846.588 -394.987 847.304C-396.128 849.037 -397.218 850.883 -398.514 852.484C-398.514 852.484 -398.514 852.484 -398.532 852.503C-397.788 854.463 -397.166 856.573 -396.664 858.607C-396.405 859.644 -395.627 862.112 -396.509 863.035C-397.269 863.845 -399.12 863.185 -399.932 862.941C-401.852 862.375 -403.616 861.32 -405.362 860.284C-405.414 860.246 -405.466 860.209 -405.501 860.152C-406.988 861.546 -408.631 862.79 -410.204 864.071C-411.19 864.862 -412.677 866.275 -413.991 865.503C-415.132 864.843 -414.856 863.035 -414.856 861.848Z" fill="url(#paint20_linear)" fill-opacity="0.8"/>
<path d="M-433.929 183.426C-433.929 181.241 -433.981 179.036 -433.894 176.851V176.832C-433.894 176.832 -433.894 176.832 -433.912 176.832C-435.295 175.532 -436.73 174.364 -438.2 173.177C-439.203 172.367 -440.293 171.312 -440.206 169.805C-440.12 168.392 -438.148 168.26 -437.145 167.921C-435.399 167.356 -433.549 166.809 -431.733 166.753C-431.301 164.775 -430.799 162.778 -430.107 160.875C-429.71 159.763 -429.07 157.333 -427.808 156.994C-426.459 156.655 -425.577 158.708 -425.024 159.631C-423.951 161.44 -422.81 163.38 -422.084 165.396C-422.032 165.34 -421.963 165.321 -421.876 165.321C-420.13 165.283 -418.383 165.302 -416.654 165.377C-415.737 165.415 -413.766 165.095 -413.161 166.037C-412.556 166.979 -413.593 168.166 -414.06 168.882C-415.201 170.615 -416.291 172.461 -417.588 174.063C-417.588 174.063 -417.588 174.063 -417.605 174.081C-416.861 176.041 -416.239 178.151 -415.737 180.186C-415.478 181.222 -414.7 183.69 -415.582 184.613C-416.343 185.423 -418.193 184.764 -419.006 184.519C-420.925 183.954 -422.689 182.899 -424.436 181.862C-424.487 181.825 -424.539 181.787 -424.574 181.73C-426.061 183.125 -427.686 184.368 -429.277 185.649C-430.263 186.44 -431.75 187.853 -433.064 187.081C-434.206 186.422 -433.929 184.632 -433.929 183.426Z" fill="url(#paint21_linear)" fill-opacity="0.8"/>
<path d="M657.218 865.427C657.218 863.242 657.166 861.037 657.253 858.852V858.833C657.253 858.833 657.253 858.833 657.236 858.833C655.852 857.533 654.417 856.365 652.947 855.178C651.944 854.368 650.855 853.313 650.941 851.806C651.028 850.393 652.999 850.261 654.002 849.922C655.749 849.357 657.599 848.81 659.414 848.754C659.847 846.776 660.348 844.779 661.04 842.876C661.438 841.764 662.078 839.334 663.34 838.995C664.689 838.656 665.571 840.709 666.124 841.632C667.196 843.441 668.337 845.381 669.064 847.397C669.115 847.341 669.185 847.322 669.271 847.322C671.018 847.284 672.764 847.303 674.493 847.378C675.41 847.416 677.381 847.096 677.987 848.038C678.592 848.98 677.554 850.167 677.087 850.883C675.946 852.616 674.857 854.462 673.56 856.064C673.56 856.064 673.56 856.064 673.542 856.082C674.286 858.042 674.908 860.152 675.41 862.187C675.669 863.223 676.448 865.691 675.566 866.614C674.805 867.424 672.954 866.765 672.142 866.52C670.222 865.954 668.458 864.899 666.712 863.863C666.66 863.826 666.608 863.788 666.574 863.731C665.086 865.126 663.461 866.369 661.87 867.65C660.884 868.441 659.397 869.854 658.083 869.082C656.942 868.422 657.218 866.633 657.218 865.427Z" fill="url(#paint22_linear)" fill-opacity="0.8"/>
<path d="M-104.354 283.993C-104.354 281.808 -104.406 279.603 -104.32 277.418V277.399C-104.32 277.399 -104.32 277.399 -104.337 277.399C-105.72 276.099 -107.156 274.931 -108.625 273.744C-109.628 272.934 -110.718 271.879 -110.631 270.372C-110.545 268.959 -108.574 268.827 -107.571 268.488C-105.824 267.923 -103.974 267.376 -102.158 267.32C-101.726 265.342 -101.224 263.345 -100.533 261.442C-100.135 260.33 -99.495 257.9 -98.2326 257.561C-96.8838 257.222 -96.002 259.275 -95.4486 260.198C-94.3765 262.007 -93.2352 263.947 -92.5089 265.963C-92.457 265.907 -92.3878 265.888 -92.3014 265.888C-90.5549 265.85 -88.8083 265.869 -87.0791 265.945C-86.1626 265.982 -84.1913 265.662 -83.5861 266.604C-82.9808 267.546 -84.0184 268.733 -84.4853 269.449C-85.6266 271.182 -86.716 273.028 -88.0129 274.63C-88.0129 274.63 -88.0129 274.63 -88.0302 274.649C-87.2867 276.608 -86.6641 278.718 -86.1627 280.753C-85.9033 281.789 -85.1251 284.257 -86.007 285.18C-86.7679 285.99 -88.6182 285.331 -89.4309 285.086C-91.3504 284.521 -93.1141 283.466 -94.8606 282.429C-94.9125 282.392 -94.9644 282.354 -94.999 282.297C-96.4861 283.692 -98.1117 284.935 -99.7026 286.216C-100.688 287.007 -102.175 288.42 -103.49 287.648C-104.631 286.989 -104.372 285.199 -104.354 283.993Z" fill="url(#paint23_linear)" fill-opacity="0.8"/>
<path d="M-397.632 460.371C-397.632 458.186 -397.684 455.982 -397.598 453.796V453.777C-397.598 453.777 -397.598 453.777 -397.615 453.777C-398.998 452.477 -400.433 451.309 -401.903 450.122C-402.906 449.312 -403.996 448.257 -403.909 446.75C-403.823 445.337 -401.851 445.205 -400.849 444.866C-399.102 444.301 -397.252 443.755 -395.436 443.698C-395.004 441.72 -394.502 439.723 -393.811 437.82C-393.413 436.709 -392.773 434.278 -391.511 433.939C-390.162 433.6 -389.28 435.654 -388.727 436.577C-387.654 438.385 -386.513 440.326 -385.787 442.342C-385.735 442.285 -385.666 442.266 -385.579 442.266C-383.833 442.229 -382.086 442.247 -380.357 442.323C-379.441 442.36 -377.469 442.04 -376.864 442.982C-376.259 443.924 -377.296 445.111 -377.763 445.827C-378.905 447.56 -379.994 449.407 -381.291 451.008C-381.291 451.008 -381.291 451.008 -381.308 451.027C-380.565 452.986 -379.942 455.096 -379.441 457.131C-379.181 458.167 -378.403 460.635 -379.285 461.558C-380.046 462.368 -381.896 461.709 -382.709 461.464C-384.628 460.899 -386.392 459.844 -388.139 458.808C-388.191 458.77 -388.242 458.732 -388.277 458.676C-389.764 460.07 -391.39 461.313 -392.981 462.594C-393.966 463.386 -395.453 464.799 -396.768 464.026C-397.892 463.367 -397.632 461.577 -397.632 460.371Z" fill="url(#paint24_linear)" fill-opacity="0.8"/>
<path d="M610.512 215.454C610.512 213.269 610.46 211.064 610.546 208.879V208.86C610.546 208.86 610.546 208.86 610.529 208.86C609.146 207.56 607.71 206.392 606.241 205.205C605.238 204.395 604.148 203.34 604.235 201.833C604.321 200.42 606.292 200.288 607.295 199.949C609.042 199.384 610.892 198.837 612.708 198.781C613.14 196.803 613.642 194.806 614.333 192.903C614.731 191.791 615.371 189.361 616.633 189.022C617.982 188.683 618.864 190.736 619.417 191.659C620.489 193.468 621.631 195.408 622.357 197.424C622.409 197.368 622.478 197.349 622.565 197.349C624.311 197.311 626.058 197.33 627.787 197.405C628.703 197.443 630.675 197.123 631.28 198.065C631.885 199.007 630.847 200.194 630.381 200.91C629.239 202.643 628.15 204.489 626.853 206.091C626.853 206.091 626.853 206.091 626.836 206.109C627.579 208.069 628.202 210.179 628.703 212.214C628.963 213.25 629.741 215.718 628.859 216.641C628.098 217.451 626.248 216.792 625.435 216.547C623.515 215.982 621.752 214.927 620.005 213.89C619.953 213.853 619.901 213.815 619.867 213.758C618.38 215.153 616.737 216.396 615.163 217.677C614.178 218.468 612.691 219.881 611.376 219.109C610.252 218.45 610.512 216.66 610.512 215.454Z" fill="url(#paint25_linear)" fill-opacity="0.8"/>
<path d="M644.353 191.81C644.353 189.625 644.301 187.42 644.387 185.235V185.216C644.387 185.216 644.387 185.216 644.37 185.216C642.987 183.916 641.551 182.748 640.082 181.561C639.079 180.751 637.989 179.696 638.076 178.189C638.162 176.776 640.133 176.644 641.136 176.305C642.883 175.74 644.733 175.193 646.549 175.137C646.981 173.159 647.483 171.162 648.174 169.259C648.572 168.147 649.212 165.717 650.474 165.378C651.823 165.039 652.705 167.092 653.258 168.015C654.33 169.824 655.472 171.765 656.198 173.78C656.25 173.724 656.319 173.705 656.406 173.705C658.152 173.667 659.899 173.686 661.628 173.762C662.544 173.799 664.516 173.479 665.121 174.421C665.726 175.363 664.689 176.55 664.222 177.266C663.08 178.999 661.991 180.845 660.694 182.447C660.694 182.447 660.694 182.447 660.677 182.466C661.42 184.425 662.043 186.535 662.544 188.57C662.804 189.606 663.582 192.074 662.7 192.997C661.939 193.807 660.089 193.148 659.276 192.903C657.357 192.338 655.593 191.283 653.846 190.246C653.794 190.209 653.742 190.171 653.708 190.115C652.221 191.509 650.578 192.752 649.004 194.033C648.019 194.825 646.532 196.238 645.217 195.465C644.076 194.806 644.353 193.016 644.353 191.81Z" fill="url(#paint26_linear)" fill-opacity="0.8"/>
<path d="M636.727 300.327C636.727 298.142 636.675 295.937 636.762 293.752V293.733C636.762 293.733 636.762 293.733 636.744 293.733C635.361 292.433 633.926 291.265 632.456 290.078C631.453 289.268 630.363 288.213 630.45 286.706C630.536 285.293 632.508 285.161 633.511 284.822C635.257 284.257 637.107 283.71 638.923 283.654C639.355 281.676 639.857 279.679 640.549 277.776C640.946 276.664 641.586 274.234 642.848 273.895C644.197 273.556 645.079 275.609 645.633 276.532C646.705 278.341 647.846 280.281 648.572 282.297C648.624 282.241 648.693 282.222 648.78 282.222C650.526 282.184 652.273 282.203 654.002 282.279C654.919 282.316 656.89 281.996 657.495 282.938C658.1 283.88 657.063 285.067 656.596 285.783C655.455 287.516 654.365 289.362 653.068 290.964C653.068 290.964 653.068 290.964 653.051 290.982C653.795 292.942 654.417 295.052 654.919 297.087C655.178 298.123 655.956 300.591 655.074 301.514C654.313 302.324 652.463 301.665 651.65 301.42C649.731 300.855 647.967 299.8 646.22 298.763C646.169 298.726 646.117 298.688 646.082 298.631C644.595 300.026 642.952 301.269 641.379 302.55C640.393 303.341 638.906 304.754 637.592 303.982C636.45 303.323 636.727 301.533 636.727 300.327Z" fill="url(#paint27_linear)" fill-opacity="0.8"/>
<path d="M192.089 151.456C202.032 151.456 202.049 168.28 192.089 168.28C182.146 168.28 182.128 151.456 192.089 151.456Z" fill="url(#paint28_linear)" fill-opacity="0.8"/>
<path d="M565.604 592.307C575.547 592.307 575.564 609.131 565.604 609.131C555.661 609.131 555.643 592.307 565.604 592.307Z" fill="url(#paint29_linear)" fill-opacity="0.8"/>
<path d="M74.5007 927.655C84.4438 927.655 84.4611 944.479 74.5007 944.479C64.5576 944.479 64.5403 927.655 74.5007 927.655Z" fill="url(#paint30_linear)" fill-opacity="0.8"/>
<path d="M-423.519 616.798C-413.576 616.798 -413.559 633.622 -423.519 633.622C-433.462 633.622 -433.48 616.798 -423.519 616.798Z" fill="url(#paint31_linear)" fill-opacity="0.8"/>
<path d="M-113.986 456.66C-104.043 456.66 -104.026 473.484 -113.986 473.484C-123.929 473.484 -123.946 456.66 -113.986 456.66Z" fill="url(#paint32_linear)" fill-opacity="0.8"/>
<path d="M-382.017 74.2122C-372.074 74.2122 -372.057 91.0362 -382.017 91.0362C-391.96 91.0362 -391.978 74.2122 -382.017 74.2122Z" fill="url(#paint33_linear)" fill-opacity="0.8"/>
<path d="M598.459 91.168C608.402 91.168 608.42 107.992 598.459 107.992C588.516 107.992 588.499 91.168 598.459 91.168Z" fill="url(#paint34_linear)" fill-opacity="0.8"/>
<path d="M728.152 454.776C738.095 454.776 738.112 471.6 728.152 471.6C718.209 471.6 718.192 454.776 728.152 454.776Z" fill="url(#paint35_linear)" fill-opacity="0.8"/>
<path d="M434.181 88.4173C454.05 88.4173 454.085 122.065 434.181 122.065C414.312 122.065 414.278 88.4173 434.181 88.4173Z" fill="url(#paint36_linear)" fill-opacity="0.8"/>
<path d="M387.492 717.667C407.361 717.667 407.396 751.315 387.492 751.315C367.623 751.315 367.589 717.667 387.492 717.667Z" fill="url(#paint37_linear)" fill-opacity="0.8"/>
<path d="M662.44 966.352C682.309 966.352 682.344 1000 662.44 1000C642.571 1000 642.537 966.352 662.44 966.352Z" fill="url(#paint38_linear)" fill-opacity="0.8"/>
<path d="M-522.085 685.639C-502.216 685.639 -502.182 719.287 -522.085 719.287C-541.954 719.287 -541.989 685.639 -522.085 685.639Z" fill="url(#paint39_linear)" fill-opacity="0.8"/>
<path d="M-269.617 563.18C-249.748 563.18 -249.714 596.828 -269.617 596.828C-289.486 596.828 -289.521 563.18 -269.617 563.18Z" fill="url(#paint40_linear)" fill-opacity="0.8"/>
<path d="M20.8943 14.9421C40.7632 14.9421 40.7978 48.5899 20.8943 48.5899C1.02542 48.5899 0.990837 14.9421 20.8943 14.9421Z" fill="url(#paint41_linear)" fill-opacity="0.8"/>
<path d="M26.0823 156.24C45.9512 156.24 45.9858 189.888 26.0823 189.888C6.21342 189.888 6.17884 156.24 26.0823 156.24Z" fill="url(#paint42_linear)" fill-opacity="0.8"/>
<path d="M539.665 427.534C559.534 427.534 559.568 461.182 539.665 461.182C519.796 461.182 519.761 427.534 539.665 427.534Z" fill="url(#paint43_linear)" fill-opacity="0.8"/>
<path d="M224.944 773.395C232.397 773.395 232.414 786.017 224.944 786.017C217.491 785.999 217.474 773.395 224.944 773.395Z" fill="url(#paint44_linear)" fill-opacity="0.8"/>
<path d="M321.782 837.45C329.235 837.45 329.252 850.073 321.782 850.073C314.329 850.054 314.311 837.45 321.782 837.45Z" fill="url(#paint45_linear)" fill-opacity="0.8"/>
<path d="M437.64 560.505C445.093 560.505 445.11 573.127 437.64 573.127C430.187 573.109 430.17 560.505 437.64 560.505Z" fill="url(#paint46_linear)" fill-opacity="0.8"/>
<path d="M76.23 98.9297C83.683 98.9297 83.7003 111.552 76.23 111.552C68.777 111.534 68.7597 98.9297 76.23 98.9297Z" fill="url(#paint47_linear)" fill-opacity="0.8"/>
<path d="M-235.033 432.394C-227.58 432.394 -227.562 445.017 -235.033 445.017C-242.486 444.998 -242.503 432.394 -235.033 432.394Z" fill="url(#paint48_linear)" fill-opacity="0.8"/>
<path d="M-319.765 844.986C-312.312 844.986 -312.295 857.609 -319.765 857.609C-327.218 857.59 -327.235 844.986 -319.765 844.986Z" fill="url(#paint49_linear)" fill-opacity="0.8"/>
<path d="M-148.57 835.566C-141.117 835.566 -141.1 848.189 -148.57 848.189C-156.023 848.17 -156.041 835.566 -148.57 835.566Z" fill="url(#paint50_linear)" fill-opacity="0.8"/>
<path d="M-207.365 916.577C-199.912 916.577 -199.894 929.2 -207.365 929.2C-214.818 929.181 -214.835 916.577 -207.365 916.577Z" fill="url(#paint51_linear)" fill-opacity="0.8"/>
<path d="M192.089 942.953C199.542 942.953 199.559 955.576 192.089 955.576C184.636 955.557 184.618 942.953 192.089 942.953Z" fill="url(#paint52_linear)" fill-opacity="0.8"/>
</g>
<defs>
<linearGradient id="paint0_linear" x1="-537" y1="500" x2="799" y2="500" gradientUnits="userSpaceOnUse">
<stop stop-color="white"/>
<stop offset="1" stop-color="#FEE140"/>
</linearGradient>
<linearGradient id="paint1_linear" x1="-537" y1="500" x2="799" y2="500" gradientUnits="userSpaceOnUse">
<stop stop-color="white"/>
<stop offset="1" stop-color="#FEE140"/>
</linearGradient>
<linearGradient id="paint2_linear" x1="-537" y1="500" x2="799" y2="500" gradientUnits="userSpaceOnUse">
<stop stop-color="white"/>
<stop offset="1" stop-color="#FEE140"/>
</linearGradient>
<linearGradient id="paint3_linear" x1="-537" y1="500" x2="799" y2="500" gradientUnits="userSpaceOnUse">
<stop stop-color="white"/>
<stop offset="1" stop-color="#FEE140"/>
</linearGradient>
<linearGradient id="paint4_linear" x1="-537" y1="500" x2="799" y2="500" gradientUnits="userSpaceOnUse">
<stop stop-color="white"/>
<stop offset="1" stop-color="#FEE140"/>
</linearGradient>
<linearGradient id="paint5_linear" x1="-537" y1="500" x2="799" y2="500" gradientUnits="userSpaceOnUse">
<stop stop-color="white"/>
<stop offset="1" stop-color="#FEE140"/>
</linearGradient>
<linearGradient id="paint6_linear" x1="-537" y1="500" x2="799" y2="500" gradientUnits="userSpaceOnUse">
<stop stop-color="white"/>
<stop offset="1" stop-color="#FEE140"/>
</linearGradient>
<linearGradient id="paint7_linear" x1="-537" y1="500" x2="799" y2="500" gradientUnits="userSpaceOnUse">
<stop stop-color="white"/>
<stop offset="1" stop-color="#FEE140"/>
</linearGradient>
<linearGradient id="paint8_linear" x1="-537" y1="500" x2="799" y2="500" gradientUnits="userSpaceOnUse">
<stop stop-color="white"/>
<stop offset="1" stop-color="#FEE140"/>
</linearGradient>
<linearGradient id="paint9_linear" x1="-537" y1="500" x2="799" y2="500" gradientUnits="userSpaceOnUse">
<stop stop-color="white"/>
<stop offset="1" stop-color="#FEE140"/>
</linearGradient>
<linearGradient id="paint10_linear" x1="-537" y1="500" x2="799" y2="500" gradientUnits="userSpaceOnUse">
<stop stop-color="white"/>
<stop offset="1" stop-color="#FEE140"/>
</linearGradient>
<linearGradient id="paint11_linear" x1="-537" y1="500" x2="799" y2="500" gradientUnits="userSpaceOnUse">
<stop stop-color="white"/>
<stop offset="1" stop-color="#FEE140"/>
</linearGradient>
<linearGradient id="paint12_linear" x1="-537" y1="500" x2="799" y2="500" gradientUnits="userSpaceOnUse">
<stop stop-color="white"/>
<stop offset="1" stop-color="#FEE140"/>
</linearGradient>
<linearGradient id="paint13_linear" x1="-537" y1="500" x2="799" y2="500" gradientUnits="userSpaceOnUse">
<stop stop-color="white"/>
<stop offset="1" stop-color="#FEE140"/>
</linearGradient>
<linearGradient id="paint14_linear" x1="-537" y1="500" x2="799" y2="500" gradientUnits="userSpaceOnUse">
<stop stop-color="white"/>
<stop offset="1" stop-color="#FEE140"/>
</linearGradient>
<linearGradient id="paint15_linear" x1="-537" y1="500" x2="799" y2="500" gradientUnits="userSpaceOnUse">
<stop stop-color="white"/>
<stop offset="1" stop-color="#FEE140"/>
</linearGradient>
<linearGradient id="paint16_linear" x1="-537" y1="500" x2="799" y2="500" gradientUnits="userSpaceOnUse">
<stop stop-color="white"/>
<stop offset="1" stop-color="#FEE140"/>
</linearGradient>
<linearGradient id="paint17_linear" x1="-537" y1="500" x2="799" y2="500" gradientUnits="userSpaceOnUse">
<stop stop-color="white"/>
<stop offset="1" stop-color="#FEE140"/>
</linearGradient>
<linearGradient id="paint18_linear" x1="-537" y1="500" x2="799" y2="500" gradientUnits="userSpaceOnUse">
<stop stop-color="white"/>
<stop offset="1" stop-color="#FEE140"/>
</linearGradient>
<linearGradient id="paint19_linear" x1="-537" y1="500" x2="799" y2="500" gradientUnits="userSpaceOnUse">
<stop stop-color="white"/>
<stop offset="1" stop-color="#FEE140"/>
</linearGradient>
<linearGradient id="paint20_linear" x1="-537" y1="500" x2="799" y2="500" gradientUnits="userSpaceOnUse">
<stop stop-color="white"/>
<stop offset="1" stop-color="#FEE140"/>
</linearGradient>
<linearGradient id="paint21_linear" x1="-537" y1="500" x2="799" y2="500" gradientUnits="userSpaceOnUse">
<stop stop-color="white"/>
<stop offset="1" stop-color="#FEE140"/>
</linearGradient>
<linearGradient id="paint22_linear" x1="-537" y1="500" x2="799" y2="500" gradientUnits="userSpaceOnUse">
<stop stop-color="white"/>
<stop offset="1" stop-color="#FEE140"/>
</linearGradient>
<linearGradient id="paint23_linear" x1="-537" y1="500" x2="799" y2="500" gradientUnits="userSpaceOnUse">
<stop stop-color="white"/>
<stop offset="1" stop-color="#FEE140"/>
</linearGradient>
<linearGradient id="paint24_linear" x1="-537" y1="500" x2="799" y2="500" gradientUnits="userSpaceOnUse">
<stop stop-color="white"/>
<stop offset="1" stop-color="#FEE140"/>
</linearGradient>
<linearGradient id="paint25_linear" x1="-537" y1="500" x2="799" y2="500" gradientUnits="userSpaceOnUse">
<stop stop-color="white"/>
<stop offset="1" stop-color="#FEE140"/>
</linearGradient>
<linearGradient id="paint26_linear" x1="-537" y1="500" x2="799" y2="500" gradientUnits="userSpaceOnUse">
<stop stop-color="white"/>
<stop offset="1" stop-color="#FEE140"/>
</linearGradient>
<linearGradient id="paint27_linear" x1="-537" y1="500" x2="799" y2="500" gradientUnits="userSpaceOnUse">
<stop stop-color="white"/>
<stop offset="1" stop-color="#FEE140"/>
</linearGradient>
<linearGradient id="paint28_linear" x1="-537" y1="500" x2="799" y2="500" gradientUnits="userSpaceOnUse">
<stop stop-color="white"/>
<stop offset="1" stop-color="#FEE140"/>
</linearGradient>
<linearGradient id="paint29_linear" x1="-537" y1="500" x2="799" y2="500" gradientUnits="userSpaceOnUse">
<stop stop-color="white"/>
<stop offset="1" stop-color="#FEE140"/>
</linearGradient>
<linearGradient id="paint30_linear" x1="-537" y1="500" x2="799" y2="500" gradientUnits="userSpaceOnUse">
<stop stop-color="white"/>
<stop offset="1" stop-color="#FEE140"/>
</linearGradient>
<linearGradient id="paint31_linear" x1="-537" y1="500" x2="799" y2="500" gradientUnits="userSpaceOnUse">
<stop stop-color="white"/>
<stop offset="1" stop-color="#FEE140"/>
</linearGradient>
<linearGradient id="paint32_linear" x1="-537" y1="500" x2="799" y2="500" gradientUnits="userSpaceOnUse">
<stop stop-color="white"/>
<stop offset="1" stop-color="#FEE140"/>
</linearGradient>
<linearGradient id="paint33_linear" x1="-537" y1="500" x2="799" y2="500" gradientUnits="userSpaceOnUse">
<stop stop-color="white"/>
<stop offset="1" stop-color="#FEE140"/>
</linearGradient>
<linearGradient id="paint34_linear" x1="-537" y1="500" x2="799" y2="500" gradientUnits="userSpaceOnUse">
<stop stop-color="white"/>
<stop offset="1" stop-color="#FEE140"/>
</linearGradient>
<linearGradient id="paint35_linear" x1="-537" y1="500" x2="799" y2="500" gradientUnits="userSpaceOnUse">
<stop stop-color="white"/>
<stop offset="1" stop-color="#FEE140"/>
</linearGradient>
<linearGradient id="paint36_linear" x1="-537" y1="500" x2="799" y2="500" gradientUnits="userSpaceOnUse">
<stop stop-color="white"/>
<stop offset="1" stop-color="#FEE140"/>
</linearGradient>
<linearGradient id="paint37_linear" x1="-537" y1="500" x2="799" y2="500" gradientUnits="userSpaceOnUse">
<stop stop-color="white"/>
<stop offset="1" stop-color="#FEE140"/>
</linearGradient>
<linearGradient id="paint38_linear" x1="-537" y1="500" x2="799" y2="500" gradientUnits="userSpaceOnUse">
<stop stop-color="white"/>
<stop offset="1" stop-color="#FEE140"/>
</linearGradient>
<linearGradient id="paint39_linear" x1="-537" y1="500" x2="799" y2="500" gradientUnits="userSpaceOnUse">
<stop stop-color="white"/>
<stop offset="1" stop-color="#FEE140"/>
</linearGradient>
<linearGradient id="paint40_linear" x1="-537" y1="500" x2="799" y2="500" gradientUnits="userSpaceOnUse">
<stop stop-color="white"/>
<stop offset="1" stop-color="#FEE140"/>
</linearGradient>
<linearGradient id="paint41_linear" x1="-537" y1="500" x2="799" y2="500" gradientUnits="userSpaceOnUse">
<stop stop-color="white"/>
<stop offset="1" stop-color="#FEE140"/>
</linearGradient>
<linearGradient id="paint42_linear" x1="-537" y1="500" x2="799" y2="500" gradientUnits="userSpaceOnUse">
<stop stop-color="white"/>
<stop offset="1" stop-color="#FEE140"/>
</linearGradient>
<linearGradient id="paint43_linear" x1="-537" y1="500" x2="799" y2="500" gradientUnits="userSpaceOnUse">
<stop stop-color="white"/>
<stop offset="1" stop-color="#FEE140"/>
</linearGradient>
<linearGradient id="paint44_linear" x1="-537" y1="500" x2="799" y2="500" gradientUnits="userSpaceOnUse">
<stop stop-color="white"/>
<stop offset="1" stop-color="#FEE140"/>
</linearGradient>
<linearGradient id="paint45_linear" x1="-537" y1="500" x2="799" y2="500" gradientUnits="userSpaceOnUse">
<stop stop-color="white"/>
<stop offset="1" stop-color="#FEE140"/>
</linearGradient>
<linearGradient id="paint46_linear" x1="-537" y1="500" x2="799" y2="500" gradientUnits="userSpaceOnUse">
<stop stop-color="white"/>
<stop offset="1" stop-color="#FEE140"/>
</linearGradient>
<linearGradient id="paint47_linear" x1="-537" y1="500" x2="799" y2="500" gradientUnits="userSpaceOnUse">
<stop stop-color="white"/>
<stop offset="1" stop-color="#FEE140"/>
</linearGradient>
<linearGradient id="paint48_linear" x1="-537" y1="500" x2="799" y2="500" gradientUnits="userSpaceOnUse">
<stop stop-color="white"/>
<stop offset="1" stop-color="#FEE140"/>
</linearGradient>
<linearGradient id="paint49_linear" x1="-537" y1="500" x2="799" y2="500" gradientUnits="userSpaceOnUse">
<stop stop-color="white"/>
<stop offset="1" stop-color="#FEE140"/>
</linearGradient>
<linearGradient id="paint50_linear" x1="-537" y1="500" x2="799" y2="500" gradientUnits="userSpaceOnUse">
<stop stop-color="white"/>
<stop offset="1" stop-color="#FEE140"/>
</linearGradient>
<linearGradient id="paint51_linear" x1="-537" y1="500" x2="799" y2="500" gradientUnits="userSpaceOnUse">
<stop stop-color="white"/>
<stop offset="1" stop-color="#FEE140"/>
</linearGradient>
<linearGradient id="paint52_linear" x1="-537" y1="500" x2="799" y2="500" gradientUnits="userSpaceOnUse">
<stop stop-color="white"/>
<stop offset="1" stop-color="#FEE140"/>
</linearGradient>
</defs>
</svg>
