<svg width="375" height="20" viewBox="0 0 375 20" fill="none" xmlns="http://www.w3.org/2000/svg">
<path d="M30.0498 13.6289C32.1499 13.6289 33.3906 12.3774 33.3906 10.2773V9.48242H30.168V10.4653H32.2036V10.5942C32.1875 11.7705 31.3174 12.5654 30.0605 12.5654C28.5835 12.5654 27.6597 11.4375 27.6597 9.58447V9.5791C27.6597 7.76367 28.5566 6.68408 30.0391 6.68408C31.0488 6.68408 31.7524 7.20508 32.0801 8.10205L32.0962 8.16113H33.3315L33.3101 8.06445C32.9878 6.66797 31.8491 5.62061 30.0337 5.62061C27.8315 5.62061 26.4351 7.14062 26.4351 9.58447V9.58984C26.4351 12.082 27.8315 13.6289 30.0498 13.6289ZM37.2095 13.6289C39.0464 13.6289 40.1636 12.7319 40.1636 11.3193V11.314C40.1636 10.1162 39.4761 9.46631 37.8755 9.12793L37.0269 8.95068C36.0601 8.74121 35.6196 8.38672 35.6196 7.80664V7.80127C35.6196 7.12451 36.2319 6.66797 37.1934 6.6626C38.1118 6.6626 38.7349 7.09766 38.8423 7.81738L38.8477 7.89258H40.0186L40.0132 7.80127C39.9326 6.50146 38.8262 5.62061 37.2095 5.62061C35.5713 5.62061 34.4058 6.52832 34.4004 7.84961V7.85498C34.4004 9.00439 35.1362 9.70264 36.6562 10.0249L37.4995 10.2021C38.5254 10.4277 38.9497 10.7661 38.9497 11.3892V11.3945C38.9497 12.1196 38.2944 12.5869 37.2578 12.5869C36.2212 12.5869 35.5068 12.1411 35.3994 11.4268L35.3887 11.3569H34.2178L34.2231 11.4375C34.3198 12.8018 35.4692 13.6289 37.2095 13.6289Z" fill="black"/>
<path d="M317.589 13.5H318.766V5.74951H317.579L315.538 7.19971V8.33838L317.562 6.94189H317.589V13.5ZM323.487 13.6289C325.334 13.6289 326.446 12.0874 326.446 9.62744V9.6167C326.446 7.15674 325.334 5.62061 323.487 5.62061C321.634 5.62061 320.527 7.15674 320.527 9.6167V9.62744C320.527 12.0874 321.634 13.6289 323.487 13.6289ZM323.487 12.6245C322.38 12.6245 321.741 11.4858 321.741 9.62744V9.6167C321.741 7.7583 322.38 6.63037 323.487 6.63037C324.588 6.63037 325.232 7.7583 325.232 9.6167V9.62744C325.232 11.4858 324.588 12.6245 323.487 12.6245ZM330.351 13.6289C332.199 13.6289 333.311 12.0874 333.311 9.62744V9.6167C333.311 7.15674 332.199 5.62061 330.351 5.62061C328.498 5.62061 327.392 7.15674 327.392 9.6167V9.62744C327.392 12.0874 328.498 13.6289 330.351 13.6289ZM330.351 12.6245C329.245 12.6245 328.605 11.4858 328.605 9.62744V9.6167C328.605 7.7583 329.245 6.63037 330.351 6.63037C331.452 6.63037 332.097 7.7583 332.097 9.6167V9.62744C332.097 11.4858 331.452 12.6245 330.351 12.6245ZM335.91 9.63281C336.936 9.63281 337.559 8.87549 337.559 7.65625V7.65088C337.559 6.44238 336.936 5.68506 335.91 5.68506C334.884 5.68506 334.256 6.44238 334.256 7.65088V7.65625C334.256 8.87549 334.884 9.63281 335.91 9.63281ZM336.42 13.5L341.362 5.74951H340.374L335.427 13.5H336.42ZM335.91 8.90234C335.421 8.90234 335.142 8.4458 335.142 7.66162V7.65625C335.142 6.8667 335.421 6.41553 335.91 6.41553C336.399 6.41553 336.678 6.8667 336.678 7.65625V7.66162C336.678 8.4458 336.399 8.90234 335.91 8.90234ZM340.873 13.5645C341.899 13.5645 342.522 12.8071 342.522 11.5933V11.5879C342.522 10.374 341.899 9.6167 340.873 9.6167C339.847 9.6167 339.224 10.374 339.224 11.5879V11.5933C339.224 12.8071 339.847 13.5645 340.873 13.5645ZM340.873 12.834C340.384 12.834 340.105 12.3774 340.105 11.5933V11.5879C340.105 10.7983 340.384 10.3525 340.873 10.3525C341.362 10.3525 341.641 10.7983 341.641 11.5879V11.5933C341.641 12.3774 341.362 12.834 340.873 12.834Z" fill="black"/>
<path opacity="0.4" d="M346.5 7.5C346.5 6.39543 347.395 5.5 348.5 5.5H365.5C366.605 5.5 367.5 6.39543 367.5 7.5V13C367.5 14.1046 366.605 15 365.5 15H364.469H348.5C347.395 15 346.5 14.1046 346.5 13V7.5Z" stroke="black"/>
<path fill-rule="evenodd" clip-rule="evenodd" d="M369 12.374C369.863 12.152 370.5 11.3689 370.5 10.437C370.5 9.50507 369.863 8.72202 369 8.5V12.374Z" fill="#343434"/>
<path fill-rule="evenodd" clip-rule="evenodd" d="M348 8C348 7.44772 348.448 7 349 7H365C365.552 7 366 7.44772 366 8V12.5C366 13.0523 365.552 13.5 365 13.5H349C348.448 13.5 348 13.0523 348 12.5V8Z" fill="black"/>
<path d="M171.441 5.62061C169.803 5.62061 168.605 6.73242 168.605 8.2793V8.29004C168.605 9.75635 169.679 10.8359 171.162 10.8359C172.214 10.8359 172.999 10.2881 173.305 9.58984H173.332C173.332 9.65967 173.332 9.72949 173.326 9.79932C173.278 11.3354 172.735 12.6191 171.403 12.6191C170.662 12.6191 170.157 12.2539 169.937 11.6738L169.916 11.6201H168.712L168.729 11.6846C168.976 12.8394 170.012 13.6289 171.393 13.6289C173.332 13.6289 174.486 12.1035 174.486 9.52002V9.50928C174.486 6.72168 173.025 5.62061 171.441 5.62061ZM171.436 9.8584C170.496 9.8584 169.803 9.19238 169.803 8.25781V8.24707C169.803 7.34473 170.539 6.63037 171.452 6.63037C172.375 6.63037 173.095 7.35547 173.095 8.27393V8.2793C173.095 9.19775 172.381 9.8584 171.436 9.8584ZM176.194 8.31152C176.586 8.31152 176.898 8 176.898 7.60254C176.898 7.21045 176.586 6.89893 176.194 6.89893C175.797 6.89893 175.485 7.21045 175.485 7.60254C175.485 8 175.797 8.31152 176.194 8.31152ZM176.194 12.3452C176.586 12.3452 176.898 12.0337 176.898 11.6416C176.898 11.2441 176.586 10.938 176.194 10.938C175.797 10.938 175.485 11.2441 175.485 11.6416C175.485 12.0337 175.797 12.3452 176.194 12.3452ZM181.716 13.5H182.871V11.9585H183.939V10.9487H182.871V5.74951H181.13L177.838 10.9111V11.9585H181.716V13.5ZM178.955 10.9648V10.9326L181.694 6.7002H181.727V10.9648H178.955ZM186.792 13.5H187.968V5.74951H186.781L184.74 7.19971V8.33838L186.765 6.94189H186.792V13.5ZM191.631 13.5H192.893L193.607 11.4053H196.594L197.303 13.5H198.565L195.75 5.74951H194.451L191.631 13.5ZM195.09 7.0332H195.111L196.266 10.4385H193.93L195.09 7.0332ZM199.424 13.5H200.52V7.77979H200.558L202.894 13.5H203.786L206.122 7.77979H206.16V13.5H207.255V5.74951H205.87L203.356 11.937H203.324L200.815 5.74951H199.424V13.5Z" fill="black"/>
<path fill-rule="evenodd" clip-rule="evenodd" d="M51.9876 5.5C54.5506 5.5 56.863 6.53944 58.5 8.20688L57.4119 9.26404C56.0539 7.86553 54.126 6.99223 51.9876 6.99223C49.8629 6.99223 47.9461 7.85432 46.5896 9.23709L45.5 8.18164C47.1355 6.52896 49.4375 5.5 51.9876 5.5ZM56.3235 10.3214C55.2448 9.19175 53.7014 8.48446 51.9876 8.48446C50.2883 8.48446 48.7566 9.17976 47.6793 10.2927L48.7693 11.3486C49.5672 10.5054 50.7136 9.97668 51.9876 9.97668C53.2769 9.97668 54.4356 10.5182 55.2346 11.3793L56.3235 10.3214ZM54.1444 12.4385C53.6264 11.8454 52.8524 11.4689 51.9876 11.4689C51.139 11.4689 50.3779 11.8314 49.8602 12.4053L52.0225 14.5L54.1444 12.4385Z" fill="black"/>
<path fill-rule="evenodd" clip-rule="evenodd" d="M19.5 5C19.2239 5 19 5.22386 19 5.5V14C19 14.2761 19.2239 14.5 19.5 14.5H21C21.2761 14.5 21.5 14.2761 21.5 14V5.5C21.5 5.22386 21.2761 5 21 5H19.5ZM15.5 7.5C15.2239 7.5 15 7.72386 15 8V14C15 14.2761 15.2239 14.5 15.5 14.5H17C17.2761 14.5 17.5 14.2761 17.5 14V8C17.5 7.72386 17.2761 7.5 17 7.5H15.5ZM11 10C11 9.72386 11.2239 9.5 11.5 9.5H13C13.2761 9.5 13.5 9.72386 13.5 10V14C13.5 14.2761 13.2761 14.5 13 14.5H11.5C11.2239 14.5 11 14.2761 11 14V10ZM7.5 11.5C7.22386 11.5 7 11.7239 7 12V14C7 14.2761 7.22386 14.5 7.5 14.5H9C9.27614 14.5 9.5 14.2761 9.5 14V12C9.5 11.7239 9.27614 11.5 9 11.5H7.5Z" fill="black"/>
</svg>
