<svg width="131" height="20" viewBox="0 0 131 20" fill="none" xmlns="http://www.w3.org/2000/svg">
<path d="M1.336 19C1.064 19 0.84 18.944 0.664 18.832C0.488 18.704 0.4 18.52 0.4 18.28V0.975999C0.4 0.751999 0.464 0.575999 0.592 0.447999C0.736 0.319999 0.912 0.256 1.12 0.256H7C7.896 0.256 8.712 0.455999 9.448 0.855999C10.184 1.24 10.776 1.776 11.224 2.464C11.672 3.136 11.896 3.912 11.896 4.792C11.896 5.72 11.648 6.536 11.152 7.24C10.672 7.928 10.04 8.448 9.256 8.8C10.344 9.104 11.216 9.664 11.872 10.48C12.544 11.296 12.88 12.32 12.88 13.552C12.88 14.608 12.64 15.552 12.16 16.384C11.696 17.2 11.048 17.84 10.216 18.304C9.384 18.768 8.432 19 7.36 19H1.336ZM1.84 8.176H7C8.008 8.176 8.832 7.872 9.472 7.264C10.128 6.64 10.456 5.816 10.456 4.792C10.456 3.8 10.128 3.04 9.472 2.512C8.832 1.968 8.008 1.696 7 1.696H1.84V8.176ZM1.84 17.56H7.36C8.16 17.56 8.864 17.392 9.472 17.056C10.08 16.704 10.56 16.232 10.912 15.64C11.264 15.032 11.44 14.336 11.44 13.552C11.44 12.784 11.264 12.104 10.912 11.512C10.56 10.92 10.08 10.456 9.472 10.12C8.864 9.784 8.16 9.616 7.36 9.616H1.84V17.56ZM20.2913 19.24C19.6353 19.24 18.9793 19.136 18.3233 18.928C17.6673 18.72 17.0753 18.44 16.5473 18.088C16.0353 17.72 15.6353 17.312 15.3473 16.864C15.2513 16.688 15.2433 16.512 15.3233 16.336C15.4033 16.16 15.5473 16.024 15.7553 15.928C15.8993 15.864 16.0593 15.872 16.2353 15.952C16.4113 16.016 16.5553 16.128 16.6673 16.288C17.0833 16.736 17.6033 17.12 18.2273 17.44C18.8513 17.744 19.5313 17.896 20.2673 17.896C21.2593 17.896 22.0833 17.688 22.7393 17.272C23.4113 16.84 23.7473 16.208 23.7473 15.376C23.7473 14.656 23.4753 14.04 22.9313 13.528C22.4033 13.016 21.7313 12.744 20.9153 12.712H19.8113C19.5553 12.712 19.3393 12.648 19.1633 12.52C19.0033 12.392 18.9233 12.232 18.9233 12.04C18.9233 11.848 19.0033 11.688 19.1633 11.56C19.3393 11.432 19.5553 11.368 19.8113 11.368H20.9153C21.5713 11.368 22.1153 11.16 22.5473 10.744C22.9953 10.312 23.2193 9.784 23.2193 9.16C23.2193 8.552 22.9393 8.04 22.3793 7.624C21.8353 7.208 21.1473 7 20.3153 7C19.4673 7 18.7953 7.152 18.2993 7.456C17.8033 7.744 17.3953 8.112 17.0753 8.56C16.9633 8.72 16.8113 8.824 16.6193 8.872C16.4433 8.92 16.2673 8.904 16.0913 8.824C15.8833 8.728 15.7473 8.592 15.6833 8.416C15.6353 8.224 15.6673 8.04 15.7793 7.864C16.2753 7.224 16.8913 6.696 17.6273 6.28C18.3793 5.848 19.2753 5.632 20.3153 5.632C21.1473 5.632 21.8833 5.784 22.5233 6.088C23.1793 6.376 23.6993 6.776 24.0833 7.288C24.4673 7.8 24.6593 8.384 24.6593 9.04C24.6593 9.68 24.4513 10.272 24.0353 10.816C23.6353 11.344 23.1073 11.736 22.4513 11.992C23.2513 12.168 23.9073 12.568 24.4193 13.192C24.9313 13.816 25.1873 14.552 25.1873 15.4C25.1873 16.12 24.9713 16.776 24.5393 17.368C24.1233 17.944 23.5473 18.4 22.8113 18.736C22.0753 19.072 21.2353 19.24 20.2913 19.24ZM33.2976 5.848C33.4576 5.848 33.6096 5.888 33.7536 5.968C33.8976 6.048 34.0016 6.176 34.0656 6.352L39.4656 18.088C39.5456 18.248 39.5456 18.416 39.4656 18.592C39.4016 18.768 39.2816 18.896 39.1056 18.976C38.9296 19.056 38.7456 19.064 38.5536 19C38.3776 18.936 38.2496 18.816 38.1696 18.64L33.3696 8.08L28.4976 18.616C28.4176 18.792 28.2736 18.912 28.0656 18.976C27.8736 19.04 27.6896 19.032 27.5136 18.952C27.3376 18.872 27.2176 18.744 27.1536 18.568C27.0896 18.392 27.0896 18.224 27.1536 18.064L32.6256 6.352C32.8016 6.016 33.0256 5.848 33.2976 5.848ZM48.343 19.12C47.079 19.12 45.951 18.84 44.959 18.28C43.983 17.704 43.215 16.912 42.655 15.904C42.095 14.896 41.815 13.744 41.815 12.448C41.815 11.136 42.079 9.984 42.607 8.992C43.135 7.984 43.863 7.192 44.791 6.616C45.719 6.04 46.783 5.752 47.983 5.752C49.167 5.752 50.215 6.032 51.127 6.592C52.039 7.136 52.751 7.896 53.263 8.872C53.775 9.832 54.031 10.944 54.031 12.208C54.031 12.416 53.967 12.584 53.839 12.712C53.711 12.824 53.543 12.88 53.335 12.88H43.279C43.327 13.84 43.575 14.688 44.023 15.424C44.471 16.16 45.063 16.736 45.799 17.152C46.551 17.568 47.399 17.776 48.343 17.776C48.967 17.776 49.591 17.672 50.215 17.464C50.855 17.24 51.359 16.952 51.727 16.6C51.855 16.472 52.007 16.408 52.183 16.408C52.375 16.392 52.535 16.44 52.663 16.552C52.839 16.696 52.927 16.856 52.927 17.032C52.943 17.208 52.871 17.368 52.711 17.512C52.199 17.976 51.527 18.36 50.695 18.664C49.879 18.968 49.095 19.12 48.343 19.12ZM47.983 7.096C47.151 7.096 46.399 7.288 45.727 7.672C45.055 8.056 44.503 8.592 44.071 9.28C43.655 9.952 43.399 10.736 43.303 11.632H52.639C52.527 10.288 52.047 9.2 51.199 8.368C50.351 7.52 49.279 7.096 47.983 7.096ZM57.88 19C57.672 19 57.496 18.936 57.352 18.808C57.224 18.664 57.16 18.488 57.16 18.28V6.592C57.16 6.368 57.224 6.192 57.352 6.064C57.496 5.936 57.672 5.872 57.88 5.872C58.104 5.872 58.28 5.936 58.408 6.064C58.536 6.192 58.6 6.368 58.6 6.592V7.528C59.048 6.952 59.592 6.504 60.232 6.184C60.888 5.864 61.6 5.704 62.368 5.704C63.312 5.704 64.152 5.936 64.888 6.4C65.624 6.848 66.2 7.472 66.616 8.272C67.048 7.472 67.648 6.848 68.416 6.4C69.184 5.936 70.048 5.704 71.008 5.704C71.984 5.704 72.84 5.944 73.576 6.424C74.312 6.904 74.888 7.568 75.304 8.416C75.736 9.264 75.952 10.24 75.952 11.344V18.28C75.952 18.488 75.888 18.664 75.76 18.808C75.632 18.936 75.456 19 75.232 19C75.024 19 74.848 18.936 74.704 18.808C74.576 18.664 74.512 18.488 74.512 18.28V11.344C74.512 10.112 74.184 9.104 73.528 8.32C72.888 7.536 72.048 7.144 71.008 7.144C69.904 7.144 69 7.512 68.296 8.248C67.608 8.968 67.28 9.944 67.312 11.176C67.312 11.224 67.312 11.28 67.312 11.344V18.28C67.312 18.488 67.248 18.664 67.12 18.808C66.992 18.936 66.816 19 66.592 19C66.384 19 66.208 18.936 66.064 18.808C65.936 18.664 65.872 18.488 65.872 18.28V11.344C65.872 10.112 65.544 9.104 64.888 8.32C64.248 7.536 63.408 7.144 62.368 7.144C61.264 7.144 60.36 7.496 59.656 8.2C58.952 8.904 58.6 9.816 58.6 10.936V18.28C58.6 18.488 58.536 18.664 58.408 18.808C58.28 18.936 58.104 19 57.88 19ZM86.035 19.144C84.755 19.144 83.603 18.856 82.579 18.28C81.571 17.688 80.771 16.888 80.179 15.88C79.603 14.856 79.315 13.712 79.315 12.448C79.315 11.168 79.603 10.024 80.179 9.016C80.771 7.992 81.571 7.192 82.579 6.616C83.603 6.024 84.755 5.728 86.035 5.728C87.315 5.728 88.459 6.024 89.467 6.616C90.475 7.192 91.267 7.992 91.843 9.016C92.435 10.024 92.731 11.168 92.731 12.448V18.28C92.731 18.488 92.667 18.664 92.539 18.808C92.411 18.936 92.235 19 92.011 19C91.803 19 91.627 18.936 91.483 18.808C91.355 18.664 91.291 18.488 91.291 18.28V16.408C90.763 17.24 90.043 17.904 89.131 18.4C88.219 18.896 87.187 19.144 86.035 19.144ZM86.035 17.8C87.043 17.8 87.939 17.568 88.723 17.104C89.523 16.624 90.147 15.984 90.595 15.184C91.059 14.368 91.291 13.456 91.291 12.448C91.291 11.424 91.059 10.512 90.595 9.712C90.147 8.896 89.523 8.256 88.723 7.792C87.939 7.312 87.043 7.072 86.035 7.072C85.043 7.072 84.147 7.312 83.347 7.792C82.547 8.256 81.915 8.896 81.451 9.712C80.987 10.512 80.755 11.424 80.755 12.448C80.755 13.456 80.987 14.368 81.451 15.184C81.915 15.984 82.547 16.624 83.347 17.104C84.147 17.568 85.043 17.8 86.035 17.8ZM102.132 19.12C100.868 19.12 99.7401 18.84 98.7481 18.28C97.7721 17.704 97.0041 16.912 96.4441 15.904C95.8841 14.896 95.6041 13.744 95.6041 12.448C95.6041 11.136 95.8681 9.984 96.3961 8.992C96.9241 7.984 97.6521 7.192 98.5801 6.616C99.5081 6.04 100.572 5.752 101.772 5.752C102.956 5.752 104.004 6.032 104.916 6.592C105.828 7.136 106.54 7.896 107.052 8.872C107.564 9.832 107.82 10.944 107.82 12.208C107.82 12.416 107.756 12.584 107.628 12.712C107.5 12.824 107.332 12.88 107.124 12.88H97.0681C97.1161 13.84 97.3641 14.688 97.8121 15.424C98.2601 16.16 98.8521 16.736 99.5881 17.152C100.34 17.568 101.188 17.776 102.132 17.776C102.756 17.776 103.38 17.672 104.004 17.464C104.644 17.24 105.148 16.952 105.516 16.6C105.644 16.472 105.796 16.408 105.972 16.408C106.164 16.392 106.324 16.44 106.452 16.552C106.628 16.696 106.716 16.856 106.716 17.032C106.732 17.208 106.66 17.368 106.5 17.512C105.988 17.976 105.316 18.36 104.484 18.664C103.668 18.968 102.884 19.12 102.132 19.12ZM101.772 7.096C100.94 7.096 100.188 7.288 99.5161 7.672C98.8441 8.056 98.2921 8.592 97.8601 9.28C97.4441 9.952 97.1881 10.736 97.0921 11.632H106.428C106.316 10.288 105.836 9.2 104.988 8.368C104.14 7.52 103.068 7.096 101.772 7.096ZM111.669 19C111.189 19 110.949 18.76 110.949 18.28V6.592C110.949 6.112 111.189 5.872 111.669 5.872C112.021 5.872 112.301 6.032 112.509 6.352L118.029 14.368L123.549 6.352C123.757 6.032 124.037 5.872 124.389 5.872C124.869 5.872 125.109 6.112 125.109 6.592V18.28C125.109 18.76 124.869 19 124.389 19C123.909 19 123.669 18.76 123.669 18.28V8.368L118.629 15.736C118.469 15.944 118.269 16.048 118.029 16.048C117.789 16.048 117.589 15.944 117.429 15.736L112.389 8.488V18.28C112.389 18.76 112.149 19 111.669 19ZM129.682 14.872C129.49 14.872 129.314 14.808 129.154 14.68C129.01 14.536 128.938 14.36 128.938 14.152V0.975999C128.938 0.751999 129.01 0.575999 129.154 0.447999C129.298 0.303998 129.474 0.231998 129.682 0.231998C129.89 0.231998 130.058 0.303998 130.186 0.447999C130.33 0.575999 130.402 0.751999 130.402 0.975999V14.152C130.402 14.36 130.322 14.536 130.162 14.68C130.018 14.808 129.858 14.872 129.682 14.872ZM129.682 19C129.33 19 129.034 18.888 128.794 18.664C128.57 18.424 128.458 18.128 128.458 17.776C128.458 17.424 128.578 17.136 128.818 16.912C129.058 16.688 129.346 16.576 129.682 16.576C130.018 16.576 130.298 16.696 130.522 16.936C130.762 17.16 130.882 17.44 130.882 17.776C130.882 18.112 130.762 18.4 130.522 18.64C130.298 18.88 130.018 19 129.682 19Z" fill="#424242"/>
</svg>
