<svg width="66" height="62" viewBox="0 0 66 62" fill="none" xmlns="http://www.w3.org/2000/svg">
<mask id="mask0" mask-type="alpha" maskUnits="userSpaceOnUse" x="0" y="4" width="57" height="58">
<path d="M0.999999 33.0469C1 17.9383 13.2697 5.6875 28.4087 5.6875C43.5477 5.6875 55.8174 17.9383 55.8174 33.0469C55.8174 48.1554 43.5477 60.4062 28.4087 60.4062C13.2696 60.4062 0.999997 48.1554 0.999999 33.0469Z" fill="white" stroke="#424242" stroke-width="2"/>
</mask>
<g mask="url(#mask0)">
<path d="M27.4622 63.3894C27.2441 47.4929 44.9134 22.2872 53.6389 13.3046C44.2771 18.93 23.5903 35.7883 13.5559 60.3952L27.4622 63.3894Z" fill="url(#paint0_linear)"/>
<path d="M11.1018 60.123C10.8837 44.2265 43.0046 19.8374 53.6389 13.3046C43.0047 17.932 13.2287 29.2555 3.19431 53.8624L11.1018 60.123Z" fill="url(#paint1_linear)"/>
<path d="M1.28558 47.0574C13.5559 28.82 41.6413 17.6598 53.6389 13.3046C43.8227 15.21 14.9193 20.3818 -1.98651 35.8972L1.28558 47.0574Z" fill="url(#paint2_linear)"/>
</g>
<path d="M58.7898 6.4985C59.2218 6.27879 59.683 6.73922 59.4629 7.17041L57.6167 10.7874C57.5183 10.9803 57.5555 11.2144 57.7088 11.3675L60.5842 14.2379C60.927 14.5801 60.6309 15.1603 60.1521 15.0846L56.1356 14.4496C55.9215 14.4157 55.7099 14.5233 55.6115 14.7162L53.7653 18.3332C53.5452 18.7644 52.901 18.6625 52.8251 18.1845L52.189 14.175C52.1551 13.9613 51.9871 13.7936 51.773 13.7598L47.7566 13.1247C47.2777 13.049 47.1757 12.4059 47.6076 12.1862L51.2309 10.3433C51.4241 10.245 51.5319 10.0337 51.498 9.81999L50.8619 5.81051C50.786 5.33253 51.3672 5.03691 51.71 5.37911L54.5855 8.24958C54.7388 8.40262 54.9734 8.43971 55.1665 8.34145L58.7898 6.4985Z" fill="#FF5858"/>
<defs>
<linearGradient id="paint0_linear" x1="33.5974" y1="63.3894" x2="33.5974" y2="13.3046" gradientUnits="userSpaceOnUse">
<stop stop-color="#FF5858"/>
<stop offset="0.552083" stop-color="#FEC940"/>
<stop offset="1" stop-color="#F09819" stop-opacity="0"/>
</linearGradient>
<linearGradient id="paint1_linear" x1="28.4166" y1="60.123" x2="28.4166" y2="13.3046" gradientUnits="userSpaceOnUse">
<stop stop-color="#FF5858"/>
<stop offset="0.552083" stop-color="#FEC940"/>
<stop offset="1" stop-color="#F09819" stop-opacity="0"/>
</linearGradient>
<linearGradient id="paint2_linear" x1="25.8262" y1="47.0574" x2="25.8262" y2="13.3046" gradientUnits="userSpaceOnUse">
<stop stop-color="#FF5858"/>
<stop offset="0.552083" stop-color="#FEC940"/>
<stop offset="1" stop-color="#F09819" stop-opacity="0"/>
</linearGradient>
</defs>
</svg>
